<svg id="Layer_1" data-name="Layer 1" xmlns="http://www.w3.org/2000/svg" viewBox="0 0 242.1 114.12"><defs><style>.cls-1{fill:#010101;}</style></defs><path class="cls-1" d="M320.87,329.09a74,74,0,0,0,.3,10.53c.44,3.2,1.26,6.35,1.48,9.58.25,3.48.22,7,.3,10.46s.41,6.95.68,10.43c.54,7,.64,13.88.76,20.85s.72,13.77.82,20.66c.05,3.83,0,7.67,0,11.5,0,2.59-.72,5.38.54,7.8.81,1.56,3.54,1.7,4.31,0a23.06,23.06,0,0,0,1.6-7.15c.14-1.25.33-2.48.35-3.73,0-1.54-.13-3.07-.06-4.61a45,45,0,0,1,1.29-7.36,70.33,70.33,0,0,1,2-7.44A38.26,38.26,0,0,1,338.2,394a41.88,41.88,0,0,1,3.89-6.42,20.36,20.36,0,0,1,4-4,1.79,1.79,0,0,1,.7-.36c-.3.07.46,0,.11,0a1.82,1.82,0,0,1,1.07.63c2,2,3.14,5.13,4.1,8a64.55,64.55,0,0,1,2.76,10.69c1.23,8.11.37,18.47-6,24.46-3.35,3.17-8.3,2.32-12.18.68a20.12,20.12,0,0,1-6.39-3.82,14.29,14.29,0,0,1-1.86-2.18,3.34,3.34,0,0,1-.85-2.18,2.51,2.51,0,0,0-2.5-2.5,2.56,2.56,0,0,0-2.5,2.5c-.32,2.43,1.48,4.8,2.93,6.54a19.72,19.72,0,0,0,6.12,4.75c4.48,2.33,9.52,4.09,14.63,3,5.3-1.1,8.9-5.77,11-10.46a35.7,35.7,0,0,0,3-15.09,51.6,51.6,0,0,0-2.53-15,46.28,46.28,0,0,0-4-10c-2.1-3.52-6-6.64-10.08-4.13a22.35,22.35,0,0,0-5.17,4.87,43.93,43.93,0,0,0-4.57,7.24,60.5,60.5,0,0,0-6.11,18.15c-.32,1.67-.67,3.35-.85,5-.19,1.85,0,3.71,0,5.57,0,1.5-.27,3-.44,4.5a13.3,13.3,0,0,1-.82,3.85h4.31c.25.48,0-.18-.05-.29.06.31,0-.18,0-.2a17.77,17.77,0,0,1,0-1.79c.06-1.08.17-2.15.17-3.23q0-5,0-10c0-6.82-.62-13.61-.8-20.43s-.16-13.58-.64-20.38c-.25-3.47-.63-6.94-.77-10.42s-.11-6.8-.24-10.2a88.46,88.46,0,0,0-1.5-11.24,64.94,64.94,0,0,1-.4-11.07c0-3.21-5-3.22-5,0Z" transform="translate(-261.1 -326.68)"/><path class="cls-1" d="M305,386.91c-5.18-6.77-10.66-17.23-20.92-13.62a26.11,26.11,0,0,0-12.66,9.37,37,37,0,0,0-3.62,7.72c-1.14,2.9-2.17,5.84-3.11,8.81-1.82,5.75-3.41,11.71-3.56,17.77-.11,4.13.46,9.12,3.26,12.37,3.26,3.76,7.91,1.58,11.2-.85a37.17,37.17,0,0,0,4.53-3.87,20.4,20.4,0,0,0,4-6.48c2.53-5.94,6.13-11.37,8.43-17.41a76.76,76.76,0,0,0,2.67-9.43c.7-3,.34-6.41,1.82-9.13l-4.57-.6c.51,1.82.17,3.79.1,5.64-.08,2.19-.06,4.41,0,6.6.21,4.8.64,9.64,1.09,14.43a97.37,97.37,0,0,0,2,12.81c.89,3.87,2.4,7.95,5.37,10.72a8.48,8.48,0,0,0,6.53,2.49c2.39-.25,4.29-1.65,6.15-3.05a2.58,2.58,0,0,0,.9-3.42,2.52,2.52,0,0,0-3.42-.9c-1.12.84-2.52,2.19-4,2.4s-2.66-.92-3.5-1.94c-2.16-2.61-3-6.14-3.62-9.4a101.79,101.79,0,0,1-1.58-11.68c-.35-4.29-.78-8.62-.94-12.93-.07-2.23-.1-4.48,0-6.7a19.58,19.58,0,0,0-.31-6.39,2.53,2.53,0,0,0-4.57-.6,18.82,18.82,0,0,0-1.85,7.45,54.39,54.39,0,0,1-1.75,7.68c-1.26,5.12-3.67,9.6-6.15,14.21-1.19,2.23-2.25,4.48-3.24,6.81a16.51,16.51,0,0,1-3.19,5.35,28.69,28.69,0,0,1-3.58,3.12,21.6,21.6,0,0,1-2.22,1.44,6.28,6.28,0,0,1-1.76.74c.31-.05-.13,0-.21,0-.25-.06.44.35-.07,0-.15-.11-.31-.18-.2-.07a5,5,0,0,1-1.16-1.65,13.4,13.4,0,0,1-.69-2.24,15.14,15.14,0,0,1-.38-2.15c-.5-4.94.48-9.92,1.77-14.66a137.52,137.52,0,0,1,5.46-16.07,19.2,19.2,0,0,1,3.26-5.65,21.9,21.9,0,0,1,5-4c1.93-1.18,4.2-2.41,6.53-2.43a5.69,5.69,0,0,1,2.21.5,9.77,9.77,0,0,1,2.3,1.52c3.22,2.81,5.31,6.56,7.88,9.92a2.58,2.58,0,0,0,3.42.89,2.51,2.51,0,0,0,.89-3.42Z" transform="translate(-261.1 -326.68)"/><path class="cls-1" d="M379.28,376.39c-1.08,1.69-2.38,3.23-3.34,5a25.61,25.61,0,0,0-2.23,6.89c-.49,2.25-1,4.48-1.63,6.69a37.31,37.31,0,0,0-1.14,6.72c-.24,2.34-.61,4.67-.7,7a57.47,57.47,0,0,0,.28,7.42c.37,4,.87,8,2.76,11.68,1.69,3.25,4.67,6.21,8.62,5.76,4.1-.48,7.33-3.95,9.53-7.19,2.35-3.46,3.32-7.61,3.89-11.69a52.46,52.46,0,0,0,.53-13.82c-.32-2.7-.79-5.37-1.33-8a18.06,18.06,0,0,0-2.16-6,14.94,14.94,0,0,0-5.24-4.78c-1.92-1.12-4-2-5.66-3.53-2.34-2.2-5.88,1.33-3.53,3.54a21.48,21.48,0,0,0,4.57,3.15,20.53,20.53,0,0,1,4.33,2.73c2.56,2.39,2.9,6.22,3.49,9.5A43,43,0,0,1,391,409.7a48,48,0,0,1-2,10.38,15.57,15.57,0,0,1-5.62,7.66c-2.6,1.73-4.19.43-5.56-2-1.6-2.86-2-6.15-2.3-9.36a58,58,0,0,1,.16-12.57,44.15,44.15,0,0,1,1-6.7c.61-2.18,1.19-4.34,1.66-6.55a25.17,25.17,0,0,1,1.84-6.46c1-1.84,2.32-3.43,3.42-5.18,1.73-2.72-2.59-5.23-4.31-2.52Z" transform="translate(-261.1 -326.68)"/><path class="cls-1" d="M409,383.39c0,8.93-.22,17.89,0,26.81.17,6.25,1,14.2,6.74,17.94a7.53,7.53,0,0,0,7.43.49,14.58,14.58,0,0,0,5.34-5,51,51,0,0,0,6.09-12.74,90.61,90.61,0,0,0,3.32-13.51,42,42,0,0,1,1.63-6.35,16.91,16.91,0,0,0,1.39-6.6,2.5,2.5,0,0,0-5,0c-.42,9.49-.78,19,.2,28.52a101.78,101.78,0,0,0,2.38,13.87c1,3.92,2.38,8.64,5.37,11.52a8.31,8.31,0,0,0,12-.13c2.23-2.32-1.3-5.86-3.53-3.53-1.76,1.84-4.11,1.43-5.57-.68-2.15-3.1-3.1-7-3.88-10.6a115.91,115.91,0,0,1-2.34-24.51c0-4.82.21-9.64.42-14.46h-5a12,12,0,0,1-1,4.7,36.17,36.17,0,0,0-1.49,5.09c-.76,4-1.46,8-2.58,12a64.66,64.66,0,0,1-2.19,6.32l-.3.75-.13.33c0-.05.13-.31,0,0-.23.54-.47,1.08-.71,1.61-.5,1.08-1,2.14-1.61,3.18a28.3,28.3,0,0,1-1.81,2.87l-.3.41s.19-.24,0,0-.31.38-.47.56a12.48,12.48,0,0,1-1.14,1.16c-.09.08-.66.52-.26.23-.17.12-.34.24-.52.35s-.35.2-.53.3-.43.17.06,0c-.12,0-.24.09-.37.12l-.55.14c.48-.1.09,0-.19,0-.1,0-.66-.07-.34,0s-.44-.14-.55-.18c-.27-.08.06,0,.1,0a2.8,2.8,0,0,1-.3-.15l-.61-.37a4.29,4.29,0,0,1-.42-.34,8.38,8.38,0,0,1-.72-.74,10.14,10.14,0,0,1-1.65-3.15A30.09,30.09,0,0,1,414,411c-.17-4.14,0-8.29-.05-12.43q0-7.59,0-15.18c0-3.22-5-3.22-5,0Z" transform="translate(-261.1 -326.68)"/><path class="cls-1" d="M463.55,342.06a36.26,36.26,0,0,1,.72,5.18c.1,1.95,0,3.9.19,5.85.32,4.18.76,8.25.71,12.44-.09,8.29-.4,16.58-.26,24.87s1,16.63,1.79,24.94a35.83,35.83,0,0,0,.8,5.84,39.85,39.85,0,0,0,2.08,5.62c1.41,3.25,2.7,6.47,5.64,8.64a6.14,6.14,0,0,0,5.37,1.11,29,29,0,0,0,5.18-1.51c3.27-1.48,5.58-4.27,7.56-7.17a2.5,2.5,0,1,0-4.31-2.52,14.09,14.09,0,0,1-5.47,5.23,22,22,0,0,1-3.84,1c-.52.13-.74.27-1,.19.42.14-.64-.45-.27-.19a9.73,9.73,0,0,1-1.07-.85,10.93,10.93,0,0,1-2.16-3.49c-.69-1.54-1.4-3.09-2-4.67-1.32-3.48-1.48-7-1.84-10.65-.74-7.58-1.39-15.15-1.48-22.77-.1-7.8.17-15.6.27-23.4.05-4.36-.41-8.59-.73-12.92-.15-2-.06-4-.19-6a48,48,0,0,0-.88-6.09,2.5,2.5,0,1,0-4.82,1.33Z" transform="translate(-261.1 -326.68)"/><path class="cls-1" d="M451.22,394.33c1.93.18,3.66-.6,5.55-.8,2.14-.22,4.19-.29,6.32-.72a53.19,53.19,0,0,1,5.75-1c2.11-.2,4.22-.2,6.33-.44,8.48-.94,17.09-.51,25.61-.51,3.22,0,3.23-5,0-5-8.52,0-17.13-.43-25.61.51-2,.23-4.06.25-6.1.42a51.72,51.72,0,0,0-6.17,1,43.35,43.35,0,0,1-5.89.77c-1.95.13-3.85,1-5.79.81a2.51,2.51,0,0,0-2.5,2.5,2.55,2.55,0,0,0,2.5,2.5Z" transform="translate(-261.1 -326.68)"/></svg>