<svg xmlns="http://www.w3.org/2000/svg" viewBox="0 0 237.06 67.88"><defs><style>.cls-1{fill:#231f20;}</style></defs><g id="Layer_2" data-name="Layer 2"><g id="Layer_1-2" data-name="Layer 1"><path class="cls-1" d="M16.08,36.61A18,18,0,0,0,13.61,31a11,11,0,0,0-4.67-4.5C3.33,24.11.9,33.18.44,37,.1,39.85.28,42.69.1,45.53,0,47.67-.26,50.3,1.38,52a3.77,3.77,0,0,0,5.68-.38C8.47,50,9.16,47.83,10.28,46c1.61-2.62,3.28-5.2,4.63-8s2.48-5.75,2.21-8.84C17,28,14.48,27,14.43,28.61c-.12,3.59,0,7.18,0,10.77,0,3.06-.35,6.27.71,9.2.8,2.21,2.68,5.42,5.42,5.27,2.32-.13,3.95-2.63,5.44-4.12,1.11-1.1-1-3.19-2.16-2.08-.74.74-1.44,1.54-2.18,2.27-.43.43-1.14,1.23-1.81,1.24s-1.39-1.3-1.69-1.84a8.89,8.89,0,0,1-1-3.18,76.11,76.11,0,0,1-.09-7.85c0-2.92-.08-5.83,0-8.74l-2.69-.61A13.11,13.11,0,0,1,13,35.1a50.24,50.24,0,0,1-3.39,6.3c-1,1.59-2,3.13-2.86,4.81-.63,1.28-1.41,3.55-2.87,4.12s-1.23-1.92-1.2-2.77c.1-2.09.11-4.17.18-6.26a24.55,24.55,0,0,1,1.27-7.89c.54-1.41,1.72-4.47,3.56-4.63,1.46-.12,2.75,1.81,3.44,2.83a14.63,14.63,0,0,1,2.22,4.73,1.8,1.8,0,0,0,1.52,1.48,1,1,0,0,0,1.17-1.21Z"/><path class="cls-1" d="M29.67,29.9c0,3.18-.41,6.38-.07,9.55a38.6,38.6,0,0,0,1.08,4,20.51,20.51,0,0,1,0,4.5l2.69.94c0-4.07-.12-8.64,1.75-12.37,1.42-2.83,4.23-4.4,6.89-5.9,1.44-.81-.33-3.2-1.65-2.46-3,1.69-6,3.47-7.65,6.59-2.1,4-2,8.85-2,13.2a1.77,1.77,0,0,0,1.18,1.73c.57.2,1.51,0,1.51-.79a38.56,38.56,0,0,0,.09-4.56c-.15-1.37-.82-2.59-1.09-3.93-.61-3.08,0-6.41,0-9.52a1.77,1.77,0,0,0-1.18-1.73c-.57-.2-1.51,0-1.51.79Z"/><path class="cls-1" d="M53.08,18.71c0,4.47,0,9,0,13.43q0,3.36,0,6.72a39.41,39.41,0,0,0,.19,5.85,22.11,22.11,0,0,0,1.27,4.72c.58,1.55,1.23,3.46,2.87,4.18,2.68,1.18,4.68-2.3,6.24-3.88,1.1-1.11-1.06-3.2-2.16-2.08-.84.85-1.56,1.81-2.41,2.65a2.75,2.75,0,0,1-1.13.84c-.13,0,.06.08.11.11-.23-.13-.46-.87-.55-1.08a21.17,21.17,0,0,1-1.74-8.63c0-7.3,0-14.6,0-21.9a1.78,1.78,0,0,0-1.18-1.73c-.57-.19-1.51,0-1.51.8Z"/><path class="cls-1" d="M42.05,38.76a9,9,0,0,0,6.26-.48c1.94-.86,3.64-2.17,5.51-3.14a53.38,53.38,0,0,1,6.49-2.45,24,24,0,0,0,6.39-3.31c1.22-.93-.91-3-2.16-2.09-3.47,2.65-7.9,3.26-11.76,5.08-3.25,1.54-6.51,5-10.4,3.86-1.88-.52-1.91,2.09-.33,2.53Z"/><path class="cls-1" d="M106.4,51.2c-2.85-4.92-5-10.22-7.75-15.16a37.3,37.3,0,0,0-4.4-6.38c-1.53-1.72-3.38-3.28-4.53-5.3s-.16-4.11,1.3-5.6c.5-.51,1.59-1.47,2.39-1.28.39.09.36.38.43.94.51,4.61-1,9.14-2.35,13.48-1.9,6.31-5.21,12.11-6.58,18.6a1.72,1.72,0,0,0,1.18,1.74c4.8,1.2,8.54-5.05,10.81-8.32,1.43-2.07,3.1-4.05,4.35-6.24a19.42,19.42,0,0,0,1.88-4.22c.39-1.36.7-3.07,2-3.89s-.38-3.28-1.64-2.47c-2.52,1.62-2.54,4.63-3.75,7.1a51.48,51.48,0,0,1-4.22,6.52,60.25,60.25,0,0,1-4.4,5.9c-1,1.07-3,3.52-4.69,3.09l1.18,1.73c1.41-6.66,4.93-12.61,6.74-19.15.81-2.91,2-5.85,2.13-8.9.07-1.93.4-4.1-.2-6A3.7,3.7,0,0,0,91.46,15a7.8,7.8,0,0,0-4.65,5c-1.74,5.45,4.49,9.3,7.22,13.16,4.17,5.91,6.6,12.83,10.2,19.07.88,1.52,3.14.6,2.17-1.09Z"/><path class="cls-1" d="M141.47,25.44c-2.37.21-4.56-1.2-7-1.1a6.74,6.74,0,0,0-4.87,2.44,53.31,53.31,0,0,0-4,5.42,12.2,12.2,0,0,0-2.38,6.2c-.17,3.41-.23,8.93,4,10,3.62.91,6.06-3.39,7.59-6,3.19-5.43,5.57-11.28,8.43-16.88.69-1.35-1.76-3-2.51-1.56-2.2,4.29-4.1,8.72-6.31,13a52.61,52.61,0,0,1-2.9,5.12,12.48,12.48,0,0,1-2.86,3.4c-3,2.15-2.8-4.72-2.75-6,.15-3.87,3.05-7.05,5.32-10,1.13-1.45,2.38-2.56,4.31-2.55,2.4,0,4.51,1.31,7,1.09,1.75-.15.45-2.79-1-2.66Z"/><path class="cls-1" d="M140.64.86V52.77a1.78,1.78,0,0,0,1.18,1.73c.57.19,1.51,0,1.51-.79V1.8A1.77,1.77,0,0,0,142.15.07c-.57-.2-1.51,0-1.51.79Z"/><path class="cls-1" d="M152.22,38c2.61-2.57,5.54-4.8,8.08-7.46a14.65,14.65,0,0,0,3.27-4.36,2.74,2.74,0,0,0-2-3.9,12.86,12.86,0,0,0-3.56-.13,9.56,9.56,0,0,0-2.86.51c-2.42,1-4.11,4.06-4.92,6.38-1.06,3-.72,6.66-.44,9.8s2.41,5.52,4.9,7.18c4.94,3.27,12.64,1.3,15-4.21.6-1.38-1.86-3.08-2.52-1.56a8.35,8.35,0,0,1-10.44,4.13,7,7,0,0,1-4.17-4.53,25.13,25.13,0,0,1-.27-4.33,16.05,16.05,0,0,1,.26-4.38A10.71,10.71,0,0,1,156,25.56c1.12-.86,3.32-.88,4.91-.76a5.93,5.93,0,0,0,.59.07c.1,0,.16.07.15,0a5.33,5.33,0,0,0-.41-.43c-.07-.09,0-.2-.09-.29.06.1-.06.22,0,.1s0,.18-.08.29a5.56,5.56,0,0,1-.39.77A19.29,19.29,0,0,1,157.61,29c-2.4,2.44-5.12,4.52-7.54,6.92-1.12,1.1,1,3.19,2.15,2.08Z"/><path class="cls-1" d="M184.67,15.55c-2.61,2.59-5.55,4.81-8.18,7.39a26.79,26.79,0,0,0-3.55,4.18,9.17,9.17,0,0,0-1.7,3.56c-.72,4.85,6.22,4.8,9.29,4.72,2-.06,4.17-.43,6.13,0l-1.43-1.13c.14.28.13.23,0,.63a5.19,5.19,0,0,1-.77,1.38,18.63,18.63,0,0,1-3,3.11A26.66,26.66,0,0,1,178,41.87a7.36,7.36,0,0,1-2.62,1.2l1.77,2.11.73-2.36c.44-1.43-2-3.11-2.52-1.56l-.73,2.36a1.68,1.68,0,0,0,1.78,2.11,9.21,9.21,0,0,0,3.54-1.59,31,31,0,0,0,4.48-3.42,13.48,13.48,0,0,0,3.17-3.88c.63-1.31.75-3.45-.92-4.07a10,10,0,0,0-3.7-.17c-1.53.06-3.07.15-4.6.14a10.47,10.47,0,0,1-4.09-.53s-.44-.19-.25-.13c-.07,0-.1,0-.09-.12a1.77,1.77,0,0,1,0-.34,3.47,3.47,0,0,1,.37-1c2.65-5.43,8.35-8.82,12.52-13,1.11-1.1-1-3.19-2.16-2.09Z"/><path class="cls-1" d="M192.54,22.23c0,1.44-.19,2.87-.13,4.3a17.69,17.69,0,0,0,1,4,13.62,13.62,0,0,1,.28,4.13c0,1.5-.14,3-.15,4.5l2.7.94v-.69a1.77,1.77,0,0,0-1.18-1.73c-.57-.2-1.52,0-1.52.79v.69a1.78,1.78,0,0,0,1.18,1.73c.58.2,1.51,0,1.52-.79,0-2.9.52-5.95,0-8.82-.24-1.3-.9-2.49-1.07-3.8a31.76,31.76,0,0,1,.07-4.36,1.78,1.78,0,0,0-1.18-1.73c-.57-.2-1.51,0-1.52.79Z"/><path class="cls-1" d="M192.94,15.6l1-1a.73.73,0,0,0,.23-.41.91.91,0,0,0,0-.49,1.2,1.2,0,0,0-.18-.52,1.32,1.32,0,0,0-.34-.47l-.32-.25a1.67,1.67,0,0,0-.69-.24h-.33a1,1,0,0,0-.56.29l-1,1a.8.8,0,0,0-.23.42.9.9,0,0,0,0,.49,1.2,1.2,0,0,0,.18.51,1.32,1.32,0,0,0,.34.47l.32.25a1.67,1.67,0,0,0,.69.24h.33a1,1,0,0,0,.57-.29Z"/><path class="cls-1" d="M213.05,18.31c-3.1,0-7.27-1-8.4,2.82S201.05,28,200,31.73c-.7,2.52-1,8.14,2.46,9,2.45.58,4.28-2.6,5.27-4.34,2.36-4.22,3.1-9.25,4-13.93l-2.43.08c1.12,1.39.52,4,.51,5.62,0,2.26,0,4.53,0,6.8,0,4.45.39,8.92.24,13.37a19.63,19.63,0,0,1-3.71,11.52,15.61,15.61,0,0,1-4.84,4.2,8.17,8.17,0,0,1-3,1.19,1.9,1.9,0,0,1-.37,0c.2-.08.09.22.12.06,0,.13,0-.1,0-.25a8.24,8.24,0,0,1,0-1.11c.17-1.48-2.49-2.69-2.69-.94a4.67,4.67,0,0,0,1,4,3.65,3.65,0,0,0,3.28.83,15.18,15.18,0,0,0,6.49-3.58,19.35,19.35,0,0,0,5.91-10.45c1.1-5.08.31-10.5.25-15.64q-.06-4.66,0-9.33c0-2.45.62-5.34-1-7.4-.62-.77-2.16-1.29-2.43.07-.85,4.33-1.53,8.92-3.61,12.87a11.64,11.64,0,0,1-2.27,3.2c-.2.18-.71.48-.77.53.36-.33.24.31.34.11a10.19,10.19,0,0,0-.33-1.1c-.87-4.5,2.25-8.24,4-12.09.48-1,.54-2.94,1.47-3.69,1.36-1.09,4-.33,5.54-.31,1.89,0,1.18-2.66-.36-2.68Z"/><path class="cls-1" d="M217,23.25c-.31,2.29.82,4.14,1.1,6.34a33.52,33.52,0,0,1-.14,6.25c-.12,1.78-.32,3.57-.35,5.36a10.12,10.12,0,0,0,.7,4.72c.39.74,2,1.87,2.52.56,1.41-3.66,1.86-7.56,3-11.29a51.09,51.09,0,0,1,5-10.22c.37-.64,1.34-2.85,2.3-2.5s1.7,2.71,2,3.67a42.61,42.61,0,0,1,1.2,10.07c.12,4.84-.05,9.68-.06,14.52a1.77,1.77,0,0,0,1.19,1.73c.57.2,1.51,0,1.51-.79,0-4.9.16-9.8.06-14.7a41.76,41.76,0,0,0-1.49-11.57c-.8-2.5-3.47-7.42-6.77-5.19-1.32.89-2.05,2.55-2.82,3.88C224.82,26,223.72,28,222.75,30c-2.29,4.74-2.6,10-4.47,14.91l2.52.57a8.84,8.84,0,0,1-.49-4.36c.08-1.64.27-3.27.35-4.91a53,53,0,0,0,.16-5.77c-.14-2.14-1.44-4.11-1.15-6.27.2-1.48-2.46-2.7-2.7-.94Z"/></g></g></svg>