<svg xmlns="http://www.w3.org/2000/svg" viewBox="0 0 115.92 114.68"><defs><style>.cls-1{fill:#231f20;}</style></defs><g id="Layer_2" data-name="Layer 2"><g id="Layer_1-2" data-name="Layer 1"><path class="cls-1" d="M16.08,21.8a18.14,18.14,0,0,0-2.47-5.65,11,11,0,0,0-4.67-4.5C3.33,9.3.9,18.37.44,22.2.1,25,.28,27.88.1,30.72,0,32.87-.26,35.49,1.38,37.16a3.77,3.77,0,0,0,5.68-.38c1.41-1.64,2.1-3.76,3.22-5.58,1.61-2.62,3.28-5.19,4.63-8s2.48-5.75,2.21-8.84c-.11-1.24-2.64-2.26-2.69-.6-.12,3.59,0,7.18,0,10.77,0,3.06-.35,6.27.71,9.2.8,2.21,2.68,5.42,5.42,5.27,2.32-.13,3.95-2.62,5.44-4.12,1.11-1.1-1-3.19-2.16-2.08-.74.74-1.44,1.54-2.18,2.27-.43.43-1.14,1.23-1.81,1.24s-1.39-1.29-1.69-1.84a8.89,8.89,0,0,1-1-3.18,76.11,76.11,0,0,1-.09-7.85c0-2.91-.08-5.83,0-8.74l-2.69-.61A13.11,13.11,0,0,1,13,20.29a50.24,50.24,0,0,1-3.39,6.3c-1,1.59-2,3.13-2.86,4.81C6.16,32.68,5.38,35,3.92,35.52s-1.23-1.92-1.2-2.77c.1-2.09.11-4.17.18-6.26A24.55,24.55,0,0,1,4.17,18.6c.54-1.41,1.72-4.47,3.56-4.63,1.46-.12,2.75,1.81,3.44,2.83a14.68,14.68,0,0,1,2.22,4.74A1.8,1.8,0,0,0,14.91,23a1,1,0,0,0,1.17-1.21Z"/><path class="cls-1" d="M29.67,15.09c0,3.18-.41,6.39-.07,9.56a38.42,38.42,0,0,0,1.08,4,20.51,20.51,0,0,1,0,4.5l2.69.94c0-4.07-.12-8.64,1.75-12.37,1.42-2.83,4.23-4.4,6.89-5.89,1.44-.82-.33-3.21-1.65-2.47-3,1.69-6,3.47-7.65,6.6-2.1,3.95-2,8.84-2,13.19a1.76,1.76,0,0,0,1.18,1.73c.57.2,1.51,0,1.51-.79a38.52,38.52,0,0,0,.09-4.56c-.15-1.37-.82-2.59-1.09-3.93-.61-3.08,0-6.4,0-9.52a1.78,1.78,0,0,0-1.18-1.73c-.57-.2-1.51,0-1.51.79Z"/><path class="cls-1" d="M53.08,3.9c0,4.47,0,9,0,13.43q0,3.36,0,6.72a39.54,39.54,0,0,0,.19,5.86,22,22,0,0,0,1.27,4.71c.58,1.55,1.23,3.46,2.87,4.18,2.68,1.18,4.68-2.3,6.24-3.88,1.1-1.11-1.06-3.2-2.16-2.08-.84.85-1.56,1.81-2.41,2.65a2.75,2.75,0,0,1-1.13.84c-.13,0,.06.08.11.11-.23-.12-.46-.87-.55-1.08a21.17,21.17,0,0,1-1.74-8.63c0-7.3,0-14.6,0-21.89A1.78,1.78,0,0,0,54.59,3.1c-.57-.19-1.51,0-1.51.8Z"/><path class="cls-1" d="M42.05,24a9,9,0,0,0,6.26-.48c1.94-.86,3.64-2.17,5.51-3.14a55.09,55.09,0,0,1,6.49-2.45,24,24,0,0,0,6.39-3.31c1.22-.93-.91-3-2.16-2.09-3.47,2.66-7.9,3.26-11.76,5.09-3.25,1.53-6.51,4.94-10.4,3.85-1.88-.52-1.91,2.09-.33,2.53Z"/><path class="cls-1" d="M106.4,36.39c-2.85-4.92-5-10.21-7.75-15.16a37.3,37.3,0,0,0-4.4-6.38c-1.53-1.72-3.38-3.28-4.53-5.29S89.56,5.44,91,4c.5-.51,1.59-1.47,2.39-1.28.39.09.36.38.43.94.51,4.61-1,9.14-2.35,13.48-1.9,6.31-5.21,12.11-6.58,18.61a1.71,1.71,0,0,0,1.18,1.73c4.8,1.2,8.54-5,10.81-8.32,1.43-2.07,3.1-4.05,4.35-6.24a19.21,19.21,0,0,0,1.88-4.22c.39-1.36.7-3.07,2-3.89s-.38-3.28-1.64-2.46c-2.52,1.61-2.54,4.62-3.75,7.09a51.48,51.48,0,0,1-4.22,6.52,60.25,60.25,0,0,1-4.4,5.9c-1,1.08-3,3.52-4.69,3.09l1.18,1.73C89,30,92.53,24,94.34,17.49c.81-2.92,2-5.86,2.13-8.91.07-1.92.4-4.09-.2-5.95A3.7,3.7,0,0,0,91.46.2a7.8,7.8,0,0,0-4.65,5.05C85.07,10.7,91.3,14.55,94,18.41c4.17,5.91,6.6,12.83,10.2,19.07.88,1.52,3.14.6,2.17-1.09Z"/><path class="cls-1" d="M20.32,72.25c-2.37.21-4.56-1.21-7-1.1a6.68,6.68,0,0,0-4.87,2.44,52,52,0,0,0-4,5.41,12.12,12.12,0,0,0-2.38,6.2c-.18,3.41-.23,8.93,4,10,3.62.91,6.05-3.38,7.58-6,3.2-5.43,5.57-11.29,8.44-16.89.68-1.34-1.76-3-2.52-1.56-2.19,4.29-4.1,8.72-6.31,13a53.57,53.57,0,0,1-2.89,5.11,12.7,12.7,0,0,1-2.87,3.4c-3,2.16-2.8-4.72-2.75-6,.15-3.86,3.06-7,5.33-10,1.13-1.45,2.37-2.55,4.3-2.55,2.4,0,4.51,1.31,7,1.1,1.75-.16.45-2.79-1-2.66Z"/><path class="cls-1" d="M19.49,47.66V99.57a1.78,1.78,0,0,0,1.18,1.73c.57.2,1.51,0,1.51-.79V48.6A1.77,1.77,0,0,0,21,46.87c-.57-.19-1.51,0-1.51.79Z"/><path class="cls-1" d="M31.08,84.8c2.61-2.58,5.53-4.8,8.07-7.46A14.89,14.89,0,0,0,42.43,73a2.74,2.74,0,0,0-2-3.89A12.43,12.43,0,0,0,36.86,69a9.31,9.31,0,0,0-2.87.5c-2.41,1-4.11,4.07-4.92,6.38-1.06,3-.71,6.67-.43,9.8s2.4,5.53,4.9,7.18c4.93,3.28,12.64,1.3,15-4.21.6-1.38-1.86-3.07-2.52-1.55A8.36,8.36,0,0,1,35.6,91.18a7,7,0,0,1-4.17-4.54,26,26,0,0,1-.27-4.33,15.69,15.69,0,0,1,.27-4.38,10.71,10.71,0,0,1,3.42-5.57c1.11-.86,3.31-.88,4.9-.76a4,4,0,0,0,.59.07c.1,0,.16.08.15,0s-.36-.37-.41-.43,0-.2-.09-.28c.06.09-.06.21,0,.09s0,.18-.08.29a5.62,5.62,0,0,1-.38.78,20,20,0,0,1-3.09,3.66c-2.4,2.43-5.11,4.52-7.54,6.91-1.11,1.1,1,3.19,2.16,2.09Z"/><path class="cls-1" d="M63.52,62.36C60.91,65,58,67.17,55.34,69.74a27.25,27.25,0,0,0-3.55,4.18,9,9,0,0,0-1.69,3.56c-.72,4.86,6.22,4.8,9.28,4.72,2-.06,4.18-.43,6.14,0L64.08,81c.14.28.13.24,0,.64a5.57,5.57,0,0,1-.76,1.37,18.64,18.64,0,0,1-3,3.11,28.11,28.11,0,0,1-3.45,2.51,7.43,7.43,0,0,1-2.63,1.21L56,92l.72-2.36c.44-1.43-2-3.11-2.52-1.55l-.72,2.36a1.67,1.67,0,0,0,1.77,2.1A9.09,9.09,0,0,0,58.78,91a32.25,32.25,0,0,0,4.47-3.42,13.52,13.52,0,0,0,3.17-3.89c.63-1.31.75-3.44-.92-4.07a10.2,10.2,0,0,0-3.7-.16c-1.53,0-3.06.15-4.6.13A10.49,10.49,0,0,1,53.11,79s-.44-.19-.25-.12c-.07,0-.1,0-.09-.12a1.87,1.87,0,0,1,0-.35,3.47,3.47,0,0,1,.37-1c2.65-5.43,8.35-8.82,12.52-13,1.11-1.1-1-3.19-2.16-2.08Z"/><path class="cls-1" d="M71.4,69c0,1.43-.2,2.86-.13,4.3a16.75,16.75,0,0,0,1,4,14,14,0,0,1,.28,4.14c0,1.5-.15,3-.15,4.49l2.69.94v-.69a1.78,1.78,0,0,0-1.18-1.73c-.57-.2-1.51,0-1.51.79V86a1.78,1.78,0,0,0,1.18,1.74c.57.19,1.51,0,1.51-.8,0-2.89.52-5.94,0-8.81-.24-1.3-.89-2.5-1.07-3.8A31.88,31.88,0,0,1,74.09,70a1.79,1.79,0,0,0-1.18-1.73c-.57-.19-1.51,0-1.51.8Z"/><path class="cls-1" d="M71.79,62.4l1-1A.78.78,0,0,0,73,61a.91.91,0,0,0,0-.49A1.23,1.23,0,0,0,72.9,60a1.48,1.48,0,0,0-.35-.48l-.32-.24a1.43,1.43,0,0,0-.68-.24h-.34a1,1,0,0,0-.56.28l-1,1a.72.72,0,0,0-.22.42.91.91,0,0,0,0,.49,1.36,1.36,0,0,0,.18.51,1.48,1.48,0,0,0,.35.48l.31.24a1.67,1.67,0,0,0,.69.24h.34a1,1,0,0,0,.56-.29Z"/><path class="cls-1" d="M91.9,65.11c-3.09,0-7.27-1-8.4,2.83s-3.6,6.84-4.65,10.6c-.71,2.51-1,8.14,2.45,8.95,2.45.57,4.29-2.6,5.27-4.35,2.37-4.21,3.1-9.25,4-13.92l-2.43.07c1.12,1.39.52,3.95.51,5.62,0,2.27,0,4.53,0,6.8,0,4.46.38,8.93.23,13.38a19.47,19.47,0,0,1-3.71,11.51,15.58,15.58,0,0,1-4.83,4.2,8.37,8.37,0,0,1-3,1.2,2.92,2.92,0,0,1-.38,0c.2-.08.09.23.13.07,0,.13,0-.11,0-.25a5.89,5.89,0,0,1,0-1.11c.17-1.48-2.5-2.7-2.7-.94a4.62,4.62,0,0,0,1,4,3.63,3.63,0,0,0,3.27.83A15.27,15.27,0,0,0,85.24,111a19.3,19.3,0,0,0,5.91-10.45c1.1-5.09.31-10.5.25-15.65,0-3.11,0-6.22,0-9.33,0-2.45.62-5.33-1-7.4-.62-.77-2.15-1.29-2.42.08-.86,4.32-1.53,8.92-3.62,12.86A11.46,11.46,0,0,1,82,84.34c-.21.18-.72.48-.78.53.36-.32.24.31.34.12a8,8,0,0,0-.33-1.11c-.87-4.5,2.25-8.24,4-12.08.47-1,.53-3,1.46-3.7,1.36-1.09,4-.32,5.54-.31,1.89,0,1.18-2.66-.36-2.68Z"/><path class="cls-1" d="M95.83,70.05c-.31,2.3.81,4.14,1.09,6.34a33.5,33.5,0,0,1-.13,6.25c-.12,1.79-.33,3.57-.35,5.36a10,10,0,0,0,.7,4.72c.38.74,2,1.87,2.51.57,1.41-3.66,1.86-7.56,3-11.29a51.71,51.71,0,0,1,5-10.23c.38-.64,1.34-2.84,2.3-2.49s1.7,2.7,2,3.66A42.1,42.1,0,0,1,113.18,83c.12,4.84-.05,9.68-.05,14.52a1.79,1.79,0,0,0,1.18,1.74c.57.19,1.51,0,1.51-.8,0-4.9.17-9.8.06-14.7a41.39,41.39,0,0,0-1.49-11.57c-.79-2.49-3.47-7.41-6.77-5.18-1.31.88-2.05,2.54-2.82,3.87-1.13,1.94-2.22,3.91-3.2,5.93-2.29,4.75-2.59,10-4.47,14.91l2.52.57a8.84,8.84,0,0,1-.49-4.36c.08-1.64.27-3.27.35-4.91a52.88,52.88,0,0,0,.16-5.77c-.14-2.14-1.44-4.11-1.15-6.27.2-1.48-2.46-2.69-2.69-.94Z"/></g></g></svg>