<svg id="Layer_1" data-name="Layer 1" xmlns="http://www.w3.org/2000/svg" viewBox="0 0 238.62 268"><defs><style>.cls-1{fill:#231f20;}</style></defs><g id="Layer_2" data-name="Layer 2"><g id="Layer_1-2" data-name="Layer 1-2"><path class="cls-1" d="M281.64,175.05c1.71,2.37,1.06,6.23.75,9-.39,3.49-.49,7-.65,10.48L280.52,221l-2.38,52.9c-.43,8.29-1.51,16.56-.58,24.83.47,4.18.08,8.29-.12,12.53a121.69,121.69,0,0,0-.22,12.23c.2,4.18.8,8.3.9,12.52.11,4.42-.23,8.81-.22,13.21s.57,8.71.43,13.09c-.12,4.1.29,8.08.41,12.18.15,4.8-.48,9.56-.19,14.36a57.81,57.81,0,0,1,.3,7.21,30.19,30.19,0,0,0,.1,6.16,43.9,43.9,0,0,1,.47,7.07c-.08,2.28-.22,4.65-.36,7a46.41,46.41,0,0,0,0,6.24,73.53,73.53,0,0,1,.47,7.42c0,.42.66.76.67.27.09-4-.74-8-.52-12.06s.77-8.3.42-12.37c-.15-1.83-.53-3.64-.65-5.47-.13-2.2.25-4.37.21-6.55,0-2-.37-3.93-.45-5.9-.1-2.28,0-4.56.05-6.91.08-2,.25-4.07.2-6.11s-.27-4.26-.4-6.37,0-4.47,0-6.71-.08-4.26-.21-6.39c-.49-8.62.41-17.23-.38-25.84a99.37,99.37,0,0,1-.53-13.14c.16-4.25.55-8.5.62-12.75s-.79-8.08-.7-12.19.47-8.53.72-12.78c1-17.85,1.61-35.66,2.43-53.42l1.38-29.87c.18-4.08.39-8.11.79-12.15.28-2.72.64-6.2-1-8.49C281.91,174.36,281.33,174.62,281.64,175.05Z" transform="translate(-277.16 -170.96)"/><path class="cls-1" d="M511,176.66a121.82,121.82,0,0,1,1.24,12.67,109.34,109.34,0,0,0,.94,11.86,79.83,79.83,0,0,1,.41,12.75,33,33,0,0,0,0,5.26c.23,2,1,3.79,1.18,5.7a39.45,39.45,0,0,1,.06,6.15c-.07,2.2,0,4.4,0,6.6V381.06c0,4.63-.09,9.27.05,13.89a115.78,115.78,0,0,1,.07,13.94c-.41,4.49-2,8.69-2.48,13.16a62.14,62.14,0,0,0-.11,7v7.1c0,.42.67.76.67.27,0-4.3-.23-8.74,0-13,.25-4,1.6-7.75,2.25-11.67a59.35,59.35,0,0,0,.44-11.39c-.15-4.22-.25-8.43-.25-12.67V256.43c0-8.69-.2-17.42.09-26.11a29,29,0,0,0-.25-6.32c-.43-2.28-1.13-4.32-1.09-6.66.07-4.41.49-8.77,0-13.17a141.16,141.16,0,0,1-1.25-14.1,117.73,117.73,0,0,0-1.3-13.41c-.05-.43-.73-.62-.67-.08Z" transform="translate(-277.16 -170.96)"/><path class="cls-1" d="M280.32,430.77c3.78,0,7.55-.18,11.33-.1a46.64,46.64,0,0,1,5.14.31c1.92.22,3.81.76,5.72.94,1.75.16,3.5,0,5.25,0a30.9,30.9,0,0,1,5.5.56c3.71.55,7.48.27,11.19.79a93.31,93.31,0,0,0,10.69,1c3.72.11,7.37,1.14,11.1,1.14,7.73.11,15.47,0,23.2,0,3.67,0,7.37-.1,11,.2,1.91.16,3.77.59,5.66.88a34.24,34.24,0,0,0,5.73.18,23.76,23.76,0,0,1,5.25.37c1.88.4,3.74.85,5.65,1.14a85.54,85.54,0,0,0,11.42.73H425.3a87.57,87.57,0,0,0,11.22-.24c1.66-.21,3.3-.52,5-.71a52,52,0,0,1,6.37-.18h11.8c17.58-.06,35.16,0,52.74,0,.47,0,.29-.76-.09-.76H453.55c-3.78,0-7.62-.27-11.38.08s-7.23,1.07-10.93,1H419.39c-3.67,0-7.34,0-11-.17A75,75,0,0,1,397,436.29c-3.63-.76-7.33,0-11-.55-1.89-.28-3.75-.71-5.66-.87s-3.76-.2-5.64-.21H351.56a74.86,74.86,0,0,1-11.2-.57c-3.65-.52-7.29-.43-11-.84-2-.23-4-.6-6-.84s-4-.26-6.06-.33a62,62,0,0,1-6.5-.78,36.69,36.69,0,0,0-5.93,0,31.65,31.65,0,0,1-5.9-.67,45,45,0,0,0-6-.6c-4.25-.17-8.49,0-12.74,0-.47,0-.29.76.09.76Z" transform="translate(-277.16 -170.96)"/><path class="cls-1" d="M512.23,176.44c-3.86.09-7.72.34-11.58.33-1.76,0-3.51-.08-5.27-.25s-3.71-.68-5.58-.79c-1.7-.11-3.4.08-5.1.14a36.31,36.31,0,0,1-5.89-.51c-3.57-.4-7.17-.09-10.74-.52-1.84-.23-3.68-.49-5.54-.65s-3.76-.08-5.64-.14c-3.57-.1-7.08-.94-10.65-.92-7.73,0-15.47.32-23.2.45-3.83.07-7.68.28-11.5,0-1.76-.12-3.46-.48-5.21-.72a30.63,30.63,0,0,0-5.33-.08,25.19,25.19,0,0,1-6.13-.36,56.28,56.28,0,0,0-5.66-1,87.9,87.9,0,0,0-11-.44c-3.88,0-7.76.17-11.65.25a86.31,86.31,0,0,0-10.67.44c-1.8.28-3.59.65-5.39.88a57.15,57.15,0,0,1-6.16.25c-3.83,0-7.67.15-11.5.24-17.58.4-35.15.72-52.73,1.07-.47,0-.3.76.09.75,15.58-.31,31.16-.58,46.74-.93l12-.27c3.63-.08,7.31.08,10.92-.25,3.82-.36,7.5-1.31,11.35-1.31s7.58-.14,11.37-.23c7.52-.2,15-.27,22.38,1.29,3.81.8,7.65-.08,11.47.44,1.74.24,3.44.6,5.2.73s3.75.15,5.63.12c7.72-.09,15.44-.25,23.16-.42a80,80,0,0,1,11.48.35c3.58.46,7.14.32,10.72.63,2,.17,4,.48,6,.7,2.18.25,4.36.23,6.54.27a44.22,44.22,0,0,1,6.06.58,28.59,28.59,0,0,0,5.55,0c4.2-.23,8.31.87,12.51,1s8.68-.22,13-.31c.47,0,.29-.77-.1-.76Z" transform="translate(-277.16 -170.96)"/></g></g></svg>