<svg xmlns="http://www.w3.org/2000/svg" viewBox="0 0 240.58 237.34"><defs><style>.cls-1{fill:#231f20;}</style></defs><g id="Layer_2" data-name="Layer 2"><g id="Layer_1-2" data-name="Layer 1"><path class="cls-1" d="M4.7,4c1.51,1.84.82,5,.55,7.16-.39,3.06-.49,6.13-.65,9.2L3.38,43.59,1,90C.56,97.4-.52,104.76.42,112.11a58,58,0,0,1-.12,10.7,100.68,100.68,0,0,0-.22,11c.2,3.66.81,7.28.91,11,.1,3.88-.25,7.73-.23,11.61s.57,7.48.44,11.23.28,7.27.41,11c.14,4.21-.49,8.39-.2,12.61a41.28,41.28,0,0,1,.3,6.08,25,25,0,0,0,.1,5.67,31.16,31.16,0,0,1,.47,6c-.08,2-.22,4.09-.36,6.13a35.36,35.36,0,0,0,0,5.73A57.12,57.12,0,0,1,2.35,227a1.78,1.78,0,0,0,1.18,1.73c.59.2,1.49,0,1.51-.8.1-3.54-.74-7-.52-10.58s.78-7.46.42-11.11c-.15-1.62-.54-3.2-.64-4.82-.13-1.92.25-3.83.2-5.75,0-1.73-.37-3.45-.45-5.18-.09-1.94,0-3.88,0-5.82s.26-3.73.21-5.61-.28-3.73-.41-5.6,0-3.74,0-5.63-.09-3.92-.22-5.87c-.49-7.57.41-15.12-.38-22.69A76,76,0,0,1,2.78,128c.16-3.73.55-7.46.62-11.19s-.79-7.1-.7-10.7.47-7.49.72-11.24C4.48,79.25,5.08,63.62,5.89,48L7.27,21.79c.19-3.58.39-7.12.8-10.68.3-2.66.62-6-1.2-8.2C6.43,2.38,5.67,1.85,5,2.22A1.22,1.22,0,0,0,4.7,4Z"/><path class="cls-1" d="M233.82,7.87a90.68,90.68,0,0,1,1.24,11A87,87,0,0,0,236,29.45a58,58,0,0,1,.41,11,27.2,27.2,0,0,0,0,4.86c.23,1.72.94,3.33,1.17,5.05a28.57,28.57,0,0,1,.06,5.15c-.07,1.93,0,3.86,0,5.8,0,3.82,0,7.64,0,11.47q0,11.46,0,22.94,0,45.77,0,91.52c0,4.15-.09,8.31.05,12.46a85.54,85.54,0,0,1,.07,12c-.41,3.94-2,7.63-2.47,11.56a49.81,49.81,0,0,0-.12,6.11c0,2.08,0,4.16,0,6.24a1.79,1.79,0,0,0,1.18,1.73c.57.19,1.51,0,1.51-.79,0-3.79-.23-7.68.05-11.45.26-3.51,1.6-6.81,2.25-10.25a46.7,46.7,0,0,0,.44-10.3c-.14-3.63-.25-7.25-.25-10.88V147.36q0-22.89,0-45.77,0-11.59,0-23.19c0-7.63-.2-15.29.1-22.92a24,24,0,0,0-.26-5.8c-.4-1.89-1.13-3.64-1.09-5.61.07-3.94.5-7.86,0-11.8a112.2,112.2,0,0,1-1.25-12.14,93,93,0,0,0-1.25-12c-.2-1.51-2.94-2.13-2.69-.27Z"/><path class="cls-1" d="M4.33,230.16c3.77,0,7.55-.16,11.32-.09,1.72,0,3.44.11,5.15.28,1.92.19,3.81.66,5.72.82a50.87,50.87,0,0,0,5.24,0,37.61,37.61,0,0,1,5.51.49c3.71.5,7.47.25,11.19.71a106.61,106.61,0,0,0,10.71.87c3.72.1,7.37,1,11.1,1,7.73.1,15.47,0,23.2,0,3.67,0,7.36-.09,11,.18,1.91.14,3.77.51,5.66.77a40.49,40.49,0,0,0,5.72.16,27.24,27.24,0,0,1,5.26.32c1.88.35,3.74.75,5.64,1a97,97,0,0,0,11.43.64c3.71,0,7.43,0,11.15,0a104.45,104.45,0,0,0,11.47-.21c1.65-.19,3.3-.46,4.95-.63a56.78,56.78,0,0,1,6.12-.15c3.91,0,7.83,0,11.74,0,17.58,0,35.17,0,52.75,0,1.88,0,1.18-2.68-.37-2.68-15.74,0-31.49,0-47.24,0l-11.5,0c-3.85,0-7.78-.23-11.63.07-3.58.29-7.06.93-10.67.92-3.95,0-7.9,0-11.85,0-3.67,0-7.35,0-11-.15A86.32,86.32,0,0,1,120.78,233c-3.63-.67-7.34,0-11-.48-1.9-.25-3.75-.63-5.66-.77s-3.76-.17-5.64-.18c-7.73,0-15.45,0-23.18,0a85.68,85.68,0,0,1-11.21-.5c-3.64-.46-7.29-.38-10.94-.74-2-.2-4-.53-6-.74s-4-.23-6-.29c-2.21-.07-4.32-.41-6.5-.68a41.92,41.92,0,0,0-5.93,0,35.55,35.55,0,0,1-5.91-.59,50.91,50.91,0,0,0-6.05-.53c-4.24-.15-8.49,0-12.73,0-1.89,0-1.18,2.68.36,2.68Z"/><path class="cls-1" d="M236,4.81c-3.86.08-7.72.3-11.58.29-1.76,0-3.52-.07-5.27-.22s-3.71-.6-5.58-.7-3.57.07-5.35.14a42.89,42.89,0,0,1-5.65-.46c-3.57-.35-7.16-.08-10.73-.46-1.85-.2-3.69-.43-5.54-.57s-3.76-.07-5.65-.12c-3.56-.09-7.08-.83-10.65-.81-7.73,0-15.47.28-23.19.4-3.83.06-7.68.24-11.51,0-1.75-.11-3.46-.43-5.2-.64a38.48,38.48,0,0,0-5.58-.07,26.9,26.9,0,0,1-5.88-.31C116.73.91,114.85.6,113,.4A100.19,100.19,0,0,0,102,0c-3.88,0-7.77.15-11.65.22a100.38,100.38,0,0,0-11,.4c-1.8.24-3.58.57-5.38.77-2,.22-3.94.18-5.92.21-3.83,0-7.66.13-11.49.21-17.58.35-35.16.63-52.74.94-1.88,0-1.18,2.7.36,2.67,15.58-.27,31.16-.51,46.74-.82l12-.23c3.71-.07,7.47.07,11.17-.23S81.45,3.05,85.22,3s7.58-.12,11.37-.21c7.52-.16,15-.22,22.38,1.15,3.81.7,7.64-.07,11.46.38,1.74.2,3.45.53,5.21.64s3.75.14,5.63.11C149,5,156.71,4.85,164.43,4.7A89.58,89.58,0,0,1,175.9,5c3.59.4,7.15.28,10.73.55,2,.15,4,.42,6,.62,2.18.22,4.36.2,6.54.23a51.23,51.23,0,0,1,6.06.51,33,33,0,0,0,5.8,0c4.11-.2,8.14.78,12.26.87,4.34.1,8.68-.19,13-.27,1.88,0,1.18-2.71-.36-2.68Z"/></g></g></svg>