<svg xmlns="http://www.w3.org/2000/svg" viewBox="0 0 143.85 146.78"><defs><style>.cls-1{opacity:0.9;}.cls-2{fill:#a09546;}.cls-3{fill:#819741;}.cls-4{fill:#6c5c8b;}.cls-5{opacity:0.8;}.cls-6{fill:#5b5f7b;}.cls-7{fill:#7b3665;}.cls-8{fill:#ca8029;}.cls-9{fill:#010101;}</style></defs><g id="Layer_2" data-name="Layer 2"><g id="Layer_1-2" data-name="Layer 1"><g class="cls-1"><path class="cls-2" d="M79.79,101.36a10.69,10.69,0,0,0-2-1.45c-.93-.51-2.18-1-3.07-.11a2.32,2.32,0,0,0-.17,2.74,5.82,5.82,0,0,0,1.94,2.29,3,3,0,0,0,3.24,0,3.35,3.35,0,0,0,1.46-3c-.08-1.21-1-2.06-1.57-3a3,3,0,0,0-3.09-1.48,2.75,2.75,0,0,0-2.32,2.56c0,.33,0,.66,0,1l0,.31c0,.27,0-.06,0-.06s0,.14,0,.16a3.53,3.53,0,0,0,.29,1.93,2.84,2.84,0,0,0,3.87,1A2.32,2.32,0,0,0,80,102v-.55c0-.3,0,.13,0-.13s0-.64,0-1a2.89,2.89,0,0,0-.92-2,3.37,3.37,0,0,0-3.48-.78c-2.43.86-2.42,4.13-1.19,6a4,4,0,0,0,3.71,1.83,4.91,4.91,0,0,0,3-1.73,5.14,5.14,0,0,0,1.31-3.47,4,4,0,0,0-1.93-3.19c-3.35-2-7.2,1.56-7.7,4.85a4.08,4.08,0,0,0,2.75,4.42c2.29.87,4.65-.88,5.67-2.86a4.54,4.54,0,0,0-1.63-5.71,3.92,3.92,0,0,0-3.53-.45,4.34,4.34,0,0,0-2.32,2.12c-1.17,2.3.41,5.2,2.67,6.1a3.63,3.63,0,0,0,3.35-.36,5,5,0,0,0,2-3,4,4,0,0,0-1.11-3.78,3.65,3.65,0,0,0-3-1.38c-1.73.28-2.42,2.35-2.23,3.88a3.64,3.64,0,0,0,1.5,2.51,1.21,1.21,0,0,0,1.77-.32,1.63,1.63,0,0,0-.76-1.88c.42.31.23.18.14.09s.25.33.1.12.12.33,0,0a.84.84,0,0,0-.06-.14c-.07-.15.07.36,0,.12l-.06-.4c0-.24,0,.32,0,.07a1.09,1.09,0,0,1,0-.18c0-.12,0-.25,0-.37l0-.14c0-.24-.11.28,0,0s.09-.25.15-.37l.1-.17c.07-.15,0,.12-.08.11a3,3,0,0,0,.22-.25,1,1,0,0,0,.11-.1c-.14.22-.23.13-.07.07l.1-.05c.16-.11-.33.08,0,0s-.31,0,0,0-.35-.08-.1,0l.13,0c-.11,0-.34-.19-.06,0l.09.06c.14.1.12.09,0,0,0,0,.15.14.17.16a1.29,1.29,0,0,1,.17.16c.11.13.1.12,0,0,0,0,.11.17.13.19.22.27-.07-.25,0,.07,0,0,.12.34.06.13s0,.13,0,.14c0-.28,0,0,0,.08s0,.14,0,.21,0,.2-.07.3c.06-.27,0,.09-.05.15a4.34,4.34,0,0,1-.25.54l-.11.18c-.17.29.16-.16-.07.09s-.22.27-.35.4l-.24.21c-.2.18.15-.07-.07,0a3.29,3.29,0,0,1-.57.27s.21,0,0,0l-.29,0c.37,0-.19,0-.24,0l.16,0-.18-.06-.08,0c-.15-.06-.12,0,.08.05l-.25-.15c-.22-.12.08,0,.09.08s-.18-.16-.22-.19l-.06-.07c-.12-.12-.09-.1.06.08,0-.06-.3-.31-.28-.41,0,.11.13.26,0,0s-.08-.22-.12-.33c-.12-.31,0,.28,0,0,0-.07,0-.13,0-.2v-.1c0-.15,0-.14,0,0a.6.6,0,0,1,0-.23c0-.08,0-.16,0-.23,0-.29-.11.21,0-.06s.16-.35.26-.52-.11.12,0,0,.1-.13.16-.19a3,3,0,0,1,.35-.36s.31-.21.06,0l.21-.13.21-.11c.07,0,.46-.15.15-.08a3.85,3.85,0,0,1,.47-.08c-.28,0-.1,0,0,0s.2,0,.24,0l-.16,0,.19,0,.17.07c.3.1-.27-.18,0,0,0,0,.34.25.13.07s0,0,0,0a1,1,0,0,0,.17.18c-.24-.18-.17-.23-.1-.11l.14.21c.17.25-.13-.32,0,0l.06.16a1.69,1.69,0,0,0,.08.24c0-.21-.06-.25,0-.1l0,.08,0,.25c0,.3,0,0,0,0a1.57,1.57,0,0,1,0,.42l0,.17c0,.29.1-.24,0,0s-.13.32-.21.48-.29.44-.12.21c-.12.17-.25.33-.38.49a6.09,6.09,0,0,1-.87.81c.22-.17-.07,0-.1.05l-.18.11-.28.14s-.32.12-.13.06-.13,0-.14,0l-.29,0c.23,0,.13,0,0,0l-.19,0c.18,0,.2,0,0,0a2.78,2.78,0,0,0-.4-.16c.31.07.21.11.06,0l-.13-.08c-.16-.1-.12-.19.09.08l-.13-.11a.68.68,0,0,0-.12-.12c.19.22.23.27.14.15a.61.61,0,0,1-.07-.1c-.2-.27.11.32,0,0l-.06-.15c-.07-.19.09,0,0,.14a1.25,1.25,0,0,0,0-.32c0-.26.07,0,0,.08a.85.85,0,0,0,0-.23,2.38,2.38,0,0,1,.06-.37s0-.09,0-.13,0-.26,0,0a2.29,2.29,0,0,1,.29-.75c.13-.25.27-.5.42-.73s0,.06-.05.07.11-.16.14-.19.19-.25.29-.37a6.67,6.67,0,0,1,.59-.6l.28-.25.15-.11-.11.08.12-.08a4.71,4.71,0,0,1,.62-.35l.15-.07c.22-.09,0,.06-.06,0,.07,0,.38-.1.47-.11l.19,0c-.31,0,0,0,.05,0a.88.88,0,0,1,.29,0s-.34-.11-.08,0l.26.1c-.07.06-.29-.18,0,0a1,1,0,0,0,.18.13c-.19-.16-.23-.18-.1-.07l.12.13s-.2-.3-.08-.08l0,.08c.08.13.06.11,0-.08,0,0,.08.2.09.23s0-.31,0,0c0,.11,0,.21,0,.32,0-.26,0-.08,0,0s0,.21,0,.32,0,.14,0,.22c0-.12,0-.13,0,0a5.72,5.72,0,0,1-.24.57,1.28,1.28,0,0,1-.11.2s-.21.34-.06.12a4.62,4.62,0,0,1-.78.87l-.11.08-.24.16a5.77,5.77,0,0,1-.55.29c-.21.09-.06,0,0,0l-.31.07c-.06,0-.39,0-.08,0l-.31,0c.35,0,0,0-.07,0,.06.09.19.11,0,0l-.1-.06c-.14-.1-.14-.09,0,0,0,0-.2-.22-.21-.21s.22.32.07.07c0-.06-.16-.18-.16-.26l.08.16-.06-.15a1.09,1.09,0,0,1-.13-.34c0,.28,0,.1,0,0a2,2,0,0,1,0-.26s0-.39,0-.08a1.27,1.27,0,0,1,0-.2,2.91,2.91,0,0,1,0-.31c0-.06.1-.36,0-.08a2.88,2.88,0,0,1,.24-.5c-.16.27.08-.07.16-.14l.06-.06,0,0a.85.85,0,0,1,.15-.09l.23-.11c.23-.11-.16,0,0,0l.2,0c.14,0,.11,0-.08,0h.16a1.28,1.28,0,0,0,.17,0l-.18,0,.16.06c-.15,0-.27-.17-.07,0s-.28-.29-.06-.06-.18-.28,0,0c0,0-.14-.33-.13-.32s0,.24,0,.28c0-.31,0,0,0,.07,0,.29,0,.59,0,.88a1.34,1.34,0,0,0,0,.2c0,.14-.08.28,0,0a2,2,0,0,0,0,.35c0,.23.11-.29,0-.08s0-.1,0,0-.14.14-.15.15c-.16.19.17-.09,0,0s-.3.17-.46.24l-.17.07c-.29.12.23,0-.08,0l-.31,0c.27,0,0,.06,0,0l.17,0a1.17,1.17,0,0,1,.55.46c.17.28.1.21.06.11.12.33.05.08,0,0,0,.29,0,.1,0,0a8.31,8.31,0,0,0,0-1.32c0-.18,0-.36,0-.54,0,.31,0,0,0-.08,0-.2,0,0,0,0a1.3,1.3,0,0,1,.14-.26c-.15.23,0,0,.08-.06l.15-.14c-.21.18.12,0,.18-.08s0,0,0,0l.29,0c-.28,0,0,0,.06,0s.24.08-.12,0c.27.09-.3-.2-.09,0-.37-.25-.24-.2-.14-.1s-.25-.36-.11-.12a2.46,2.46,0,0,1,.17.27,6,6,0,0,0,.57.85l.33.44.06.09c.08.14.07.13,0,0a1.19,1.19,0,0,1,.08.2l0-.16a.9.9,0,0,1,0,.28v-.15c0,.06,0,.12,0,.18l0,.18c0-.29,0,0,0,0s-.28.47-.09.22a4.72,4.72,0,0,1-.37.41c-.2.2.22-.11,0,0l-.2.11,0,0c-.12.05-.11.05.06,0-.06,0-.19,0-.26.06-.26,0,.09,0,.07,0h-.08c-.15,0-.12,0,.07,0l-.09,0c-.16-.07-.12,0,.13.07a.47.47,0,0,0-.12-.07c-.2-.14.32.29.14.1l-.1-.08c-.1-.09-.18-.19-.28-.29s.26.34.09.1l-.15-.19c-.09-.13-.16-.28-.26-.4.21.25.11.23.05.09l-.07-.18c-.1-.29,0,0,0,.07s0-.12,0-.13c0-.25,0,.32,0,.08s-.13.28,0,.07.11-.14-.08.11a.76.76,0,0,1,.09-.09c-.17.11-.2.14-.11.08s-.15.05-.15.05c.22-.05-.34,0-.1,0s-.29-.11,0,0l.22.09c-.26-.06-.25-.13-.12-.06l.48.28c.13.09.26.17.38.27s.49.39.07,0c.17.14.34.27.5.42.48.42,1.4.78,1.91.19a1.4,1.4,0,0,0-.26-1.89Z"/></g><g class="cls-1"><path class="cls-3" d="M34.09,83.49a1.74,1.74,0,0,0-1.07.59,1.84,1.84,0,0,0-.37,1.39,3,3,0,0,0,1.85,2.31,2.37,2.37,0,0,0,1.34.13,3.63,3.63,0,0,0,1.41-.75,3.78,3.78,0,0,0,1.25-1.93,3.45,3.45,0,0,0,.19-1.49A2.53,2.53,0,0,0,37.53,82a2.87,2.87,0,0,0-1.81-.4,2.7,2.7,0,0,0-1.34.61,3,3,0,0,0-1.13,2.13,3.29,3.29,0,0,0,1.53,2.84,3.85,3.85,0,0,0,4.64-.46,2.29,2.29,0,0,0,.74-1.43,2.84,2.84,0,0,0-.57-1.91,3.43,3.43,0,0,0-1.7-1.25,2.84,2.84,0,0,0-1.8,0,2.41,2.41,0,0,0-1.44,1.53A3.34,3.34,0,0,0,35,86.39a3.06,3.06,0,0,0,2.37,1.55,2.2,2.2,0,0,0,2-1.17,2.81,2.81,0,0,0,.18-2.25,3.14,3.14,0,0,0-2.43-2,2.44,2.44,0,0,0-2.27.81,2.63,2.63,0,0,0-.46,2.61,3.51,3.51,0,0,0,1.22,1.5,1.2,1.2,0,0,0,1.77-.32,1.31,1.31,0,0,0,0-1,2.31,2.31,0,0,0-.75-.89l0,0,.32.24a1.45,1.45,0,0,1-.22-.21l.26.3a1.88,1.88,0,0,1-.16-.23l.18.33a1.86,1.86,0,0,1-.1-.25l.09.35a1.53,1.53,0,0,1,0-.3v.33a1.26,1.26,0,0,1,.06-.38l-.09.31a1.56,1.56,0,0,1,.21-.43l-.18.26a1.85,1.85,0,0,1,.36-.38l-.26.19a1.94,1.94,0,0,1,.43-.22l-.31.1a1.07,1.07,0,0,1,.35-.06h-.33a.87.87,0,0,1,.32,0l-.35-.08a1.31,1.31,0,0,1,.28.09L37.05,85a1.75,1.75,0,0,1,.27.16L37,85l.21.19-.26-.3a1.7,1.7,0,0,1,.15.22l-.18-.33A2.44,2.44,0,0,1,37,85l-.09-.34A1.5,1.5,0,0,1,37,85v-.34a1.68,1.68,0,0,1-.06.45L37,84.8a1.78,1.78,0,0,1-.24.5L37,85a1.93,1.93,0,0,1-.31.33l.25-.19a1.59,1.59,0,0,1-.29.15l.3-.1a1.09,1.09,0,0,1-.26,0H37a.69.69,0,0,1-.2,0l.34.08-.21-.07.34.16a1.32,1.32,0,0,1-.25-.16l.31.25a1.72,1.72,0,0,1-.27-.27l.26.31a1.38,1.38,0,0,1-.17-.25l.17.33a1.78,1.78,0,0,1-.14-.36l.09.34a1.91,1.91,0,0,1-.06-.48v.34a1.77,1.77,0,0,1,.08-.56l-.09.31a1.75,1.75,0,0,1,.23-.5l-.18.26a1.5,1.5,0,0,1,.35-.36l-.26.19a1.41,1.41,0,0,1,.42-.22l-.3.1a1.4,1.4,0,0,1,.41-.06h-.33l.28,0-.35-.07a1.35,1.35,0,0,1,.34.11l-.34-.16a2,2,0,0,1,.31.19l-.32-.25.22.21-.26-.3a1.87,1.87,0,0,1,.2.29l-.18-.33a1.36,1.36,0,0,1,.11.28l-.09-.35a1.55,1.55,0,0,1,0,.31v-.34a1.47,1.47,0,0,1,0,.29l.09-.31a1.77,1.77,0,0,1-.15.31l.18-.26a2.47,2.47,0,0,1-.51.51l.26-.19a2.88,2.88,0,0,1-.78.4l.31-.1A3,3,0,0,1,36,85h.34a2.73,2.73,0,0,1-.64-.06l.35.08a2.83,2.83,0,0,1-.41-.14l.34.16a1.81,1.81,0,0,1-.33-.2l.31.25-.21-.21.26.31a1.51,1.51,0,0,1-.18-.26l.18.34a1.7,1.7,0,0,1-.14-.35l.09.34a1.74,1.74,0,0,1,0-.39v.34A1.54,1.54,0,0,1,36,84.8l-.08.31a2.06,2.06,0,0,1,.28-.6l-.18.26a2.56,2.56,0,0,1,.51-.53l-.26.19a2.09,2.09,0,0,1,.49-.26l-.3.1a1.59,1.59,0,0,1,.38-.07h-.33a1.43,1.43,0,0,1,.29,0l-.35-.08a1.51,1.51,0,0,1,.3.1l-.34-.16a.62.62,0,0,1,.17.11L36.28,84l.09.1-.26-.31.07.11L36,83.53l.06.17L36,83.35a1.43,1.43,0,0,1,0,.29V83.3a2.94,2.94,0,0,1-.11.66l.09-.31a3.67,3.67,0,0,1-.47,1l.18-.26a3,3,0,0,1-.66.68l.26-.19a3.06,3.06,0,0,1-.71.39l.31-.1a1,1,0,0,1-.3,0h.34a.86.86,0,0,1-.28,0l.35.07a.86.86,0,0,1-.21-.07l.34.16a.76.76,0,0,1-.19-.12l.32.25a1.07,1.07,0,0,1-.19-.18l.26.31a1.53,1.53,0,0,1-.14-.21l.18.34a.93.93,0,0,1-.1-.26l.08.34,0-.23V86a.78.78,0,0,1,0-.22l-.09.31a1.22,1.22,0,0,1,.07-.17l-.18.27a.61.61,0,0,1,.16-.16l-.26.19a1,1,0,0,1,.23-.12l-.3.1.12,0a1.09,1.09,0,0,0,.74-1.54,1.75,1.75,0,0,0-1.77-1.12Z"/></g><g class="cls-1"><path class="cls-3" d="M1.71,83.19A1.9,1.9,0,0,0,.15,84.34,2.14,2.14,0,0,0,1,86.93a2.27,2.27,0,0,0,2.44-.05,5.19,5.19,0,0,0,1.6-1.42,5,5,0,0,0,.39-.62,3.8,3.8,0,0,0,.24-.72,2.79,2.79,0,0,0-.12-1.46,2.75,2.75,0,0,0-2.82-1.88,2.69,2.69,0,0,0-1.9,1.39A2.6,2.6,0,0,0,1,84.82,2.63,2.63,0,0,0,3.68,86a2.1,2.1,0,0,0,1.11-.63,2.31,2.31,0,0,0,.58-1.3,1.51,1.51,0,0,0-.26-1,1.88,1.88,0,0,0-.92-.72,1.31,1.31,0,0,0-1,0,1,1,0,0,0-.52.76,2.38,2.38,0,0,1-.05.26l.08-.31a1.23,1.23,0,0,1-.16.35l.18-.26a1.44,1.44,0,0,1-.27.28l.26-.19a1.26,1.26,0,0,1-.33.16l.31-.1a1,1,0,0,1-.3,0h.34a1,1,0,0,1-.24,0l.35.08a.9.9,0,0,1-.23-.08l.34.16a.83.83,0,0,1-.16-.09l.32.24A.86.86,0,0,1,3,83.54l.25.31a.82.82,0,0,1-.12-.2l.17.34a1.17,1.17,0,0,1-.09-.24l.09.34a1.55,1.55,0,0,1,0-.31v.34a1.86,1.86,0,0,1,0-.34l-.08.3a1.77,1.77,0,0,1,.23-.48l-.18.27a2,2,0,0,1,.42-.44l-.25.19a1.72,1.72,0,0,1,.42-.23l-.3.1a1.13,1.13,0,0,1,.32,0H3.53a.55.55,0,0,1,.22,0l-.35-.08a.64.64,0,0,1,.18.06l-.34-.16a.62.62,0,0,1,.17.11l-.32-.25a.8.8,0,0,1,.13.13L3,83a1.59,1.59,0,0,1,.18.27L3,82.91a.82.82,0,0,1,.1.26L3,82.83a1.33,1.33,0,0,1,0,.34v-.33a2,2,0,0,1-.07.42L3.05,83a2.22,2.22,0,0,1-.34.69l.18-.26a4.43,4.43,0,0,1-1,1l.26-.19a2.88,2.88,0,0,1-.82.46l.3-.1a1.36,1.36,0,0,1-.29.06h.17l.35.07-.12,0,.34.17-.06,0,.31.24-.06-.06.26.31a.35.35,0,0,1,0-.08l.17.34a.49.49,0,0,1,0-.11l.09.35a1,1,0,0,1,0-.16v.34a1,1,0,0,1,0-.24L2.64,86a1,1,0,0,1,.13-.28L2.59,86a.92.92,0,0,1,.22-.22l-.26.19a.85.85,0,0,1,.25-.13l-.3.1a1,1,0,0,1,.24-.05,1,1,0,0,0,.75-.55,1.31,1.31,0,0,0,0-1,1.81,1.81,0,0,0-.75-.89,1.79,1.79,0,0,0-1-.23Z"/></g><g class="cls-1"><path class="cls-3" d="M23.59,26.24a2.93,2.93,0,0,0-1.24.5,5,5,0,0,0-1,.89,2.6,2.6,0,0,0-.62,1.28,7.24,7.24,0,0,0,0,1.23v-.33c0,.35,0,.7,0,1.06a2.27,2.27,0,0,0,.44,1.28,2.49,2.49,0,0,0,1.78,1,2.67,2.67,0,0,0,1.3-.27,5.1,5.1,0,0,0,1.32-1,5,5,0,0,0,.91-1.23,2.55,2.55,0,0,0,.3-1.6,2.77,2.77,0,0,0-1.76-2,4.08,4.08,0,0,0-2.27-.21,2.37,2.37,0,0,0-1.86,1.32,5,5,0,0,0-.13,2,2.67,2.67,0,0,0,1.16,2.2,3.16,3.16,0,0,0,2.71.34,6.22,6.22,0,0,0,1.8-1,3.58,3.58,0,0,0,1.79-3.07,3.09,3.09,0,0,0-1.54-2.16,3.72,3.72,0,0,0-2.18-.52,2.5,2.5,0,0,0-1.65.78,2.69,2.69,0,0,0-.63,2.08,3.92,3.92,0,0,0,1,2.28,2.48,2.48,0,0,0,2.95.63A5.21,5.21,0,0,0,27,31a1.11,1.11,0,0,0,.26-.91,1.74,1.74,0,0,0-.52-1,1.41,1.41,0,0,0-1.9-.19l-.37.31.26-.19a1.89,1.89,0,0,1-.56.3l.31-.1a.93.93,0,0,1-.23,0h.22c-.2,0,.25.08.14,0s.29.18.17.08-.2-.14,0,0,0,0,0,0,.26.36.17.19.13.32,0,.07l-.09-.22a.66.66,0,0,0,0-.15s.08.34.05.16a2.48,2.48,0,0,1-.06-.54v.34a1.44,1.44,0,0,1,.05-.41l-.09.31a1.69,1.69,0,0,1,.2-.43L24.8,29a1.26,1.26,0,0,1,.34-.35l-.26.19a2.1,2.1,0,0,1,.42-.22l-.31.1a2,2,0,0,1,.48-.08h.06c.21,0-.36-.1-.15,0l.24.08c.13,0,.22.15-.16-.08l.12.06.1.07c.19.12-.3-.25-.17-.14l.1.09c.12.12.09.2-.11-.14a.76.76,0,0,0,.08.11c.09.13-.17-.37-.1-.18s-.06-.36,0-.16c0,0,0,.09,0,.14V28.1a1.26,1.26,0,0,1-.05.33l.09-.31a1.88,1.88,0,0,1-.27.55l.18-.26a5.39,5.39,0,0,1-1.23,1.2l.25-.19a4.91,4.91,0,0,1-1.37.78l.31-.09a2.54,2.54,0,0,1-.55.1h.34c-.12,0-.34,0-.44,0l.19,0-.12,0c-.21-.06.3.17.16.09s.27.24.16.13.16.2.16.19c-.12-.16.19.38.1.19s0-.24,0,.18c0-.42-.06-.84-.07-1.26V30a2.09,2.09,0,0,1,.06-.56l-.08.31a1.23,1.23,0,0,1,.12-.26l-.18.26a1.28,1.28,0,0,1,.26-.26l-.26.19a2.17,2.17,0,0,1,.46-.22l-.31.1a3.09,3.09,0,0,1,.74-.12h0c.06,0,.28,0,.32,0s-.36-.09-.13,0l.14.05c.06,0,.23.1,0,0l0,0,.08.05c-.43-.24-.29-.25-.19-.14s-.19-.25-.18-.22a.35.35,0,0,0,.05.08c.09.12-.19-.4-.12-.23s.06.2,0-.07,0,0,0,.05v-.34A1.27,1.27,0,0,1,24,29l.09-.31a2.88,2.88,0,0,1-.36.75l.18-.27a5,5,0,0,1-1.11,1.14l.25-.19a2.74,2.74,0,0,1-.75.41l.3-.1a1.28,1.28,0,0,1-.34.06h.22s.35.12.18,0c0,0,.33.2.18.09l.22.17c.18.24.24.31.17.2s.16.34.11.19,0,.31,0,.19a2.17,2.17,0,0,0,0-.26v.34c0-.48,0-.95,0-1.43v.33a2.35,2.35,0,0,1,.06-.65l-.09.31a1.56,1.56,0,0,1,.2-.41l-.18.27a3.56,3.56,0,0,1,.78-.77l-.26.19a3,3,0,0,1,.81-.44l-.31.1.26-.05a1.09,1.09,0,0,0,.74-1.54,1.76,1.76,0,0,0-1.78-1.12Z"/></g><g class="cls-1"><path class="cls-3" d="M30.82,60.7a4.73,4.73,0,0,0-1.21,2.24,3.23,3.23,0,0,0,.15,1.6,2.12,2.12,0,0,0,1.86,1.3,4.32,4.32,0,0,0,1.68-.08A4.5,4.5,0,0,0,35,64.94a2.34,2.34,0,0,0,.89-1.45,2.75,2.75,0,0,0-.64-2.11,4.18,4.18,0,0,0-2.13-1.52,3.73,3.73,0,0,0-2.29.06,3.32,3.32,0,0,0-2.15,2.9A2.78,2.78,0,0,0,29.47,65a2.42,2.42,0,0,0,2,.68,3.12,3.12,0,0,0,2.24-1.57,2.28,2.28,0,0,0,.27-1.47,3,3,0,0,0-1.36-2,3.45,3.45,0,0,0-2.37-.6,2.08,2.08,0,0,0-1.12.57,2.37,2.37,0,0,0-.6,1.19,3.19,3.19,0,0,0,1.2,3.64,2.27,2.27,0,0,0,1.53.27A1.09,1.09,0,0,0,32,64.23a1.74,1.74,0,0,0-1.77-1.12l-.18,0h.14l.35.07-.13,0,.34.16-.12-.06.32.24a.63.63,0,0,1-.12-.11l.26.3a.42.42,0,0,1-.09-.14l.17.34a1.06,1.06,0,0,1-.09-.25l.09.35a2.22,2.22,0,0,1-.07-.57v.34a3.49,3.49,0,0,1,.13-1l-.09.31a1.75,1.75,0,0,1,.2-.44l-.18.27a1.05,1.05,0,0,1,.23-.24l-.26.18a1.47,1.47,0,0,1,.28-.14l-.31.1a1.13,1.13,0,0,1,.36-.06h-.33a1.72,1.72,0,0,1,.39,0l-.35-.08a3.26,3.26,0,0,1,.44.15l-.34-.16a2.73,2.73,0,0,1,.43.26l-.32-.24a1,1,0,0,1,.21.2l-.26-.31.13.18-.18-.33a.85.85,0,0,1,.09.22l-.09-.35a1.66,1.66,0,0,1,0,.22v-.33a1.15,1.15,0,0,1,0,.31l.09-.31a1.57,1.57,0,0,1-.22.45l.18-.26a2.09,2.09,0,0,1-.53.54l.26-.19a2.06,2.06,0,0,1-.62.33l.31-.1a1.61,1.61,0,0,1-.37.07h.33l-.19,0,.34.08a.94.94,0,0,1-.15-.06l.34.17-.12-.08.32.25-.09-.08.26.31-.09-.13.18.34a2,2,0,0,1-.09-.22l.09.34a1.58,1.58,0,0,1,0-.38v.33a2.8,2.8,0,0,1,.09-.7l-.08.31a2.23,2.23,0,0,1,.32-.68l-.18.26a2.76,2.76,0,0,1,.53-.55l-.25.19a2.44,2.44,0,0,1,.68-.35l-.31.1a2.55,2.55,0,0,1,.67-.12h-.34a2.57,2.57,0,0,1,.55.06l-.35-.08a2.64,2.64,0,0,1,.45.15l-.34-.16a3.31,3.31,0,0,1,.47.29L33,62.39a4.68,4.68,0,0,1,.39.38l-.26-.3a2.71,2.71,0,0,1,.24.35l-.17-.33a2,2,0,0,1,.1.26l-.09-.34a1,1,0,0,1,0,.29v-.34a.86.86,0,0,1,0,.28l.09-.31a1.23,1.23,0,0,1-.16.35l.18-.27a2,2,0,0,1-.45.46l.25-.19a3.62,3.62,0,0,1-.88.44l.31-.1a4.3,4.3,0,0,1-1.06.19h.34a3.35,3.35,0,0,1-.71-.06l.35.07-.26-.07,1.09,1a.83.83,0,0,1-.06-.21l.09.35a1.89,1.89,0,0,1-.06-.47v.34a3,3,0,0,1,.07-.51l-.08.31a3.12,3.12,0,0,1,.42-.86l-.18.26c.15-.21.31-.42.48-.62a1.39,1.39,0,0,0-.25-1.89c-.47-.43-1.39-.78-1.91-.19Z"/></g><g class="cls-1"><path class="cls-2" d="M67.73,127.52a7.2,7.2,0,0,0,.31,2.25,3.87,3.87,0,0,0,.48,1,2.66,2.66,0,0,0,1.34,1.07,1.82,1.82,0,0,0,1.54-.17,3.37,3.37,0,0,0,1-1.15,2.28,2.28,0,0,0,.26-1.3,2.48,2.48,0,0,0-.72-1.46,2.3,2.3,0,0,0-1.07-.66,2.13,2.13,0,0,0-1.45.06,1.66,1.66,0,0,0-.49.34,1.84,1.84,0,0,0-.38.5,3,3,0,0,0-.22.64,2.14,2.14,0,0,0-.06.5,3.62,3.62,0,0,0,.16,1.5,2.08,2.08,0,0,0,2.2,1.34,3,3,0,0,0,1.48-.77,2.27,2.27,0,0,0,.65-1.33,5.77,5.77,0,0,0,0-.72,3.58,3.58,0,0,0,0-.65,2.63,2.63,0,0,0-1.23-1.88,2.67,2.67,0,0,0-1.16-.36,2.51,2.51,0,0,0-1.12.17,2.08,2.08,0,0,0-.7.46,2.18,2.18,0,0,0-.32.43,1.15,1.15,0,0,0-.12.25,2.21,2.21,0,0,0-.11,1.14,1.8,1.8,0,0,0,.52,1,1.76,1.76,0,0,0,1,.49A1,1,0,0,0,70.72,129a1.36,1.36,0,0,1,0-.2v.33a.78.78,0,0,1,0-.26l-.09.31a1.17,1.17,0,0,1,.14-.3l-.18.27a1.24,1.24,0,0,1,.25-.26l-.25.19a1,1,0,0,1,.33-.17l-.3.1A1.28,1.28,0,0,1,71,129h-.34a1.66,1.66,0,0,1,.32,0l-.34-.07a1.13,1.13,0,0,1,.24.08l-.34-.16.13.08-.32-.25.11.11-.26-.31.08.12-.18-.33a.64.64,0,0,1,.08.19l-.09-.34a2.73,2.73,0,0,1,.06.64v-.34a2.76,2.76,0,0,1-.07.76l.09-.31a1.19,1.19,0,0,1-.17.36l.18-.26a1.64,1.64,0,0,1-.29.3l.25-.19a2.43,2.43,0,0,1-.64.33l.3-.1-.24.05h.24l.35.08-.08,0,.34.16,0,0,.32.25,0,0,.25.3,0-.06.17.33a.5.5,0,0,1,0-.13l.09.35a2.09,2.09,0,0,1,0-.43v.33a3.29,3.29,0,0,1,.07-.83l-.08.3a1.24,1.24,0,0,1,.17-.37l-.18.26a1,1,0,0,1,.2-.22l-.26.19a1.08,1.08,0,0,1,.24-.12l-.31.1a.69.69,0,0,1,.2,0h-.33a.61.61,0,0,1,.19,0l-.35-.07.17,0-.34-.16.15.09-.31-.24.11.11-.25-.31.09.14L70,129a.64.64,0,0,1,.06.18l-.09-.34a.64.64,0,0,1,0,.2v-.33a1.54,1.54,0,0,1,0,.3l.08-.31a2,2,0,0,1-.22.46l.18-.26a2.52,2.52,0,0,1-.5.53l.26-.19a1.19,1.19,0,0,1-.25.13l.31-.1a.51.51,0,0,1-.17,0h.2l.35.08-.1,0,.34.16-.12-.07.32.25-.14-.13.26.3a2,2,0,0,1-.19-.28l.18.34a3.35,3.35,0,0,1-.25-.69l.09.35a5.46,5.46,0,0,1-.18-1.33v.25a1,1,0,0,0,0-.51,1.15,1.15,0,0,0-.22-.51,1.82,1.82,0,0,0-.91-.71,1.22,1.22,0,0,0-1,0,1,1,0,0,0-.52.76Z"/></g><g class="cls-1"><path class="cls-2" d="M103.19,131.71A2.45,2.45,0,0,0,103,134a2.81,2.81,0,0,0,2.24,1.63,3.73,3.73,0,0,0,3.67-1.67c.83-1.4,0-3.17-1.16-4.09a3.41,3.41,0,0,0-2.44-.91,1.8,1.8,0,0,0-1.61,1.6,3.1,3.1,0,0,0,.78,2.54,3.44,3.44,0,0,0,2.27,1.06,3.18,3.18,0,0,0,3.4-1.94,4,4,0,0,0-1.53-4.42,2.85,2.85,0,0,0-2.33-.48,2.82,2.82,0,0,0-1.66,1.33,6.58,6.58,0,0,0-.69,1.82,6.46,6.46,0,0,0-.24,1.86,3.33,3.33,0,0,0,.87,2.18,2.81,2.81,0,0,0,2.53.83,1.09,1.09,0,0,0,.74-1.54,1.76,1.76,0,0,0-1.77-1.12l-.15,0c-.2,0,.1,0,.12,0h-.15c-.16,0,.31.09.17,0s.32.2.09.05.3.28.19.15l-.09-.09c.26.22.24.31.15.16s-.1-.18,0,.05,0,0,0-.06.07.33,0,.18l0-.15a1.24,1.24,0,0,1,0-.27.49.49,0,0,1,0-.12c0-.16,0,.3,0,.15s0-.19,0-.29a4.54,4.54,0,0,1,.09-.51l.12-.51c0-.1.13-.36,0,0,0-.1.07-.22.1-.32a4.71,4.71,0,0,1,.21-.52,1.34,1.34,0,0,1,.12-.24l.06-.11c.08-.13.16-.13,0,0a3.89,3.89,0,0,0,.34-.36c-.14.18-.22.14-.12.08l.11-.06.13-.06c.12-.07-.29.06-.1,0l.13,0c.18,0-.1,0-.12,0h.14c.26,0-.27-.07-.1,0s.21.09,0,0-.06,0,0,0,.2.14,0,0,0,0,0,0l.1.1c-.28-.23-.19-.25-.1-.11s.21.36.08.11,0,.07.05.13a1.15,1.15,0,0,0,.06.17c0-.07-.07-.33,0-.1l0,.28c0,.28,0-.27,0,0a1.28,1.28,0,0,0-.06.32s.11-.28,0-.1a1.11,1.11,0,0,1-.07.16l-.06.12c-.06.14-.13.09,0-.06-.06.05-.11.15-.17.21s-.16.11-.2.18.26-.16.09-.07l-.18.1-.13,0c-.1.06-.12,0,.1,0a1.43,1.43,0,0,0-.28.07,1,1,0,0,0-.3,0c.14-.07.25,0,.1,0h-.21l-.15,0c-.11,0-.15-.08.13,0a2.29,2.29,0,0,0-.28-.09c-.22-.08.16.06.15.07s-.1-.07-.12-.08c.22.09.27.22.15.11s.21.3.07.07c.21.33.1.22.07.12s0,.19,0,.19a1.64,1.64,0,0,1,0-.25c0-.19,0,.11,0,.13a.49.49,0,0,0,0-.17.59.59,0,0,0,0-.14c0-.13-.11.27,0,.09s-.16.14,0,0-.22.16-.09.07.19-.08,0,0-.06,0,0,0-.3,0-.15,0h.13c.15,0-.33-.1-.13,0l.15.06c.17,0-.29-.17-.15-.08a1.2,1.2,0,0,0,.24.15c.15.1-.28-.24-.15-.11l.13.12c.06.05.31.34.11.1s0,0,.06.09l.08.14s-.16-.37-.09-.18a.42.42,0,0,0,0,.1c0,.1-.08.13,0-.16a.41.41,0,0,0,0,.16c0,.05,0,.29,0,.06s0,0,0,.06-.07.25,0,.05-.06.11-.09.17,0,.08-.07.12c.12-.17.14-.21.06-.1l0,0c-.06.07-.23.16-.26.24s.26-.17.08-.06l-.19.11a2.09,2.09,0,0,1-.3.14l-.14.06c-.14.06.27-.08,0,0l-.37.07-.15,0c-.25,0,.3,0,.06,0-.07,0-.29,0-.33,0s.36.12.17,0-.24-.11,0,0,.11,0,.05,0,.33.28.17.13.25.32.15.17.17.37.1.18c.14.39.06.29,0,.18s0,.32,0,.1a.27.27,0,0,0,0-.12c0,.08-.1.28,0,0s.13-.26.2-.39a1.26,1.26,0,0,0,0-1,1.91,1.91,0,0,0-.75-.89,1.21,1.21,0,0,0-1.76.33Z"/></g><g class="cls-1"><path class="cls-2" d="M120.15,87.68a1.89,1.89,0,0,0-1.83.7,2.89,2.89,0,0,0-.46,2.87,3,3,0,0,0,1.08,1.32,2.18,2.18,0,0,0,2.27.1,3.82,3.82,0,0,0,1.14-1,4.53,4.53,0,0,0,.82-1.66,2.18,2.18,0,0,0-.39-1.64,3.3,3.3,0,0,0-1.42-1.11,2.31,2.31,0,0,0-2.55.37,2.17,2.17,0,0,0-.48,1.64,2.65,2.65,0,0,0,.49,1.38,2.08,2.08,0,0,0,2,.91,3.33,3.33,0,0,0,1-.36,1,1,0,0,0,.53-.76,1.48,1.48,0,0,0-.27-1,1.59,1.59,0,0,0-1.9-.68,4.46,4.46,0,0,1-.5.22l.31-.1-.24,0h.23l.35.07-.08,0,.34.16,0,0,.31.24a.17.17,0,0,1-.06-.06l.26.31a.41.41,0,0,1-.07-.11l.17.34a1.06,1.06,0,0,1-.09-.25l.09.35a1.65,1.65,0,0,1-.06-.43v.33a1.17,1.17,0,0,1,0-.32l-.09.31a1.23,1.23,0,0,1,.12-.26l-.18.27a1.07,1.07,0,0,1,.18-.19l-.26.19a1.15,1.15,0,0,1,.25-.12l-.31.1a1.28,1.28,0,0,1,.27,0h-.33a1.72,1.72,0,0,1,.39,0l-.35-.07a1.35,1.35,0,0,1,.34.11l-.34-.16a1.09,1.09,0,0,1,.23.14l-.32-.25.16.16-.25-.3a.91.91,0,0,1,.11.16l-.17-.33a1,1,0,0,1,.06.16l-.09-.34a.78.78,0,0,1,0,.16v-.34a.91.91,0,0,1,0,.23l.08-.31a3.26,3.26,0,0,1-.48,1l.18-.26a3.3,3.3,0,0,1-.76.82l.25-.19a1.66,1.66,0,0,1-.45.25l.3-.1a1,1,0,0,1-.24,0h.17l.35.07a.34.34,0,0,1-.14,0l.34.17a.6.6,0,0,1-.13-.09l.31.25-.15-.14.26.3a1.1,1.1,0,0,1-.14-.21l.18.33a.49.49,0,0,1-.08-.21l.08.35a1.84,1.84,0,0,1,0-.33V91a1.81,1.81,0,0,1,.07-.52l-.09.31a2.34,2.34,0,0,1,.25-.56l-.18.27a1.83,1.83,0,0,1,.3-.32l-.25.19a.7.7,0,0,1,.24-.13l-.3.1a.57.57,0,0,1,.22,0h-.33a.5.5,0,0,1,.21,0,1.1,1.1,0,0,0,.9-.3,1.12,1.12,0,0,0,.27-.91,1.74,1.74,0,0,0-.52-1l-.32-.25a1.67,1.67,0,0,0-.69-.24Z"/></g><g class="cls-1"><path class="cls-4" d="M122.55,19a2.1,2.1,0,0,0-1.94.64,2.9,2.9,0,0,0-.53,2,4,4,0,0,0,2.29,3.55c1.52.59,2.84-.56,3.42-1.87a4.71,4.71,0,0,0-.13-4.41,3,3,0,0,0-3-1.38c-1.09.3-1.6,1.21-2.19,2.08l.18-.27a8.42,8.42,0,0,0-1.15,1.93,3.71,3.71,0,0,0,.13,3.11,2.54,2.54,0,0,0,2.63,1.21,3.57,3.57,0,0,0,2-1.23,7.81,7.81,0,0,0,1.18-2,4.88,4.88,0,0,0,.44-1.21,2.5,2.5,0,0,0-.49-1.69,5.45,5.45,0,0,0-2.22-1.66,3.74,3.74,0,0,0-2.3-.34,2,2,0,0,0-1.13.68,2.48,2.48,0,0,0-.46,1.11,5.5,5.5,0,0,0,0,1.94,3.19,3.19,0,0,0,1.46,2.26,2.58,2.58,0,0,0,2.58,0,7.22,7.22,0,0,0,1.56-1.24,2.93,2.93,0,0,0,1-2.35,3,3,0,0,0-1.47-2.21,3.77,3.77,0,0,0-2.28-.46A3.43,3.43,0,0,0,119.33,20a5,5,0,0,0,.06,2,3,3,0,0,0,1.84,2.27,3,3,0,0,0,1.42.12,1.09,1.09,0,0,0,.74-1.54,1.76,1.76,0,0,0-1.77-1.12.88.88,0,0,0-.16,0s.3,0,.13,0h-.13c-.18,0,.17,0,.18.05l-.1,0s.35.18.2.09.21.17.19.16l-.07-.07s.29.34.17.19S122,22,122,22s.17.36.11.19a1,1,0,0,1,0-.1.38.38,0,0,0,0-.1s.08.35,0,.18a2.56,2.56,0,0,1,0-.27c0-.16,0-.33,0-.49s0,.25,0,0c0-.09,0-.18,0-.27a2.38,2.38,0,0,1,.05-.26c0-.25-.1.25,0,0a2.88,2.88,0,0,1,.24-.46l-.18.26a3.46,3.46,0,0,1,.74-.74l-.26.19a2.42,2.42,0,0,1,.39-.21c.14-.07-.15.06-.16,0l.1,0,.23-.05a1,1,0,0,0,.25,0s-.34,0-.17,0h.13c.07,0,.19.05.25,0s-.36-.09-.19,0l.12,0,.1,0c.13,0-.31-.17-.2-.1a.41.41,0,0,0,.11.07c.15.09-.19-.15-.19-.16s.07.08.09.09-.21-.29-.16-.19l.06.08c.1.12-.16-.37-.09-.17a.38.38,0,0,0,0,.1s0-.39,0-.15c0,0,0,.2,0,0s0,0,0,0c-.08.22,0-.06,0-.08s0,.09-.05.12a3.07,3.07,0,0,1-.17.31l.18-.26A6.09,6.09,0,0,1,121.86,21l.26-.19a3.67,3.67,0,0,1-.53.34l-.17.07c-.15.07.11,0,.14,0a1.27,1.27,0,0,0-.28.06c.19-.06.3,0,.12,0s.18,0,.19,0c-.22-.06.33.2.14.08s.18.14.17.14c-.18-.16.23.33.09.11l-.08-.13c.23.33.14.29.1.16s0-.07,0-.1.09.39,0,.18l0-.13a2.89,2.89,0,0,1,0-.29,1.63,1.63,0,0,1,0-.31.92.92,0,0,1,0-.16c0-.22,0,.26,0,.11s0-.41,0-.62l0-.13c0-.19-.1.25,0,.13a2.29,2.29,0,0,1,.1-.23l-.18.27a.88.88,0,0,1,.21-.22l-.26.19.16-.1c.16-.11-.23,0-.1,0l.16,0H122c.11,0,.26,0,.37,0s-.32-.09-.11,0l.2.06a1.66,1.66,0,0,1,.31.12c.11,0,.31.17-.12-.07l.13.07.33.19.15.1c.26.19-.21-.18-.09-.07l.13.12c.13.12.12.22-.07-.1a1.13,1.13,0,0,0,.1.13c.1.13-.15-.35-.08-.14-.06-.24-.07-.3,0-.18s0,.06,0-.13c0,.21.09-.18,0-.06l-.18.42a9.13,9.13,0,0,1-.77,1.49l.18-.26a4.5,4.5,0,0,1-.88,1l.26-.19a4.48,4.48,0,0,1-.47.28l-.12.05c-.2.08.21-.05.1,0l-.23,0c-.11,0,.27,0,.16,0h-.11c-.13,0,.31.08.19,0s.33.18.2.1.3.26.19.15.25.32.15.18-.11-.18,0,0,.08.15,0,.08,0,0,0,.18c0-.1,0-.21,0-.31a.73.73,0,1,0,0,.09s0-.11,0-.16a3.11,3.11,0,0,1,0-.32c0-.05.05-.13,0-.17s-.07.24,0,.07a5.75,5.75,0,0,1,.62-1.24l-.18.27.9-1.29-.18.27a3.47,3.47,0,0,1,.71-.82l-.25.19a3.47,3.47,0,0,1,.33-.18c-.22.06-.27.08-.15.05h.11s-.39,0-.1,0-.36-.11-.05,0c.14,0,.17.17-.18-.09l.13.08c.21.13-.32-.29-.17-.13l.09.09c.15.14-.28-.39-.13-.14a.61.61,0,0,0,.07.1c.11.17-.18-.41-.08-.14,0,.08.13.42.06.13s0,.09,0,.17,0,.21,0,.32,0-.39,0-.09a.76.76,0,0,0,0,.15,4.16,4.16,0,0,1-.12.72c-.06.24,0-.09,0-.11a1.17,1.17,0,0,0-.06.2c0,.12-.09.23-.13.34a5.24,5.24,0,0,1-.34.61l.18-.27a2.59,2.59,0,0,1-.55.59l.25-.19a2.61,2.61,0,0,1-.28.17l-.11,0c.33-.17.26-.07.12,0-.32.06.36,0,.06,0s.37.1.19,0l-.09,0c.39.08.34.18.19.08l-.08-.05c.44.28.29.24.18.13l-.1-.11s.29.39.16.19l-.09-.13-.06-.1c-.15-.24.16.35.08.15l-.12-.27c-.05-.14-.11-.51,0,0a4.34,4.34,0,0,1-.09-.63c0-.11,0-.25,0,.17V22a2.34,2.34,0,0,1,0-.26c0-.14.12-.23,0,.13l0-.1a1.36,1.36,0,0,1,.13-.24l-.18.26a1,1,0,0,1,.2-.21l-.26.19a.83.83,0,0,1,.16-.09c.22-.13-.33.06-.09,0l.09,0c.19,0-.2,0-.2,0a2.46,2.46,0,0,1,.26,0,1,1,0,0,0,1.17-1.2A1.84,1.84,0,0,0,122.55,19Z"/></g><g class="cls-1"><path class="cls-4" d="M111.46,3.74a3.61,3.61,0,0,0-.84,1.39,5.17,5.17,0,0,0-.42,2.16c0,1.75,2.13,3.21,3.69,2.15a4.51,4.51,0,0,0,1.39-1.55A3.35,3.35,0,0,0,115.71,6a3.21,3.21,0,0,0-1.47-2.47,2.55,2.55,0,0,0-2.7,0,4.41,4.41,0,0,0-1.73,2,5.52,5.52,0,0,0-.44,2.37,4,4,0,0,0,.56,2.27,2.34,2.34,0,0,0,3.06.87,9,9,0,0,0,1.57-1.25,7.4,7.4,0,0,0,1.31-1.59,2.9,2.9,0,0,0,.35-2.38,3.33,3.33,0,0,0-2-2.1,3.41,3.41,0,0,0-2.31.17,7.16,7.16,0,0,0-1.58,1,2.21,2.21,0,0,0-.67.69,2.07,2.07,0,0,0-.24.88,4.07,4.07,0,0,0,.14,1.39,2.24,2.24,0,0,0,1,1.17,6,6,0,0,0,1,.42,1.09,1.09,0,0,0,1.52-.8,1.76,1.76,0,0,0-1.18-1.73l-.56-.21c-.15-.05.38.2.23.11s0,0,.1.08a.76.76,0,0,1,.24.23,1.24,1.24,0,0,1,.24.38c-.07-.15,0,.38,0,.19s0-.18,0-.27,0,.23,0,.08V7.25c0-.08.07-.4,0-.15s0,0,.06-.06l-.18.27a3.87,3.87,0,0,1,.85-.71l-.26.19a4.7,4.7,0,0,1,1.1-.6c.18-.08-.26.07-.12,0l.14,0a2.93,2.93,0,0,1,.29-.05c.15,0-.34,0-.15,0l.16,0c.2,0-.31-.1-.17,0l.15,0c.15,0-.35-.2-.18-.08s.09.13-.14-.11l.11.1c.12.11-.25-.34-.12-.14,0,0,.08.16.11.17s-.18-.35-.07-.11,0-.13,0-.16l0,.16s0-.38,0-.15a.59.59,0,0,1,0,.14c0,.22,0,0,0-.08l-.06.17a3.74,3.74,0,0,1-.34.62l.18-.26a8.93,8.93,0,0,1-2.1,2.06l.26-.19a2.49,2.49,0,0,1-.3.19l-.12.06c-.19.1.21-.06.1,0s.35,0,.13,0,.29.09.15,0,.36.2.17.08c0,0,.34.27.2.14.3.28.22.28.14.16s.16.37.09.16A1.12,1.12,0,0,0,112.1,9c0-.11,0-.23,0,.16,0-.16,0-.32-.07-.49a1.22,1.22,0,0,0,0-.33c0,.09,0,.29,0,.08a1.15,1.15,0,0,1,0-.19,5.56,5.56,0,0,1,.08-.7.85.85,0,0,0,0-.17c0-.17,0,.05,0,.1,0-.11.08-.23.12-.34a3.59,3.59,0,0,1,.35-.64l-.18.27a3.56,3.56,0,0,1,.85-.88l-.25.19a1.75,1.75,0,0,1,.29-.18.77.77,0,0,0,.16-.07s-.27.06-.12,0l.13,0c.19,0-.23,0-.13,0h.11c.15,0-.35-.11-.16,0s-.29-.17-.08,0-.28-.26-.19-.14.07.08.1.09-.24-.33-.15-.17.13.23,0,0,0,.08,0,.12-.07-.35-.05-.15a.51.51,0,0,1,0,.13s0,.26,0,0,0,0,0,0l0,.25c0,.24.11-.3,0-.1a4.48,4.48,0,0,1-.44.84l.18-.27a3.26,3.26,0,0,1-.71.77l.26-.19a1.5,1.5,0,0,1-.23.15c-.07,0-.33.13-.09.06s.08,0,0,0-.28,0,.17,0c-.26,0,.34.12.09,0,0,0,.39.2.2.08s.33.29.17.14.25.32.14.16.15.35.11.2,0,.32,0,.09c0,0,0-.08,0-.12s0-.24,0,.13a5.54,5.54,0,0,1,.07-.57,1.16,1.16,0,0,1,0-.18c0-.05.06-.23,0,0s0-.1.06-.17a4.74,4.74,0,0,1,.52-1.06l-.18.26a1,1,0,0,1,.22-.25,1.11,1.11,0,0,0,.26-.91,1.68,1.68,0,0,0-.52-1,1.4,1.4,0,0,0-1.9-.19Z"/></g><g class="cls-1"><path class="cls-4" d="M137.8,2.66a3.19,3.19,0,0,0-1.24,1.43,2.76,2.76,0,0,0-.11,2.13,2.81,2.81,0,0,0,1.08,1.28,2.72,2.72,0,0,0,1.32.43,2,2,0,0,0,1.21-.27,2.25,2.25,0,0,0,.83-.9,3.48,3.48,0,0,0-1.2-4.44A2.22,2.22,0,0,0,138,1.94a1.73,1.73,0,0,0-1.19,1A5.86,5.86,0,0,0,136.45,4a3.53,3.53,0,0,0-.13.78,2.76,2.76,0,0,0,.42,1.68,2.65,2.65,0,0,0,1.33,1,5.71,5.71,0,0,0,1.93.17,1.15,1.15,0,0,0,.9-.29,1.11,1.11,0,0,0,.26-.91,1.74,1.74,0,0,0-.52-1,1.63,1.63,0,0,0-1-.48,7.79,7.79,0,0,1-1.45-.06l.35.07a1,1,0,0,1-.24-.08l.34.17-.16-.1.32.25-.11-.1.26.3a.38.38,0,0,1-.09-.13l.17.33a1.07,1.07,0,0,1-.07-.19l.09.35a1.17,1.17,0,0,1,0-.32v.33a3.37,3.37,0,0,1,.16-.94l-.09.31a2.85,2.85,0,0,1,.34-.83l-.18.27a.64.64,0,0,1,.13-.15l-.26.19a.94.94,0,0,1,.22-.12l-.3.1.15,0h-.33l.18,0-.34-.07a.67.67,0,0,1,.18.07l-.34-.17a1.53,1.53,0,0,1,.21.14l-.32-.25a1.88,1.88,0,0,1,.25.24l-.26-.31a1.77,1.77,0,0,1,.21.32l-.17-.34a1.85,1.85,0,0,1,.12.33l-.09-.35a2.39,2.39,0,0,1,.06.53V4.41a2.67,2.67,0,0,1-.09.69l.09-.31a2.11,2.11,0,0,1-.25.55l.18-.26a1.28,1.28,0,0,1-.28.29l.26-.19a1,1,0,0,1-.28.14l.31-.1a.73.73,0,0,1-.25,0h.33a1.12,1.12,0,0,1-.32,0l.34.08-.27-.1.35.17a1.22,1.22,0,0,1-.19-.12l.32.25-.12-.12.25.31-.09-.14.18.33a.7.7,0,0,1-.08-.2L139,6a1,1,0,0,1,0-.25v.34a1.51,1.51,0,0,1,.07-.48l-.09.3a2.43,2.43,0,0,1,.32-.67l-.18.26A2.47,2.47,0,0,1,139.6,5l-.25.19.09-.06a1.07,1.07,0,0,0,.53-.76,1.59,1.59,0,0,0-.27-1,1.92,1.92,0,0,0-.92-.72,1.2,1.2,0,0,0-1,0Z"/></g><g class="cls-1"><path class="cls-4" d="M93.47,46.91l-.11,0,.35.08c-.31-.08-.59-.24-.9-.31a1.72,1.72,0,0,0-1.62.44,2.45,2.45,0,0,0-.67,1.42,9.21,9.21,0,0,0,0,1.39v-.33a5.29,5.29,0,0,0,.31,2,3.19,3.19,0,0,0,1.8,1.85,2.86,2.86,0,0,0,2.32-.22,4.25,4.25,0,0,0,1.52-1.49,3.88,3.88,0,0,0,.65-1.83,3.2,3.2,0,0,0-.17-1.3,4,4,0,0,0-.8-1.26,3.79,3.79,0,0,0-1.89-1.17,3.9,3.9,0,0,0-4.72,2.48,3.17,3.17,0,0,0-.21,1.77,2.75,2.75,0,0,0,1.84,2.06,4.11,4.11,0,0,0,2.2.07,2.11,2.11,0,0,0,1.16-.67A2,2,0,0,0,95,50.24,4.51,4.51,0,0,0,93.59,48c-.69-.68-1.79-1.33-2.77-.84a1.81,1.81,0,0,0-.92,1.29,3,3,0,0,0,.16,1.49,4.32,4.32,0,0,0,1.18,2,2.82,2.82,0,0,0,1.53.78,1.89,1.89,0,0,0,1.49-.46A2.71,2.71,0,0,0,95,50.23,3.55,3.55,0,0,0,94.86,49a1.8,1.8,0,0,0-.59-.77,1.44,1.44,0,0,0-.85-.36,1.69,1.69,0,0,0-1.29.42,1.49,1.49,0,0,0-.42,1,1.63,1.63,0,0,0,.26,1,1.77,1.77,0,0,0,.92.72,1.26,1.26,0,0,0,1,0,1,1,0,0,0,.52-.76.89.89,0,0,1,0-.22l-.09.31a.77.77,0,0,1,.07-.16l-.18.26.09-.09-.26.19.16-.08-.3.1.14,0h-.28l-1.43-1.12a.64.64,0,0,1,0,.07l-.09-.35a2.87,2.87,0,0,1,0,.41v-.33a3.09,3.09,0,0,1-.11.8l.09-.31a1.54,1.54,0,0,1-.21.47l.19-.26a1.31,1.31,0,0,1-.24.23l.26-.19a1.08,1.08,0,0,1-.24.12l.31-.1-.14,0h.15l.35.08L92.56,50l.34.16L92.65,50l.31.25A2.23,2.23,0,0,1,92.7,50l.26.31a2.51,2.51,0,0,1-.32-.48l.17.34a4.55,4.55,0,0,1-.27-.73l.09.34a2,2,0,0,1-.06-.42v.33a1.39,1.39,0,0,1,0-.35l-.08.31a.88.88,0,0,1,.1-.22l-.18.26a1.21,1.21,0,0,1,.19-.2l-.26.19.13-.07-.31.1a.51.51,0,0,1,.17,0h-.2l-.35-.08.23.08-.34-.16.26.17-.32-.25a5.3,5.3,0,0,1,.67.67l-.26-.31a3.16,3.16,0,0,1,.37.53L92.26,50a2.33,2.33,0,0,1,.11.28l-.09-.35a.91.91,0,0,1,0,.23v-.34a.85.85,0,0,1,0,.23l.09-.31a1,1,0,0,1-.14.3l.18-.26a1.43,1.43,0,0,1-.24.25l.25-.19a1.27,1.27,0,0,1-.37.18l.31-.1a2.59,2.59,0,0,1-.67.1H92a3.12,3.12,0,0,1-.74-.06l.35.08a1.76,1.76,0,0,1-.3-.1l.34.16a.82.82,0,0,1-.2-.12l.31.24-.12-.12.25.3-.09-.14.17.33a1.18,1.18,0,0,1-.07-.2l.09.35a1,1,0,0,1,0-.3v.34a2.5,2.5,0,0,1,.09-.61l-.09.31a3.78,3.78,0,0,1,.48-1l-.18.27A3,3,0,0,1,93,49l-.26.18a3.3,3.3,0,0,1,.84-.42l-.31.1A2.67,2.67,0,0,1,94,48.7h-.34a1.94,1.94,0,0,1,.59.06l-.34-.08a2,2,0,0,1,.47.17l-.34-.17a2,2,0,0,1,.39.25l-.32-.25a2.34,2.34,0,0,1,.39.38l-.26-.31a2,2,0,0,1,.26.38l-.17-.34a1.66,1.66,0,0,1,.12.31l-.09-.34a1.58,1.58,0,0,1,0,.38v-.33a3,3,0,0,1-.09.66l.08-.31a3.75,3.75,0,0,1-.5,1l.18-.27a3.63,3.63,0,0,1-.78.83l.25-.19a2.35,2.35,0,0,1-.67.34l.3-.1a1.86,1.86,0,0,1-.47.09h.33l-.31,0,.35.08-.19-.07.34.16a.88.88,0,0,1-.21-.12l.32.24a1.29,1.29,0,0,1-.17-.16l.25.3a1.27,1.27,0,0,1-.18-.27l.17.33a3,3,0,0,1-.19-.5l.09.35a4.78,4.78,0,0,1-.12-1v.34c0-.34,0-.68,0-1v.33a2.62,2.62,0,0,1,.07-.68l-.09.31a1.38,1.38,0,0,1,.18-.39l-.18.26a2.27,2.27,0,0,1,.26-.28l-.26.19a.93.93,0,0,1,.2-.1l-.3.1.11,0H93l-.34-.07a2.08,2.08,0,0,1,.39.15,3.26,3.26,0,0,0,.8.21A1,1,0,0,0,95,48.39a1.83,1.83,0,0,0-1.53-1.48Z"/></g><g class="cls-5"><path class="cls-6" d="M56.68,34.66a6.1,6.1,0,0,1-.61.51l.26-.19a6.27,6.27,0,0,0-2.08,2,2.6,2.6,0,0,0,.87,3.43,3.48,3.48,0,0,0,2.71.38,3.08,3.08,0,0,0,1.27-.62,4.39,4.39,0,0,0,.73-.7A4.54,4.54,0,0,0,61,37a2.89,2.89,0,0,0-2.44-3,3.59,3.59,0,0,0-2.54.77,6.34,6.34,0,0,0-1.9,2.12,3.41,3.41,0,0,0,.17,3.76,4,4,0,0,0,2.38,1.59,2.07,2.07,0,0,0,1.15-.15,4.06,4.06,0,0,0,.95-.64l-.26.19A8.4,8.4,0,0,0,60,40.52a4.91,4.91,0,0,0,.63-.93,5.24,5.24,0,0,0,.74-2.3,2.7,2.7,0,0,0-.46-1.72,2.5,2.5,0,0,0-1.79-1.08,3.47,3.47,0,0,0-2.51,1,3.77,3.77,0,0,0-1.41,2.19,1.73,1.73,0,0,0,1.19,1.73,1.09,1.09,0,0,0,1.51-.79l0-.17-.08.31a2.19,2.19,0,0,1,.29-.57l-.18.26A4.77,4.77,0,0,1,59,37.39l-.26.19a3.14,3.14,0,0,1,.82-.45l-.3.1.28-.07c.31,0-.35,0,0,0,.12,0-.41-.12-.18,0s-.38-.2-.2-.09-.33-.3-.19-.14c0,0-.28-.38-.15-.17-.28-.45-.13-.3-.1-.18s-.05-.37,0-.17a.78.78,0,0,0,0,.14c0,.22,0-.09,0-.14s0,.23,0,.31a2.62,2.62,0,0,1-.09.38l.09-.31a5.87,5.87,0,0,1-.79,1.68l.18-.26a3.57,3.57,0,0,1-.86.83l.26-.19-1,.77.25-.19a2.51,2.51,0,0,1-.45.26l.3-.1a1.16,1.16,0,0,0-.18,0h.09l.23,0-.12,0s.36.19.11,0c-.05,0-.3-.21-.09,0s0,0,0,0-.11-.11-.16-.16c.29.26.16.21.07.08s-.08-.28,0,.1a.94.94,0,0,0-.06-.15c-.1-.24,0,.13,0,.13s0-.14,0-.18,0-.22,0,.09c0-.06,0-.13,0-.19a2.41,2.41,0,0,1,.07-.37l-.08.31a4,4,0,0,1,.53-1.1l-.18.27a5.33,5.33,0,0,1,1.24-1.31l-.26.19a4.12,4.12,0,0,1,1.07-.58l-.3.1.32-.08.15,0c.21,0-.33,0-.13,0l.15,0c-.31,0-.31-.07-.16,0s-.34-.19-.16-.08-.3-.29-.15-.12.09.2-.1-.14c0,0,.08.15.1.15s-.16-.39-.1-.16c0,0-.08-.4,0-.17s0,.19,0-.16c0,0,0,.08,0,.12a1.65,1.65,0,0,1-.07.32l.09-.31a3.62,3.62,0,0,1-.52,1L58,36.9A4.79,4.79,0,0,1,56.94,38l.26-.19a2,2,0,0,1-.56.29l.3-.1a3.12,3.12,0,0,1-.69.13c-.21,0,.38,0,.08,0h-.15l-.19,0c.36,0,.3.08.14,0L56,38.1c.35.11.32.16.17.07s.36.33.17.13c.21.26.26.33.18.21s0,0,0,.09.09.18.05.09,0,0,0,.22a1,1,0,0,0,0-.17q0-.15,0,.21s0-.08,0-.12a2.21,2.21,0,0,1,0-.25l-.09.31a2.09,2.09,0,0,1,.29-.6l-.18.26a3.77,3.77,0,0,1,.86-.83l-.25.19a13.08,13.08,0,0,0,1.52-1.17,1.54,1.54,0,0,0-2.16-2.08Z"/></g><g class="cls-5"><path class="cls-6" d="M42.82,3.11a1.57,1.57,0,0,1,0,.23L42.86,3a6.24,6.24,0,0,0-.36,1.33,2.42,2.42,0,0,0,1.55,2.35,2.58,2.58,0,0,0,2.85-.92,4.54,4.54,0,0,0,1.41-2.57A3,3,0,0,0,45.89.06c-1.6-.28-2.8,1.16-3,2.62A2.64,2.64,0,0,0,43.69,5a2.54,2.54,0,0,0,2.83.4A3.15,3.15,0,0,0,47.88,4.1a3,3,0,0,0,.45-1.77,2.58,2.58,0,0,0-1.25-2A1.89,1.89,0,0,0,45.69.05a2,2,0,0,0-1.06.64,1.39,1.39,0,0,0,.26,1.89c.49.44,1.37.76,1.9.19A1.79,1.79,0,0,1,47,2.54l-.25.19A1,1,0,0,1,47,2.61l-.3.1a.61.61,0,0,1,.13,0h-.21l-.35-.08.12,0-.34-.17.1.07-.32-.25a.76.76,0,0,1,.09.09l-.25-.31a1.19,1.19,0,0,1,.09.15l-.17-.34a1,1,0,0,1,.08.23l-.09-.34a1.17,1.17,0,0,1,0,.32V1.78a1.55,1.55,0,0,1-.07.43l.09-.31a2.43,2.43,0,0,1-.32.67l.18-.26A2.25,2.25,0,0,1,45,2.9l.26-.19A1.69,1.69,0,0,1,44.7,3l.3-.1a1.71,1.71,0,0,1-.45.09h.33a1,1,0,0,1-.24,0L45,3l-.16,0,.35.16A.57.57,0,0,1,45.05,3l.31.25-.1-.1.26.31a.57.57,0,0,1-.08-.13l.17.34a1.18,1.18,0,0,1-.07-.2l.09.35a1.86,1.86,0,0,1-.05-.34v.34a2.33,2.33,0,0,1,.08-.59l-.08.31a2.43,2.43,0,0,1,.34-.73l-.18.26a1.72,1.72,0,0,1,.41-.44l-.25.19a1.18,1.18,0,0,1,.37-.19l-.31.1a1.44,1.44,0,0,1,.36-.07H46a1.27,1.27,0,0,1,.28,0l-.35-.08.22.08-.34-.17.18.12-.31-.24a1.21,1.21,0,0,1,.16.16l-.26-.31a2.43,2.43,0,0,1,.14.2l-.18-.33a1.51,1.51,0,0,1,.13.33l-.09-.34a1.27,1.27,0,0,1,0,.34V2.16a1.84,1.84,0,0,1-.07.47l.09-.31a3.24,3.24,0,0,1-.43.85l.18-.26a5.52,5.52,0,0,1-1.18,1.28L44.47,4a2.06,2.06,0,0,1-.49.25l.31-.1a.93.93,0,0,1-.23,0h.15l.35.07a.64.64,0,0,1-.18-.06l.34.16-.13-.08.32.24-.11-.11.25.31a.35.35,0,0,1,0-.08l.17.33-.05-.12.09.34a1.1,1.1,0,0,1,0-.18v.33a1.34,1.34,0,0,1,.07-.39l-.09.31a7.34,7.34,0,0,0,.35-1.19,1.56,1.56,0,0,0-.27-1,1.77,1.77,0,0,0-.92-.72,1.24,1.24,0,0,0-1,0,1,1,0,0,0-.53.76Z"/></g><g class="cls-5"><path class="cls-6" d="M62.52,62.77a11.68,11.68,0,0,0-4.55.67,3.89,3.89,0,0,0-2,2.93,8.7,8.7,0,0,0-.13,1.53c0,.56-.07,1.11-.06,1.67A3.64,3.64,0,0,0,58,73.09a6,6,0,0,0,3.55.39,6.84,6.84,0,0,0,3.21-2.14,5.31,5.31,0,0,0,1.35-3.22,4.55,4.55,0,0,0-.72-3.33c-1-1.32-2.59-1.53-4.16-1.64-.79,0-1.58-.06-2.37-.07a4.5,4.5,0,0,0-1.86.26,6.4,6.4,0,0,0-1.47,1.06,5,5,0,0,0-1.28,1.5,6,6,0,0,0-.39,3A4.64,4.64,0,0,0,55,72.09a4.27,4.27,0,0,0,3.48,1.3,5.79,5.79,0,0,0,3-1.18,10.27,10.27,0,0,0,2.7-2.34,4.42,4.42,0,0,0,.68-4,3.7,3.7,0,0,0-3.2-2.52,4.36,4.36,0,0,0-3.48,2A3.54,3.54,0,0,0,58,69.67a2.84,2.84,0,0,0,3.6,1,4,4,0,0,0,2-2.5,2.94,2.94,0,0,0-1.95-3.39,2.51,2.51,0,0,0-3.22,1.52,3.07,3.07,0,0,0,1.19,3.85c1.55.89,3.07.08,4-1.25a2.66,2.66,0,0,0,.51-2.38,2.9,2.9,0,0,0-1.7-1.76,3,3,0,0,0-2.09,0,2.4,2.4,0,0,0-1.25,1.2,3.3,3.3,0,0,0,0,3.73,2.25,2.25,0,0,0,3.39.22,2.36,2.36,0,0,0-.75-3.72,2.47,2.47,0,0,0-3.29,1.38,3,3,0,0,0,.94,3.89,2.35,2.35,0,0,0,2.43.26,3.29,3.29,0,0,0,1.32-3.81,3.25,3.25,0,0,0-5.09-1.37,2.91,2.91,0,0,0-.27,3.61,3,3,0,0,0,4.27.61,5.23,5.23,0,0,0,1.14-1.16c.18-.25.36-.51.53-.77s.16-.24.23-.36a1.3,1.3,0,0,0,.1-.15s-.12.18,0,0a1.42,1.42,0,0,0-.26-1.89c-.42-.38-1.45-.83-1.9-.19A15.06,15.06,0,0,1,60.58,68a3.61,3.61,0,0,1-.35.33c-.19.17-.07,0,0,0l-.26.14s-.28.1-.08,0l-.25,0h0q-.23,0-.09,0a.83.83,0,0,1,.37.22.73.73,0,0,1,.19.28c-.14-.3,0,.19,0,0s0-.29,0,0a1.49,1.49,0,0,0,0-.21c0-.22,0-.05,0,0l.09-.19c.11-.27-.1.09,0,0s.26-.24.13-.15.14,0,.14,0-.21,0,0,0l.38,0c-.35.06,0,0,.15,0s-.1.09-.13,0l.19.06c-.15.05-.33-.21-.08,0-.41-.31-.25-.21-.16-.12s-.27-.36-.13-.16-.13-.29,0-.1l0,.1c.06.22,0-.34,0-.12a1.41,1.41,0,0,1,0,.28s0-.36,0-.15a.41.41,0,0,0,0,.11c0,.09,0,.18,0,.27s0-.13,0-.1-.05.15-.06.17-.16.3-.22.45.22-.24.07-.1a.27.27,0,0,0-.07.08,1.54,1.54,0,0,1-.2.18c-.07-.11.35-.15,0,0s.33-.06.05,0,.32,0,.07,0,.35.1.2,0,.28.15.13.07c-.32-.18.17.16,0,0s.06.07.07.09.18.41.11.21,0,.17,0,0a1.57,1.57,0,0,1,0-.3c0,.06-.07.17,0,0S61,69.07,61,69s.06-.1,0,0,.12-.14.18-.21.2-.17.08-.08.13-.06.14-.06-.24,0,0,0c-.25,0-.16,0-.07,0a1.23,1.23,0,0,1-.93-.92c0-.13-.09.13,0,0s-.05.09-.06.11.13-.07,0,0a1.58,1.58,0,0,0-.13.13c.17-.19.12-.06,0,0s-.17,0,0,0c-.12,0-.12,0,.11,0-.24,0,.33.12.34.13a1.1,1.1,0,0,1,.49.63c-.08-.29-.05.11,0,0a1.07,1.07,0,0,0,0-.25c0-.08,0-.15.05-.22s-.07.19,0,0a3.93,3.93,0,0,1,.24-.56s.19-.32.08-.17.11-.12.1-.11.17-.06,0,0l.19-.1c-.21.08,0,0,0,0,.33.05-.13,0,.06,0s.28.1,0,0l-.14-.08c.12.08.13.08,0,0s-.22-.19-.28-.35l0-.15c0-.2,0-.2,0,0l0,.08c0-.05-.19.34-.11.22a4.22,4.22,0,0,1-.68.76,1.83,1.83,0,0,1-.24.13c.11-.05-.11,0-.06,0s.27.12.42.31c0,0,.18.3.05.06.13.24.06.12,0,0-.11-.23,0,.08,0,0a1.86,1.86,0,0,1,.05-.34c0-.19-.12.22,0-.08a1.33,1.33,0,0,0,.09-.21s.13-.21,0,0c0-.06.09-.1.13-.16.17-.24-.11.09,0,0l.05,0c.14,0,.14-.06,0,0s.32,0,0,0c.1,0,.34.09.06,0-.06,0-.25-.18-.06,0-.29-.23-.14-.12-.08,0S61,66.8,61,67s-.09-.2,0-.2a2.93,2.93,0,0,1,0,.35c.07-.29-.08.14-.13.23s-.18.28-.08.13-.1.13-.1.12-.19.21-.29.31l-.16.14c.19-.16,0,0,0,0l-.21.12c-.08,0-.34.11-.06,0a.58.58,0,0,1-.18,0h.08s-.14,0-.18,0,.47.21.32.11.29.28.06,0c.07.08.14.27.07,0,.05.15,0-.09,0-.09.05.17,0-.17,0-.22,0,.1.06-.24.05-.23a2.48,2.48,0,0,1,.29-.56c-.07.1.07-.09.07-.08l.24-.28a6.51,6.51,0,0,1,.54-.51,2,2,0,0,1,.4-.27l.24-.12c-.16.07.07,0,.12,0s.28,0,.12,0,.17,0,.17,0-.27-.08,0,0c-.33-.11,0,0,0,0-.29-.13-.13-.14-.07,0s0,0,0,0,.19.32.09.12,0,.15.06.16c-.09-.25,0,.15,0,.26,0-.21,0,.07,0,.12s0,.23-.05.35a2.51,2.51,0,0,1-.17.46,3.21,3.21,0,0,1-.24.45c.1-.15,0,.07-.08.11l-.16.19a5.9,5.9,0,0,1-.5.5A13.7,13.7,0,0,1,59.33,70a4.31,4.31,0,0,1-.87.47l-.21.08c.21-.07,0,0-.08,0l-.54.1c-.07,0-.32,0-.05,0h-.21l-.22,0c-.31,0,.14.08,0,0a1.84,1.84,0,0,0-.25-.09c-.11,0-.16-.12,0,0a1.08,1.08,0,0,0-.18-.11c.26.11.11.09,0,0s0,0,0,0l-.17-.25c-.14-.2.12.27,0,.06s-.06,0,0,.13a2.53,2.53,0,0,1-.12-.92c0-.17,0-.34,0-.51h0v-.22a6.5,6.5,0,0,1,.08-1s0-.11,0-.15c0-.22,0,.14,0,.13s.09-.24.12-.31.16-.26.07-.13a5,5,0,0,1,.88-.9,4.82,4.82,0,0,1,.78-.58,1.51,1.51,0,0,1,.18-.09c.25-.14-.16,0,0,0l.25,0c.26,0-.17,0,.17,0,1,0,2.08,0,3.12.12.47.05.88.15,1.22.21-.33-.06-.06-.11,0,0l.09.06L63.26,66c.25.22-.14-.22,0-.05s0-.09,0,0,.07.17.09.24,0-.29,0,0l.06.42c0,.34,0-.16,0,0a2.44,2.44,0,0,1,0,.27,4.51,4.51,0,0,1-.07.53c0,.17-.07.33-.1.49s0,.21-.07.31-.08.31,0,.08a2.74,2.74,0,0,1-.15.4s-.18.29-.09.16-.12.14-.14.16a7.45,7.45,0,0,1-2,1.68l-.19.08c.21-.08,0,0,0,0l-.52.08c-.06,0-.32,0-.1,0H59.7q-.31,0-.63-.06s-.38-.08-.19,0-.08,0-.12,0l-.28-.1c-.08,0-.21-.13,0,0l-.18-.1c-.24-.13.07.08.12.12l.06.07c-.09-.14-.08-.12,0,0,0,0-.11-.33-.06-.15s0-.18,0-.18,0-.16,0-.24c0-.24,0-.09,0,0,0-.1,0-.21,0-.31,0-.38,0-.75.06-1.13a9.23,9.23,0,0,1,0-1l.09-.48c.06-.36-.05.11,0-.09a2,2,0,0,1,.12-.34,1.54,1.54,0,0,1,1.31-1.06,11,11,0,0,1,2.8-.31A1,1,0,0,0,64,64.25a1.77,1.77,0,0,0-1.52-1.48Z"/></g><g class="cls-5"><path class="cls-7" d="M18.07,109.86a3.5,3.5,0,0,0-1.76.17,1.88,1.88,0,0,0-.68,2.3,2.32,2.32,0,0,0,2.48,1.53,2.58,2.58,0,0,0,1.58-1.08,4.2,4.2,0,0,0,.47-.76,3,3,0,0,0,.21-1.42,3.1,3.1,0,0,0-.33-1.07,8.52,8.52,0,0,0-.46-.84,2.68,2.68,0,0,0-2.11-1.32,1.88,1.88,0,0,0-1.86,1.15,4.18,4.18,0,0,0-.27,1.44,6,6,0,0,0,.08,1.58,4,4,0,0,0,1,1.91,2.81,2.81,0,0,0,.75.57,1.49,1.49,0,0,0,1.37.15l.3-.17a3.72,3.72,0,0,0,1.33-1.19,2.21,2.21,0,0,0,0-2A2.85,2.85,0,0,0,18,109.1a2.13,2.13,0,0,0-1.83.66,2.93,2.93,0,0,0-.69,1.84,3.08,3.08,0,0,0,.85,2.45,2.08,2.08,0,0,0,2.48.34,3.41,3.41,0,0,0,1.25-1.28,1.31,1.31,0,0,0,0-1,1.81,1.81,0,0,0-.75-.89,1.21,1.21,0,0,0-1.76.32l-.08.13.18-.26a2.89,2.89,0,0,1-.57.59l.26-.19a1.5,1.5,0,0,1-.45.24l.31-.1a.69.69,0,0,1-.2,0h.19l.34.07c-.19-.05.4.24.17.08l.32.25-.1-.09.26.31-.06-.08c-.07-.12,0-.05.1.2,0-.07-.05-.13-.07-.2l.09.35a2.48,2.48,0,0,1-.06-.54v.33a3.86,3.86,0,0,1,.1-.75l-.09.31a2.34,2.34,0,0,1,.23-.51l-.18.26a1.38,1.38,0,0,1,.3-.29l-.26.19a1.08,1.08,0,0,1,.3-.16l-.31.1a1.17,1.17,0,0,1,.26,0h-.33l.21,0-.35-.08c.07,0,.26.11,0,0s-.07,0,0,0l-.32-.24a.91.91,0,0,1,.17.17l-.25-.31.07.1c.08.11.06.22-.08-.16,0,.09.07.18.1.28l-.09-.35a1.49,1.49,0,0,1,0,.21v-.33a.85.85,0,0,1,0,.23l.09-.3a1.14,1.14,0,0,1-.15.29l.18-.26a2.09,2.09,0,0,1-.43.41l.26-.19c-.23.17-.48.31-.73.46l1,0c.49.23.16.07,0,0l.31.25a1.89,1.89,0,0,1-.2-.2l.25.3-.11-.15-.05-.08c-.11-.18.15.33.09.18s-.1-.26-.14-.4l.09.34a4,4,0,0,1-.11-1v.34a5.17,5.17,0,0,1,.13-1.3l-.09.31a1.59,1.59,0,0,1,.19-.42l-.18.26a1,1,0,0,1,.2-.21l-.25.18a1.23,1.23,0,0,1,.23-.11l-.31.1.23,0h-.34l.21,0L17.7,110c.07,0,.28.11,0,0s-.07,0,0,0l-.31-.25a1.45,1.45,0,0,1,.17.18l-.26-.31.15.21c0,.07.21.38.07.11s0,0,0,.09a2.39,2.39,0,0,1,.15.37l-.09-.34a1.52,1.52,0,0,1,.06.42v-.33a1.52,1.52,0,0,1-.06.42l.09-.3a2.55,2.55,0,0,1-.33.66l.18-.27a2.65,2.65,0,0,1-.55.61l.26-.19a1.44,1.44,0,0,1-.39.2l.3-.09a1.2,1.2,0,0,1-.2,0h.17l.35.08-.1,0q.39.21.21.09l.31.25a.47.47,0,0,1-.1-.1l.26.31c-.12-.16.12.34.09.19s0-.08,0-.12l.09.35a1.49,1.49,0,0,1,0-.21v.34a2.7,2.7,0,0,1,0-.28l-.09.31c0-.06.05-.13.08-.19l-.18.26.13-.12-.26.19.16-.07-.31.1a1,1,0,0,1,.29,0h-.33l.7,0a1.15,1.15,0,0,0,.9-.29,1.08,1.08,0,0,0,.26-.91,1.76,1.76,0,0,0-1.52-1.47Z"/></g><g class="cls-5"><path class="cls-7" d="M41.36,114.78a2.43,2.43,0,0,0-1.94.79,2,2,0,0,0-.55,1.05,5.13,5.13,0,0,0,0,1v-.34a3.75,3.75,0,0,0,.16,1.29,3.18,3.18,0,0,0,.68,1.09,2.83,2.83,0,0,0,2,.92,3.43,3.43,0,0,0,1.93-.59,4.89,4.89,0,0,0,1.47-1.5,2.69,2.69,0,0,0,.3-2.24,2.91,2.91,0,0,0-2.46-1.8c-.23,0-.47,0-.7,0a2.87,2.87,0,0,0-1,0,1.5,1.5,0,0,0-1.06.83,3.54,3.54,0,0,0-.23.89,3,3,0,0,0,.84,2.54,2.1,2.1,0,0,0,3.08.07l-.26.19a8.78,8.78,0,0,0,1-.73,3.59,3.59,0,0,0,.66-1,2.66,2.66,0,0,0-.7-3.07,2.17,2.17,0,0,0-3-.18,2.8,2.8,0,0,0-.64,2.19,1.79,1.79,0,0,0,1.53,1.48,1.05,1.05,0,0,0,1.16-1.21,1.09,1.09,0,0,1,0-.18v.33a2,2,0,0,1,.08-.53l-.09.31a1.69,1.69,0,0,1,.2-.43l-.18.26a.82.82,0,0,1,.24-.25l-.26.19a.64.64,0,0,1,.18-.1l-.3.1a.41.41,0,0,1,.16,0h-.34a.53.53,0,0,1,.18,0l-.34-.08c.17,0,.23.16-.1-.07.07,0,.14.08.21.14l-.32-.25a.91.91,0,0,1,.17.17l-.25-.31s.17.28,0,0,0,0,0,0l-.09-.34a1.27,1.27,0,0,1,0,.28v-.34a1.41,1.41,0,0,1,0,.35l.09-.31a2.69,2.69,0,0,1-.32.66l.18-.26a2.54,2.54,0,0,1-.6.58l.26-.18c-.26.18-.51.35-.76.54l.26-.19a1.82,1.82,0,0,1-.36.2l.3-.1-.17,0H42l-.17,0,.34.08c-.21-.07.37.23.1,0l.32.24a.75.75,0,0,1-.16-.15l.26.31-.06-.09c-.08-.13,0-.06.09.18,0-.07-.06-.14-.08-.21l.09.34a1.75,1.75,0,0,1,0-.33v.34a2.87,2.87,0,0,1,.11-.77l-.09.3a1.07,1.07,0,0,1,.12-.27l-.18.27.1-.1-.26.19.13-.06-.3.1a1,1,0,0,1,.3,0h-.33c.2,0,.39,0,.59,0a3.16,3.16,0,0,1,.69,0l-.34-.08.21.07c-.24-.12-.3-.15-.18-.07l.11.07-.32-.24a.67.67,0,0,1,.15.14l-.25-.3c0,.05.14.22,0,0s0-.07,0,0l-.09-.35a1,1,0,0,1,0,.17v-.34a1.41,1.41,0,0,1,0,.35l.09-.31a3,3,0,0,1-.37.81l.18-.27a3.85,3.85,0,0,1-.85.86l.26-.19a3.21,3.21,0,0,1-.86.45l.31-.1a1.84,1.84,0,0,1-.51.1h.34a2.43,2.43,0,0,1-.38,0l.35.07c-.08,0-.17-.06-.24-.07s.35.19.21.1l-.12-.08.32.24a1.21,1.21,0,0,1-.2-.19l.25.3c-.11-.14-.13-.33,0,.09,0-.08-.06-.15-.08-.23l.09.34a1.54,1.54,0,0,1-.06-.43v.34c0-.3,0-.59,0-.88v.33a1,1,0,0,1,0-.25l-.09.31a.72.72,0,0,1,.12-.25l-.18.26a1.85,1.85,0,0,1,.4-.39l-.26.19a1.47,1.47,0,0,1,.48-.25l-.31.09a.76.76,0,0,1,.21,0h-.23a1,1,0,0,0,1.16-1.21,1.8,1.8,0,0,0-1.52-1.47Z"/></g><g class="cls-5"><path class="cls-7" d="M15.58,141.92v-.29a.76.76,0,0,1,0,.21l.09-.31a3.71,3.71,0,0,1-.26.53,2.4,2.4,0,0,0-.2.91,5.21,5.21,0,0,0,.19,2,3,3,0,0,0,1.69,1.71,2.22,2.22,0,0,0,1.08.11,2.14,2.14,0,0,0,1-.5,2.72,2.72,0,0,0,.6-.75,2.23,2.23,0,0,0,.25-1.19,3.12,3.12,0,0,0-.92-1.86,2,2,0,0,0-2.24-.67,1.76,1.76,0,0,0-.84.94,3.61,3.61,0,0,0-.25,1.56,2.83,2.83,0,0,0,.14.75,2.24,2.24,0,0,0,.59.9,1.81,1.81,0,0,0,1,.48,1.1,1.1,0,0,0,.9-.29,1.41,1.41,0,0,0-.25-1.9.08.08,0,0,1,0,0l.25.31-.06-.1.17.33-.06-.15.09.34a1.58,1.58,0,0,1,0-.38v.34a2.59,2.59,0,0,1,.09-.68l-.08.31a1.51,1.51,0,0,1,.21-.49l-.18.26a.81.81,0,0,1,.16-.16l-.26.19.11-.06-.31.1.1,0H18l-.34-.08.08,0-.34-.17.14.09-.31-.24.19.19-.26-.31a2,2,0,0,1,.26.39l-.17-.34a2.18,2.18,0,0,1,.09.23l-.09-.34a1,1,0,0,1,0,.24v-.34a2.36,2.36,0,0,1,0,.28l.08-.31a1.33,1.33,0,0,1-.18.38l.18-.27a2,2,0,0,1-.39.42l.25-.19a1.51,1.51,0,0,1-.28.15l.3-.1-.21,0h.34l-.2,0,.34.08-.16-.06.34.17-.17-.11.32.25-.16-.15.26.31a1.07,1.07,0,0,1-.15-.22l.18.33a1.34,1.34,0,0,1-.12-.3l.09.35a3.73,3.73,0,0,1-.06-.88v.33a2.75,2.75,0,0,1,.05-.7l-.09.31a4.59,4.59,0,0,1,.24-.5,2.2,2.2,0,0,0,.2-1.1,1.71,1.71,0,0,0-.52-1,1.68,1.68,0,0,0-1-.48,1.08,1.08,0,0,0-.89.29l-.19.27a1.26,1.26,0,0,0-.08.64Z"/></g><g class="cls-5"><path class="cls-8" d="M141.42,119.4c-.55,0-1.11,0-1.66,0l1,2.66a3.9,3.9,0,0,0,2.54-1.76,1.07,1.07,0,0,0,.27-.58,1.45,1.45,0,0,0-.1-.68,1.78,1.78,0,0,0-1.08-1,5.09,5.09,0,0,0-3.09.11,2,2,0,0,0-1.1.92c-.11.2-.13.42-.26.62l.19-.27a1.86,1.86,0,0,1-.27.29,1.08,1.08,0,0,0-.27.91,1.74,1.74,0,0,0,.52,1,1.72,1.72,0,0,0,1,.49,1.21,1.21,0,0,0,.9-.3,1.91,1.91,0,0,0,.56-.78,2.23,2.23,0,0,1,.18-.45l-.18.26a1.21,1.21,0,0,1,.16-.16l-.26.19a2,2,0,0,1,.5-.25l-.3.1a4.44,4.44,0,0,1,1.08-.18h-.33a4,4,0,0,1,.84.08l-.35-.08.13,0-.91-2.31a4.93,4.93,0,0,1-1,1.08l.26-.19a2.29,2.29,0,0,1-.64.33l.3-.1a1.14,1.14,0,0,1-.32.07,1,1,0,0,0-.75.55,1.31,1.31,0,0,0,0,1,1.77,1.77,0,0,0,1.77,1.12l.44,0h.55a1,1,0,0,0,1.17-1.2,1.72,1.72,0,0,0-.53-1,1.67,1.67,0,0,0-1-.49Z"/></g><g id="Layer_2-2" data-name="Layer 2"><g id="Layer_1-2-2" data-name="Layer 1-2"><g id="_7PgUHH.tif" data-name=" 7PgUHH.tif"><path class="cls-9" d="M106.26,90.93c-.14-.36.14-.22.28-.26a1.66,1.66,0,0,1,1-.2c.25,0,.42-.25.66-.34s.42-.28.54.1c0,.11.15.1.17,0,.13-.35.52-.1.71-.32,0,0,.21,0,.3,0,.25.09.43.09.51-.22,0-.15.22-.2.37-.22s0,.25.16.29-.06-.67.4-.25h.08c.26-.63,1-.4,1.38-.7.18-.12.35,0,.51,0,.46.06.86-.25,1.32-.14a.29.29,0,0,0,.35-.21.29.29,0,0,0,0-.13c0-.24-.09-.43-.35-.42a1.5,1.5,0,0,1-1.1-.4c-.31-.32-.71-.15-.9-.3s-.59-.23-.82-.44-.12-.34-.45-.21-.52-.23-.8-.32a11,11,0,0,1-1.74-.63l-.85-.37a8.21,8.21,0,0,0-2-.65.21.21,0,0,1-.16-.08c-.29-.45-.79-.49-1.25-.62-.65-.17-1.22-.52-1.85-.75,0,0-.1,0-.08-.08.23-.45-.3-.31-.4-.5a.13.13,0,0,0-.16-.06.17.17,0,0,0-.06.06c-.07.31-.24.21-.44.15-1.07-.36-2.15-.72-3.21-1.13-.79-.3-1.63-.49-2.42-.8a2.92,2.92,0,0,1-1.27-.63c-.13-.16-.41,0-.57-.2-.42-.42-1-.26-1.52-.55a4.33,4.33,0,0,0-1.88-.66c-.17,0-.26-.22-.48-.21a1.58,1.58,0,0,0-1.29,1c-.3.82-.64,1.63-1,2.42-.5,1.09-1,2.19-1.46,3.26a13.33,13.33,0,0,1-1,2A7.54,7.54,0,0,0,84.67,89,30.54,30.54,0,0,1,83,92.52c-.28.54-.54,1.1-.77,1.66a8.63,8.63,0,0,1-.92,2A2.8,2.8,0,0,0,81,97.3c0,.17.1,0,.14.07.31.16.51.39.29.74-.1.16-.06.18.07.25s.51.25.49.61a.21.21,0,0,0,.09.13,1.65,1.65,0,0,1,.75,1.66,10.66,10.66,0,0,1-.52,2.57,3.08,3.08,0,0,1-.63,1.4c-.11.12,0,.3,0,.46a3.16,3.16,0,0,0,1,1.36,22.14,22.14,0,0,1,1.69,1.94,20.69,20.69,0,0,1,1.68,1.83,3.15,3.15,0,0,0,1,.78,1.78,1.78,0,0,1,.5.44A5,5,0,0,0,89,112.73a.81.81,0,0,1,.29.26,6.84,6.84,0,0,0,1.82,1.7,16.25,16.25,0,0,1,2.9,2.58,3.88,3.88,0,0,0,1.06,1h0c.3.94,1.27,1.29,1.8,2.06.29.43.84.71,1.22,1.12.7.64,1.37,1.3,2,2a2.69,2.69,0,0,0,.69.57c.74.47,1.1,1.28,1.67,1.9.28.31.58.58.88.86a7.68,7.68,0,0,1,1.4,1.39.53.53,0,0,0,.72.23,4.23,4.23,0,0,1,3.23.35c.46.23.82.57,1.26.82a.86.86,0,0,1,.4,1.14.22.22,0,0,1,0,.08,1.07,1.07,0,0,0-.07.39,2.11,2.11,0,0,1-.58,1.45,11.68,11.68,0,0,1-1,1.21A5.52,5.52,0,0,1,106,135.3a2,2,0,0,1-1.54-.34,6.83,6.83,0,0,0-3.17-1c-.44-.05-.81-.32-1.29-.27a8.38,8.38,0,0,1-3.06-.43,22.43,22.43,0,0,0-3.47-.46,8.07,8.07,0,0,1-2.06-.39,8.31,8.31,0,0,0-1.22-.16,20.78,20.78,0,0,0-3.15-.34c-.28,0-.7.08-.59-.56-.67.65-1.34.15-2,.21-1,.08-1.88-.26-2.84-.19-.22,0-.6.09-.58-.37,0-.08-.15-.07-.19,0-.33.3-.69.21-1.08.16-1-.12-1.93-.5-2.92-.56s-1.68-.57-2.61-.44a1.56,1.56,0,0,1-1-.26c-.4-.25-.63,0-.86.16a10.71,10.71,0,0,1-2.43,1.56,1.45,1.45,0,0,1-1.37,0c-.2-.11-.4-.24,0-.42.08,0,.1-.11,0-.18s-.2-.13-.28-.05c-.31.29-.43.05-.58-.17s-.34-.42-.49-.65a2,2,0,0,1-.22-1.08c0-.53.28-1.09,0-1.56a2.11,2.11,0,0,0-1.23-1.11,1.06,1.06,0,0,1-.54-.37c-.16-.22-.46-.18-.68-.28a8,8,0,0,0-1.29-.49,7.66,7.66,0,0,1-1.6-.58,6.8,6.8,0,0,0-1.32-.51,4,4,0,0,1-1.29-.42c-.33-.2-.78-.13-1.13-.36-.52-.34-1.18-.4-1.66-.86-.32-.31-.85-.26-1.25-.48h-.17a1.76,1.76,0,0,0-1.19-.39,12.41,12.41,0,0,1-2.7-.9,3.76,3.76,0,0,0-.94-.27,3.84,3.84,0,0,1-1.65-.48c-.91-.5-1.88-.87-2.83-1.3a.81.81,0,0,0-1,.16.51.51,0,0,1-.39.32c-.37,0-.58.39-.9.45a6.5,6.5,0,0,1-1.08.24,1.71,1.71,0,0,1-1-.06.59.59,0,0,0-.8.27h0a2.7,2.7,0,0,1-1.19,1,.59.59,0,0,0-.32.3A4.74,4.74,0,0,1,37.28,123c-.28.23-.39.58-.69.81a3.38,3.38,0,0,0-.88,1.18,2.06,2.06,0,0,1-.44.49,13,13,0,0,0-1,1.45s0,.07-.06.07c-.48-.11-.5.44-.8.57s-.49.5-.78.69a7.61,7.61,0,0,0-1.17,1.17,15,15,0,0,1-1.28,1.24,5.86,5.86,0,0,0-1.11,1.17,2.75,2.75,0,0,1-.74.62c-.35.3-.49.74-.85,1-.06,0-.11.11-.18.13-.38.12-.55.42-.79.7s-.26.83-.79.82h-.06a12.22,12.22,0,0,1-2.12,2.25,5.39,5.39,0,0,0-.53.54c-.11.12-.14.34-.41.2-.08,0-.31.1-.13.32a.25.25,0,0,1-.11.46c-.15.08-.25.23-.38.3-.45.25-.7.72-1.16,1h-.07c-.77,0-.85.78-1.28,1.16s-.29,1-.18,1.47a2.89,2.89,0,0,1-.26,2,2.24,2.24,0,0,1-2.36,1.07,2.68,2.68,0,0,1-1.5-1.94c0-.13.08-.19.14-.27s.1-.16,0-.19c-.58-.18-.2-.55-.15-.83v-.4a1.45,1.45,0,0,1,.91-1.37.14.14,0,0,0,.12-.06c.19-.21.32-.51.66-.46a1.58,1.58,0,0,1,1,.6c.28.38.5.23.66,0a3.17,3.17,0,0,1,1.06-1c.51-.26.78-.81,1.34-1s.53-.77.85-1.1a5.1,5.1,0,0,1,1.4-1.3c.16-.07.17-.25.28-.34a4.2,4.2,0,0,0,1.5-1.49c.18-.36.74-.64,1-1a3.84,3.84,0,0,1,1.42-1.23h0a6,6,0,0,1,1.73-1.65c.28-.25.42-.59.67-.85s.32-.5.57-.65a29.77,29.77,0,0,0,2.52-2.25c.21-.16.31-.47.56-.66a1,1,0,0,1,.57-.25c.23,0,.28-.33.32-.5a1,1,0,0,1,.27-.54c.45-.4.59-1,1.13-1.36.18-.11.24-.38.38-.55A27.8,27.8,0,0,1,39.26,120a2.76,2.76,0,0,0,.53-.55c.38-.51,0-.87-.27-1.25a1.79,1.79,0,0,0-1.57-.87,5.1,5.1,0,0,1-1.81-.27,4.25,4.25,0,0,0-1.62-.32c-.53,0-.87-.47-1.34-.66-.12,0,0-.19,0-.28a.17.17,0,0,0-.1-.22h0c-.09,0-.17-.06-.25,0-.39.41-.87.18-1.26.07s-.85-.19-1.28-.25c-.23,0-.48.06-.63-.21a.16.16,0,0,0-.2-.07,2.57,2.57,0,0,1-1.73-.1,10.87,10.87,0,0,1-1.66-.49c-.49-.17-1.07-.17-1.36-.7-.31.18-.6,0-.91,0a1.34,1.34,0,0,1-.88-.26c-.13-.12-.31-.08-.48-.09a2.52,2.52,0,0,0-.3,0c-.14-.46-.45-.16-.68-.16a3.7,3.7,0,0,0-.85.07c-.28.07-.22.15-.29.26a2.44,2.44,0,0,1-.94.89,2.74,2.74,0,0,1-2,.47,2.78,2.78,0,0,1-1.42-.71A4.09,4.09,0,0,1,14.62,111a3.86,3.86,0,0,1,.2-1,5.21,5.21,0,0,1,.88-1.21,1.86,1.86,0,0,1,1.38-.61,3.05,3.05,0,0,1,1.44,0,1.21,1.21,0,0,0,.69.18c.24,0,.34,0,.39-.28a.73.73,0,0,1,.42-.53.3.3,0,0,0,.23-.2c.13-.81.82-1.25,1.21-1.88s.55-1,.87-1.55a6.06,6.06,0,0,1,1-1.31,11.26,11.26,0,0,0,1.41-2c.36-.46.82-.79,1.14-1.26H26c0-.54.59-.65.69-1.09h0c.85-.67,1.11-1.84,2.07-2.4.19-.12.2-.33.25-.52a3.05,3.05,0,0,1,1.15-1.73,1.81,1.81,0,0,0,.41-.86,2,2,0,0,1,.37-.65,1.64,1.64,0,0,0,.59-1c0-.29.34-.58.54-.84.55-.7.78-1.57,1.29-2.28a.28.28,0,0,0-.05-.37,3.58,3.58,0,0,1-1-1.63.6.6,0,0,0-.68-.45,4.24,4.24,0,0,1-1.32-.17c-.15,0-.1-.45-.37-.17s-.34-.12-.52-.18a.4.4,0,0,1-.37.43.26.26,0,0,1-.15,0,.51.51,0,0,1-.13-.09c.28-.51-.22-.12-.3-.25s-.28-.14-.32,0,.15.24.31.25h-.12l-1.51-.11c-.21,0-.23-.19-.32-.45-.12.44-.39.45-.62.37s-.62.06-.8-.33c-.07-.15-.24,0-.3.09s-.09.23-.25.17-.44-.48-.67,0c-.28-.26-.78,0-1-.41s-.3-.25-.44,0-.1.16-.22,0-.1-.11-.21.07-.19.27-.36.09h0a3.21,3.21,0,0,1-1.31,0c-.21,0-.44.2-.67,0h-.15a13.53,13.53,0,0,1-2.29.29,6.23,6.23,0,0,1-2.11,0,3.38,3.38,0,0,0-1,.12,2.06,2.06,0,0,1-1.3,0c-.28-.1-.64.14-1,.12-.13,0-.33.07-.39,0-.25-.37-.52-.12-.75,0a2.41,2.41,0,0,1-1,0c-1.1-.08-2.21.1-3.31-.06a1,1,0,0,0-1.1.43,3,3,0,0,1-2,1.43h0c-.2-.36-.57,0-.79-.18s-.49-.2-.75-.29C.5,86.12,0,85.62.43,84.43a3,3,0,0,1,1.23-1.7,2.44,2.44,0,0,1,1.17-.37,10.18,10.18,0,0,1,1.56.06.34.34,0,0,0,.43-.24s0,0,0,0c.23-.83,1-1.14,1.56-1.59.2-.14.45-.22.54-.53a.47.47,0,0,1,.57-.32l.13.06c-.16-.61.33-.85.61-1.14A16.35,16.35,0,0,1,10,77.11a3.7,3.7,0,0,1,1.47-.73.17.17,0,0,0,.18-.15c0-.15.09-.19.23,0s.21.19.29-.07a.25.25,0,0,1,.14-.16c.47-.18.77-.6,1.22-.83a2,2,0,0,1,.51-.23.8.8,0,0,0,.66-.4.6.6,0,0,1,.36-.26,12,12,0,0,0,3-1.64c.28-.18.85-.21.81-.78.69-.18,1.05-1,1.83-1,.14,0,.19-.06.26-.17a3,3,0,0,1,1.64-1.25.41.41,0,0,0,.23-.13,18.25,18.25,0,0,1,2.33-1.79c.59-.42,1-1.06,1.59-1.4.15-.08.28-.22.43-.25.72-.13.88-.72,1.08-1.28a.26.26,0,0,0-.05-.3c-.44-.43-.26-.89-.13-1.39a8.5,8.5,0,0,1,.53-1.46.31.31,0,0,1,.14-.23c.54-.32.49-.84.47-1.35s0-.89,0-1.34c0-.14,0-.33.18-.35s.22.08.29.21a14.11,14.11,0,0,1,.67,1.35.36.36,0,0,0,.43.28h0A1.25,1.25,0,0,0,32,58.91c.28-1.44.71-2.84,1.06-4.26.06-.27-.09-.62.32-.74a.43.43,0,0,0,0-.16,2.87,2.87,0,0,1,.1-1.83,21.29,21.29,0,0,0,.32-2.4,9.05,9.05,0,0,1,.42-2.3c.11-.19-.1-.46,0-.73.19-.72.25-1.46.42-2.19a5.65,5.65,0,0,0-.06-1,1.28,1.28,0,0,1,.16-.6c.09-.18.25-.3,0-.55s.09-.39.24-.53a.37.37,0,0,0,.08-.51.56.56,0,0,1-.06-.52.41.41,0,0,0-.12-.58l-.1,0c-.54-.28-.85-.83-1.36-1.15-.1-.06-.26-.17-.22-.31.12-.42-.12-.47-.47-.44.11-.16.51-.29,0-.39a1.92,1.92,0,0,1-1.31-1.27.27.27,0,0,0-.13-.22,6.25,6.25,0,0,1-1.72-2,2.65,2.65,0,0,0-1-.71,1.45,1.45,0,0,1-.52-.4c-.29-.41-.82-.58-1-1.08-.05-.13-.23-.07-.31,0a1.47,1.47,0,0,1-.77.32c-.56.16-.91.54-.79,1.11a15,15,0,0,1,.19,2,15.84,15.84,0,0,0,.32,2.28c.2.82.26,1.67.53,2.49a2.93,2.93,0,0,1,.29,1.33,1.66,1.66,0,0,0,.24,1,3.59,3.59,0,0,1,.47,2c.08,1,.44,2,.61,3,.14.79.47,1.53.55,2.3.07.6.26,1.16.37,1.74s.27,1.24.42,1.86a10.4,10.4,0,0,1,.24,1.74c0,.48.36.86.39,1.35a2.24,2.24,0,0,1,0,.73c-.07.26-.22.5.11.74-.54.07-.72-.17-.82-.59-.29-1.21-.47-2.46-.79-3.66-.2-.75,0-1.61-.57-2.26a.4.4,0,0,1-.05-.22c0-1-.59-2-.64-3a1.18,1.18,0,0,0-.21-.49c-.1-.17-.2-.32,0-.44,0,0,.1,0,.06-.09-.27-.31-.14-.76-.36-1.08a.66.66,0,0,1-.15-.41,8.05,8.05,0,0,0-.29-2,14.52,14.52,0,0,0-.42-1.45A4.57,4.57,0,0,1,25.49,41c0-.3-.34-.53-.12-.84-.47-.59-.17-1.37-.52-2a4.56,4.56,0,0,1-.23-1.11,4.76,4.76,0,0,1-.21-1.68c0-.24-.3-.32-.28-.58s0-.56,0-.84a5.62,5.62,0,0,0-.09-.57c0-.26-.15-.33-.39-.31a2.87,2.87,0,0,1-2.51-1.34,1.87,1.87,0,0,1-.6-1.3,2.38,2.38,0,0,1,.72-1.62,8.33,8.33,0,0,0,.61-1c.23-.34.72-.8,1-1.24a1,1,0,0,1,1.22-.28c.42.14.87-.05,1.27.18.09.05.18-.08.24-.17a5.88,5.88,0,0,1,.81-1.3c.57-.54.61-1.48,1.42-1.83A.21.21,0,0,0,28,23c.1-.57.57-.88.88-1.3A18.32,18.32,0,0,0,30,20.13a6.64,6.64,0,0,1,.55-.64,9.6,9.6,0,0,0,1.58-1.84s0-.11.07-.12c.52-.16.42-.71.66-1.05a11.25,11.25,0,0,1,.94-1.35c.36-.38.48-1,1.15-1.06a.24.24,0,0,0,0-.12c-.19-.49.18-.86.32-1.27s.47-.41.73-.6.48-.29.52-.66.23,0,.34,0-.2-.66.35-.36a.07.07,0,0,0,.09,0c0-.18.07-.25.24-.31s.24-.2,0-.3-.15-.24,0-.29c.39-.11.63-.45,1-.57h.08c.1-.08,0-.35.22-.28s.17.34.23.51-.15.23-.28.3a3,3,0,0,1-.41.18c-.23.08-.44.16-.37.49a.29.29,0,0,1-.11.28c-.58.26-.69.91-1.12,1.29a6.79,6.79,0,0,0-1.28,1.5,9.59,9.59,0,0,1-1.13,1.62,9.79,9.79,0,0,0-1.11,2,.31.31,0,0,1-.12.23c-.9.44-1.15,1.48-1.93,2-.2.16-.18.55-.44.78a7.84,7.84,0,0,0-1.47,2.14c-.17.31-.61.45-.82.8-.49.84-1,1.68-1.49,2.53-.22.38.26.51.37.77.24.54.78.85,1,1.45.12.43.29.86.37,1.3a.22.22,0,0,0,.21.2c.37.05.71.21,1.08.27a9.27,9.27,0,0,1,1.28.46,14.77,14.77,0,0,0,1.58.6c.58.15,1.32.44,2,.66a6.09,6.09,0,0,1,1.5.53c.17.12.21-.08.27-.19a6.15,6.15,0,0,0,.37-1.4,22.73,22.73,0,0,0,.73-3.37c.16-1.06.57-2.05.68-3.11a5.46,5.46,0,0,1,.22-1.26c.08-.22.26-.31.48-.43s-.35-.16-.23-.47c.18-.46.27-.95.43-1.41A6.75,6.75,0,0,0,39.75,19a4.35,4.35,0,0,1,.58-1.47c.08-.15.41-.4,0-.61-.08,0,0-.13,0-.2.27-.93.52-1.87.8-2.79a12.85,12.85,0,0,1,.57-1.4c.06-.13.12-.26.17-.4.13-.34.12-.73.45-1a.6.6,0,0,0,.14-.5c-.14-.59.26-1,.39-1.52s.59-.88.63-1.42c0-.08.06-.16,0-.22a5.78,5.78,0,0,0-1-1.71c-.12-.12-.16-.07-.25,0a3.08,3.08,0,0,0-.94,1.15,1.45,1.45,0,0,1-.33.51c-.62.53-.84,1.35-1.39,1.94-.13.15-.26.3-.43.15s-.07-.24.08-.4a1.67,1.67,0,0,0,.33-.8,1,1,0,0,1,.58-.85c.24-.1.15-.31.25-.44.52-.69.68-1.59,1.29-2.21s.61-1.33,1-2A4.81,4.81,0,0,1,45.93.52,1.83,1.83,0,0,1,47.42,1a2.6,2.6,0,0,1,.68.87.88.88,0,0,1,.12.8c-.13.28.08.49.12.73a4,4,0,0,1-.18,1.45,3.59,3.59,0,0,1-1.74,2.53.69.69,0,0,0-.29.47c-.1.42.18.87-.11,1.27v.11c.48.14.32.6.45.9a.31.31,0,0,1-.15.41l-.06,0a1,1,0,0,1-.64,0c-.08,0-.06-.12,0-.19.21-.25.06-.43-.16-.53s-.23-.23,0-.34a.13.13,0,0,0,.12-.16.16.16,0,0,0-.19-.12C45.11,9.18,45,9,45,8.8a.84.84,0,0,0-.07-.26c-.07-.17-.15-.37-.34-.39s-.3.18-.39.37c-.34.69-.72,1.36-1,2.08a4.34,4.34,0,0,0-.14.6.83.83,0,0,1-.29.53c-.37.3-.36.8-.44,1.18-.23,1.06-.68,2-.92,3.09a17.35,17.35,0,0,1-.61,1.89,6,6,0,0,0-.44,1.72,4.22,4.22,0,0,1-.51,1.91,6.58,6.58,0,0,0-.28.93c-.21.63-.28,1.3-.53,1.91a3.49,3.49,0,0,0-.07.85c-.07.62-.28,1.19-.39,1.78A5,5,0,0,1,38,29.14c-.19.25,0,.51-.05.78-.11.68-.41,1.3-.47,2,0,.35,0,.53.38.62s1,.37,1.45.5c.68.18,1.33.47,2,.61a1.51,1.51,0,0,1,.87.31.23.23,0,0,0,.29,0h.2c0,.44.38.23.55.22a5.29,5.29,0,0,1,1.11.27,4.56,4.56,0,0,1,1.78.46h.31c.1,0,.21-.08.25,0,.29.62.84.19,1.25.3a6.14,6.14,0,0,0,.93.19,2.13,2.13,0,0,1,.9.22c.29.32.64.13.93.27a3.38,3.38,0,0,0,1.66.24,6.34,6.34,0,0,1,1.15.14c.37.06.66.09.88-.38a2.71,2.71,0,0,1,1.73-1.24c.53-.17.5-.2.33-.7s-.57-.84-.62-1.37c0-.06-.09-.13,0-.2.2-.25.09-.47-.06-.69a.16.16,0,0,1,0-.22v0c.08-.06.14,0,.2.05a1.5,1.5,0,0,1,.69.84c.18.39.32.83.48,1.24a2,2,0,0,0,1.23,1.23L59,35a1,1,0,0,0,.79,0c.64-.33,1.39-.36,2-.66a17.3,17.3,0,0,1,2.45-.64A22,22,0,0,0,67.13,33a1.39,1.39,0,0,1,1-.13.16.16,0,0,0,.19-.06,2,2,0,0,1,1.09-.36c.68-.11,1.33-.36,2-.44a8.45,8.45,0,0,0,1.85-.44h.13c.7.4,1.28-.17,1.92-.26.89-.11,1.73-.45,2.64-.49A2.7,2.7,0,0,0,79,30.49a14.47,14.47,0,0,1,1.47-.4.26.26,0,0,1,.21,0,.59.59,0,0,0,.79-.15,1.15,1.15,0,0,1,.69-.26,12.12,12.12,0,0,0,1.47-.36,14.82,14.82,0,0,1,1.56-.39,4.12,4.12,0,0,0,1.55-.31,3.1,3.1,0,0,1,.85-.2c.93-.15,1.72-.75,2.68-.74.44,0,.77-.29,1.18-.38q1.88-.42,3.78-.66c.34,0,.68-.31,1-.18a1.89,1.89,0,0,0,1.58-.27H98c1.25-.06,2.41-.59,3.67-.68a7,7,0,0,0,2.13-.33c1.43-.55,3-.37,4.41-1,.36-.17.49.22.59.45s-.18.32-.35.34c-.42.05-.83.4-1.28.08H107c-.36.61-1,.34-1.53.5a14.82,14.82,0,0,1-3.1.55,22.21,22.21,0,0,0-2.27.45c-1,.21-2.07.44-3.12.64s-2,.24-2.93.51c-.07,0-.18.06-.21,0-.32-.39-.58,0-.88.05-.9.19-1.75.55-2.69.66a2.51,2.51,0,0,0-1.41.4.93.93,0,0,1-1,.09c-.07,0-.11-.08-.19,0a3.08,3.08,0,0,1-1.63.57c-.26.07-.52.15-.77.24-.94.26-1.92.41-2.85.7-.42.13-1,0-1.3.44a.29.29,0,0,1-.33.07,3.5,3.5,0,0,0-1.54.13c-.62.19-1.23.37-1.85.53-.39.1-.77.33-1.17,0,0,0-.11,0-.13,0-.31.36-.84.08-1.15.42a1.22,1.22,0,0,1-.84.26c-.67.11-1.34.24-2,.41s-1.16.32-1.75.46c-.06,0-.13.08-.17.06-.64-.29-1.08.25-1.61.39a4.75,4.75,0,0,1-1,.17,9.67,9.67,0,0,0-1.83.48c-.55.13-1.1.26-1.64.41a2.59,2.59,0,0,1-1.29.18c-.15,0-.21.23-.39.27a4.33,4.33,0,0,1-1,.26c-.43,0-.59.3-.48.73s.21.76.34,1.13c.23.56.8.6,1.28.73s.84.16,1.11.56.42,0,.65.14a20.91,20.91,0,0,0,1.86,1c.43.16.86.33,1.3.47.2.06.42.06.5.3a.12.12,0,0,0,.11.08c.46-.13.75.3,1.17.35a24.73,24.73,0,0,1,4.14,1.35c.38.12.71.4,1.11.53l2.31.74c.23.08.49.12.6.4,0,.11.16.13.27.12a6.29,6.29,0,0,1,3.22.69,18.28,18.28,0,0,0,2.29,1,6.61,6.61,0,0,0,1.73.46,3.81,3.81,0,0,1,1.87.49,9.81,9.81,0,0,0,2.9.82.44.44,0,0,0,.46-.14,1,1,0,0,1,.71-.35h.08a2.49,2.49,0,0,1,2-.39,3,3,0,0,1,1.31.5c.26.2.54,0,.7-.23a10.47,10.47,0,0,0,.94-1.15,3.86,3.86,0,0,1,1.27-1.45A3.76,3.76,0,0,0,98.47,43a.73.73,0,0,1,.39-.22c.2,0,.28-.15.32-.39s.43-.54.72-.73.52-.27.61-.6a.25.25,0,0,1,.14-.16c.67-.27.89-1,1.4-1.38.18-.14.21-.35.34-.51.29-.39.82-.5,1-1s.71-.57,1-.91a5.29,5.29,0,0,1,1.38-1.33c.53-.35.79-.89,1.25-1.27a5.24,5.24,0,0,1,1.12-.81c.23-.1.34-.52.74-.46,0,0,.06-.09.05-.11-.29-.35.11-.4.25-.52a6.48,6.48,0,0,0,1.58-1.51.66.66,0,0,1,.23-.21,6.93,6.93,0,0,0,1.94-1.95c.45-.59,1.18-.84,1.54-1.52s.84-.85,1-1.46c.1-.32.52-.35.76-.59a16.1,16.1,0,0,1,1.59-1.61c.27-.2.39-.62.72-.82a.13.13,0,0,0,0-.18l0,0a.49.49,0,0,0-.45-.14,19,19,0,0,1-2.24.49,6.65,6.65,0,0,1-1.47.25c-.27,0-.3.24-.5.3a9.25,9.25,0,0,1-1.87.44c-.84.09-1.61.43-2.46.46a1.16,1.16,0,0,1-.73-.34.13.13,0,0,1,0-.19.15.15,0,0,1,.09-.06,1.33,1.33,0,0,1,.55-.15c.75.09,1.38-.37,2.09-.44a9.17,9.17,0,0,0,2-.44c.17-.05.43-.18.58.13,0,.1.14.05.21,0a2.1,2.1,0,0,1,1.05-.55,20.46,20.46,0,0,1,2.32-.52.58.58,0,0,0,.56-.62.4.4,0,0,0,0-.15c-.38-.91.18-1.5.66-2.08a1.16,1.16,0,0,0,.07-1.75,9.24,9.24,0,0,0-1.24-1.56,1.08,1.08,0,0,1-.2-.4c0-.05,0-.15-.09-.13-.49.25-.49-.26-.71-.44a8.67,8.67,0,0,1-1.72-2,18.92,18.92,0,0,0-1.7-2,.66.66,0,0,0-.79-.25.64.64,0,0,1-.73-.21,2.28,2.28,0,0,0-1.22-.81c-.33-.06-.65-.47-.86-.79a4.71,4.71,0,0,1-.75-2.88,1.67,1.67,0,0,1,.45-1.14c.26-.26.48-.56.75-.83a3.09,3.09,0,0,1,2.36-.89,3.87,3.87,0,0,0,.83-.12,9,9,0,0,1,1.72.23c.13,0,.19.13.28.21a2,2,0,0,0,1.6.5,3.8,3.8,0,0,1,1.54.1,1.62,1.62,0,0,0,.62,0,1.13,1.13,0,0,1,.72.18c.39.32.81-.06,1.21,0s.74-.1,1.11.08c.16.08.34.1.43.28s.14.15.16.14c.39-.25.79,0,1.21,0a2.53,2.53,0,0,1,1.63,0,2.1,2.1,0,0,0,1.11.08,3,3,0,0,1,.84,0,10.6,10.6,0,0,0,2.81.16c.5,0,1,.12,1.45.13a11.31,11.31,0,0,0,2.4-.16,7.21,7.21,0,0,1,1.32.15c.89,0,.81-.12,1.12-.83a2.56,2.56,0,0,1,1.54-1.56,2.51,2.51,0,0,1,1.58,0,2.45,2.45,0,0,1,1.31.92,2.72,2.72,0,0,1,.29,3,3.59,3.59,0,0,1-1.23,1.13,3.81,3.81,0,0,1-2.4.71.92.92,0,0,0-.84.49A8.59,8.59,0,0,1,135.28,11c-.51.44-1.11.78-1.61,1.23a18.83,18.83,0,0,0-2.2,2.52c-.5.65-1.07,1.25-1.61,1.86-.34.39-.7.78-1.06,1.15-.05,0-.08.4-.3.09-.05-.06-.26.17-.28.34a.82.82,0,0,1-.35.61,2.89,2.89,0,0,0-1,2,4,4,0,0,1-1.27,2.7A5.73,5.73,0,0,1,123.26,25c-.06,0-.15.07-.17.05-.41-.35-.75,0-1.1.12s-.63.6-1,.89c-.06.06-.07.18-.14.23A14.29,14.29,0,0,0,118,29.9,9.75,9.75,0,0,0,117,32a5.66,5.66,0,0,1-.89,1.37,14.55,14.55,0,0,0-1,1.7c-.26.54-.75,1-1,1.5-.39.77-.94,1.42-1.36,2.17a8.52,8.52,0,0,1-1.86,2.8c-.22.19-.16.49-.33.72s-.54.72-.82,1.06a11.8,11.8,0,0,0-.87,1.49,9.8,9.8,0,0,1-.74,1.15,12.83,12.83,0,0,0-.63,1.15c-.78,1.29-1.54,2.6-2.38,3.85a4.93,4.93,0,0,0-.7,1.44,1,1,0,0,1-.45.7c-.18.1-.17.3-.26.45-.4.65-.75,1.33-1.19,2s-.82,1.55-1.3,2.27S100.45,59.27,100,60s-1.16,1.54-1.63,2.44c-.33.62-.77,1.21-1.09,1.83-.42.81-.88,1.59-1.35,2.37a9,9,0,0,1-1.37,2.11,1,1,0,0,0-.36.7.58.58,0,0,1-.23.42,3.76,3.76,0,0,0-.68,1.2,8.54,8.54,0,0,1-.51,1,20.09,20.09,0,0,0-1.19,2.42c-.16.38-.51.66-.66,1.08a4.45,4.45,0,0,1-.71,1.62c-.2.24-.24.57.21.68.11,0,.16.13.22.22a1.77,1.77,0,0,0,1.65.71,1.11,1.11,0,0,1,1.11.39l.21.08a5.6,5.6,0,0,1,1.56.4c.39.26,1,.19,1.21.67a.55.55,0,0,0,.3.18,6.81,6.81,0,0,1,1.54.45,1.89,1.89,0,0,0,1.07.2,6.45,6.45,0,0,1,1.52.61,2.9,2.9,0,0,0,.54.19,3.75,3.75,0,0,1,2,.93c.2.22.52,0,.76.12h.25c.14.41.5.41.83.54a.6.6,0,0,0,.47.07h.3c.41.5,1,.6,1.57.9s.91.26,1.32.49.78,0,.86.51h.16a1.47,1.47,0,0,1,.94.23,2.08,2.08,0,0,0,1.19.31c.52,0,.89.38,1.31.61a15.7,15.7,0,0,0,1.79,1,3.21,3.21,0,0,0,1.76.42c.33-.06.54.22.8.35s.32.2.51-.1a2,2,0,0,1,1.21-.92c.46-.12.89-.38,1.37-.46h.12a3.72,3.72,0,0,1,1.32.33,1.28,1.28,0,0,1,.63.89.73.73,0,0,0,.27.45.6.6,0,0,1,.23.72c-.18.5-.14,1.09-.61,1.49a.51.51,0,0,0,0,.76,11.08,11.08,0,0,1,1.79,2.81,22.19,22.19,0,0,1,1.26,1.95c.26.7.91,1.16,1.1,1.88,0,.11.13.17.19.25.55.67,1.13,1.31,1.64,2a9.29,9.29,0,0,0,1.06,1.43c.38.36.45.92.77,1.35.72.94,1.24,2,2,3a14.25,14.25,0,0,1,1.65,2,6.25,6.25,0,0,0,1.43,1.76,3.71,3.71,0,0,1,.63,1c.5.68,1,1.35,1.54,2a2,2,0,0,1,.41.73c.11.47.52.74.73,1.16a21.45,21.45,0,0,1,1.5,2.52,1,1,0,0,0,1.1.66,1.74,1.74,0,0,1,1.69.72,4.08,4.08,0,0,1,.58,1.4.42.42,0,0,1,0,.27,3.46,3.46,0,0,1-1.36,1.35c-.65.26-1.36.38-2,.61a4.1,4.1,0,0,1-1.26.08c-.11,0-.23-.07-.22-.19,0-.37-.31-.5-.5-.7a1.39,1.39,0,0,1,0-2l.15-.13c.37-.27.63-.68,1-.92.17-.1.13-.27,0-.4a16.13,16.13,0,0,0-1.29-2.38,16.26,16.26,0,0,1-1.75-2.85,8.24,8.24,0,0,0-1.53-2h0c-.24-.89-1.12-1.34-1.48-2.18-.13-.32-.57-.62-.82-1-.55-.79-1.2-1.5-1.8-2.25a5.46,5.46,0,0,1-.49-.89,22,22,0,0,0-2-3c-.54-.72-1-1.48-1.6-2.18a11.11,11.11,0,0,1-1.38-2,9.89,9.89,0,0,0-.75-1.19,14.3,14.3,0,0,0-1.39-2,.55.55,0,0,1-.14-.22,3.84,3.84,0,0,0-1.18-1.86,1.15,1.15,0,0,0-1.1-.39,1.21,1.21,0,0,1-1-.08.92.92,0,0,0-.57,0,.79.79,0,0,1-.89-.29c-.21-.39-.73-.59-.63-1.2a7.86,7.86,0,0,0-.24-.86.12.12,0,0,0-.2-.09c-.38.36-.75-.06-1.14,0a5,5,0,0,0-.94.06c-.27.11-.56,0-.84.09A17.58,17.58,0,0,1,112,90a3.25,3.25,0,0,0-1.53.55,2.65,2.65,0,0,1-1.46.31,8.66,8.66,0,0,0-1.89.3,13.29,13.29,0,0,1-3.07,1c-.56,0-.94.39-1.44.47-.89.14-1.73.47-2.6.67s-1.84.61-2.78.85c-.76.2-1.48.47-2.22.7a11.81,11.81,0,0,1-2.2.55c-.31,0-.64.34-1,.37-.57,0-1.06.38-1.63.35-.27,0-.43.21-.62.32-.84.52-1.84.62-2.67,1.11s-2,.8-2.92,1.31c-.66.35-1.1.21-1.28-.28A.38.38,0,0,1,83,98c1.11-.26,2.13-.8,3.25-1.08.74-.19,1.47-.54,2.21-.81.44-.17,1-.5,1.32-.43s.62-.18.92-.29c1-.37,2-.68,3-1s2-.59,3-.81c.25,0,.24-.27.45-.28a1.44,1.44,0,0,0,.73-.21c.29-.2.63-.13.94-.22.66-.18,1.26-.56,1.9-.67s1.45-.44,2.2-.58c.42-.08.8-.37,1.26-.28h.18c.33.21.56.19.64-.24h0c.4.19.5-.26.76-.36S106.1,90.89,106.26,90.93ZM84.48,76.24c-.33,0-.2.37-.35.43-.37.16-.46.39-.52.79-.17,1.14-.69,2.19-.94,3.32-.12.52-.38,1-.47,1.55s-.38,1.21-.53,1.82c-.26,1-.63,2-.9,2.94-.07.23-.23.4-.2.7a3.66,3.66,0,0,1-.36,1.9c-.28.58-.12,1.19-.42,1.76a5.5,5.5,0,0,0-.26,1.84,4.9,4.9,0,0,1-.71,2c-.12.2,0,.22.1.23a1.69,1.69,0,0,1,.77.51c.36.37.65.29.86-.2A3,3,0,0,0,81,94.71a2.42,2.42,0,0,1,.51-1.07c.49-.79.74-1.7,1.17-2.53a5.55,5.55,0,0,1,.46-.91,3.49,3.49,0,0,0,.37-.78,6.91,6.91,0,0,0,.64-1.71c.09-.31.44-.4.48-.66.15-.81.84-1.35,1-2.12.09-.34.41-.61.5-.91.39-1.43,1.26-2.65,1.67-4.07a.66.66,0,0,1,.37-.43c.55-.27.14-.92.51-1.27.07-.07-.13-.14-.23-.21-.6-.41-1.4-.27-2-.71-.27-.2-.61-.32-.78-.64,0-.07-.12-.15,0-.23s.17-.08.21,0c.16.31.58.18.76.48a.54.54,0,0,0,.51.21,6.07,6.07,0,0,1,1.35.15c.62.11.74,0,1-.6a1.23,1.23,0,0,1,.39-.59c.18-.14.28-.38.51-.45-.17-.43.17-.72.29-1.07a17.61,17.61,0,0,1,1.09-2.38,5.31,5.31,0,0,0,.53-1c.09-.32.36-.49.47-.82a5.43,5.43,0,0,1,.73-1.28,10.68,10.68,0,0,0,.92-1.44c.32-.66.85-1.19,1.2-1.85s.79-1.27,1.1-1.94c.52-1.1,1.2-2.1,1.8-3.15a24.22,24.22,0,0,0,2.08-3.37c.2-.38.43-.76.67-1.13a12.86,12.86,0,0,1,1.42-2.43,8.7,8.7,0,0,0,1-2c.29-.63.81-1.15,1.13-1.77s1-.84,1-1.58c0-.18.4-.33.27-.66a.19.19,0,0,1,.09-.14c.64-.25.77-.95,1-1.43.34-.78.8-1.48,1.19-2.22.13-.27.14-.61.38-.8.45-.36,1-.67,1-1.34,0-.14.29-.1.34-.38a1.59,1.59,0,0,1,.6-.94c.16-.12.51-.25.48-.56s.25-.58.39-.85a5.23,5.23,0,0,0,.66-1.1,12,12,0,0,1,1.5-2.47A16.46,16.46,0,0,1,115,33.45a2.47,2.47,0,0,0,.45-.61,26.16,26.16,0,0,1,1.5-2.71c.23-.43.45-.86.67-1.29a2.9,2.9,0,0,1,.74-1.09,1.79,1.79,0,0,0,.72-.82c.09-.15.33-.14.38-.35a2,2,0,0,1,.56-.88.62.62,0,0,0,.12-.88.61.61,0,0,0-.3-.22.42.42,0,0,1-.2-.1c-.36-.51-.69-.37-1.08,0-.55.49-1.26.83-1.62,1.5s-1.2.82-1.49,1.55c-.16.38-.55.61-.84.91a13.13,13.13,0,0,1-1.23,1.35,12.49,12.49,0,0,0-1.59,1.58,8.07,8.07,0,0,1-1,.94c-.35.28-.68.57-1,.88a14.05,14.05,0,0,1-2.33,2.23A.84.84,0,0,0,107,36a.24.24,0,0,1-.2.16c-.36-.09-.37.24-.52.41s-.31.36-.48.52c-.49.47-1,.92-1.48,1.4-1,1-1.88,2-2.88,3a12.83,12.83,0,0,1-1.9,1.71,16.17,16.17,0,0,0-1.79,1.72,7,7,0,0,0-1.31,1.55,4.94,4.94,0,0,1-.69,1c-.36.38-.36.44,0,.84a3.08,3.08,0,0,1,.75,1.34c.1.53.18,1.08-.45,1.45a9.24,9.24,0,0,1-2.28,1.36,7.34,7.34,0,0,1-1.68.32,1.16,1.16,0,0,0-.84.36,1.89,1.89,0,0,0-.5.85,12.37,12.37,0,0,1-.84,2.22,21.5,21.5,0,0,1-1.08,2.9.81.81,0,0,0,0,.31,11.18,11.18,0,0,1-.36,2,19.84,19.84,0,0,0-.89,3,.29.29,0,0,1-.09.2,3.14,3.14,0,0,0-.38,1.06,8,8,0,0,0-.42,1.8,2.81,2.81,0,0,1-.32,1.18c-.22.49-.25,1-.44,1.5a18.81,18.81,0,0,0-.77,2.3c-.06.24-.41.4-.34.7.12.53-.21.94-.31,1.41s-.47,1.11-.07,1.69ZM52.64,58.32h0a.91.91,0,0,1,.78-.49c.35,0,.52-.26.4-.5s-.58-.22-.41-.65a4.72,4.72,0,0,1-.7-.35c-.23-.16-.41-.14-.51-.34-.18-.39-.58-.55-.86-.83s-.62-1-1.22-1.13c-.06,0-.08-.13-.14-.17-.25-.19-.32-.59-.64-.66s-.42-.38-.35-.71c-.12,0-.26.21-.3,0-.07-.41-.43-.56-.69-.71-.48-.27-.64-.9-1.22-1l-.06-.07a4.17,4.17,0,0,0-.83-1,.35.35,0,0,0-.47-.14.4.4,0,0,0-.15.14c-.26.37-.71.57-.85,1a.32.32,0,0,1-.42.17c-.14-.05-.2-.29-.11-.33.37-.15.19-.59.45-.78.07-.06,0-.18.21-.19s.52-.64.43-.75a3.08,3.08,0,0,0-.8-.81,2.07,2.07,0,0,1-.74-.61A5,5,0,0,0,41.79,46a6.26,6.26,0,0,1-.59-.46c-.36-.28-.62-.72-1-.9-.6-.29-1-.92-1.61-1.08a.2.2,0,0,1-.13-.21c0-.21-.12-.25-.26-.36s-.81-.06-.93-.49-.53-.62-.75-1c-.1-.17-.38-.46-.68-.23a1.27,1.27,0,0,0-.32.47c0,.08-.27.35.13.28.06,0,.17.15.07.2-.4.19-.21.51-.19.78a13.45,13.45,0,0,0-.14,1.64c.07.53-.23.92-.22,1.41s-.2.74-.08,1.14a1,1,0,0,1,0,.49c-.11.5-.21,1-.31,1.51a1.66,1.66,0,0,0-.1.66,4.14,4.14,0,0,1,0,1.49c0,.31-.31.57-.26.86a2.22,2.22,0,0,1,0,.89c-.23.85-.22,1.74-.54,2.6a18,18,0,0,0-.62,3.16c0,.35,0,.71.43.79a.64.64,0,0,1,.31.25c.18.26.39.26.69.15.55-.21.66-.86,1.18-1.1a.73.73,0,0,0,.42-.35c.16-.35.3-.75.75-.86a.34.34,0,0,0,.18-.19c.08-.17.13-.35.32-.41s.32.17.5.23c0-.18-.13-.37,0-.52a7.44,7.44,0,0,0,.72-1.1s0-.14.16-.07.24.11.29-.16a.86.86,0,0,1,.53-.7c.19-.08.47-.12.59-.36.28-.56.28-.56.9-.65a.12.12,0,0,0,.09-.09c.06-.54.66-.63.88-1s.55-.63.75-1a1.2,1.2,0,0,1,.76-.52.18.18,0,0,1,.24.09,0,0,0,0,1,0,0,.18.18,0,0,1-.08.24c-.53.4-.79,1-1.32,1.46-.34.26-.52.8-.9,1s-.43.76-.93.75c-.29.61-.9,1-1.23,1.52a2.23,2.23,0,0,1-.61.72,3,3,0,0,0-.53.47,2.58,2.58,0,0,1-1.38,1c-.09,0-.21.08-.16.17.18.3-.41.33-.2.63-.37,0-.36.43-.55.63s-.6.7-.92,1-.07.36,0,.53.23.16.38.13.43-.11.65-.14a5.08,5.08,0,0,0,2.19-.56c.07,0,.17-.11.25,0a.62.62,0,0,0,.72-.05A4.41,4.41,0,0,1,41,60.31a6.08,6.08,0,0,1,2.22-.54h.43c.49-.34,1.13-.11,1.61-.47.07-.06.2,0,.3,0a1.48,1.48,0,0,0,.77-.2,1.21,1.21,0,0,1,.64-.18,1.32,1.32,0,0,0,.8-.19.83.83,0,0,1,.73-.11c.42.22.75-.21,1.14-.07,0,0,.09,0,.1-.07,0-.37.29-.24.5-.24a3.26,3.26,0,0,0,.93.08c.25,0,.23.09.12.26-.21.35-.38.75-.92.58a.45.45,0,0,0-.26.06,3.36,3.36,0,0,1-1.88.24,1.12,1.12,0,0,0-.78.13,2.62,2.62,0,0,1-2.1.47.26.26,0,0,0-.27.12.26.26,0,0,1-.31.12c-.34-.16-.65.25-1,0,0,0-.1.05-.11.12,0,.3-.26.26-.47.29a1.59,1.59,0,0,1-1-.22c-.33-.18-.43-.05-.5.23s-.15.37-.4.35c-.69-.06-1.25.49-1.94.43,0,0-.09,0-.1.07-.16.36-.46.34-.76.27a.32.32,0,0,0-.32.1,1.17,1.17,0,0,1-.89.32c-.5.06-1.12-.23-1.44.44,0,0-.06.09-.1.09-.34,0-.35.3-.35.51a.66.66,0,0,1-.54.71c.24.17.42.3.12.5a.4.4,0,0,0-.09.2A2.27,2.27,0,0,1,33,66.25c-.2,0-.34,0-.3.25a6,6,0,0,1-.15,1.19c0,.45-.28.87-.19,1.31a3.42,3.42,0,0,1-.08,1.74,1.3,1.3,0,0,0,0,.78,3.23,3.23,0,0,1,.26,1.26,9.6,9.6,0,0,0,.11,1.42c.09,1,.68,1.84.38,2.86a.13.13,0,0,0,.06.11c.37.42.15,1,.22,1.42s.37.8.37,1.26c0,.15.16.28,0,.46s-.18.35-.06.44A1.32,1.32,0,0,1,34,82c-.06.63.29.31.48.32s.25-.09.38-.14A3.6,3.6,0,0,1,37.67,82c.37.13.73.42,1.09.42a2,2,0,0,0,1.63-.64,1.65,1.65,0,0,1,.54-.36,8.62,8.62,0,0,0,1.64-.81,1.57,1.57,0,0,1,1.21-.48.49.49,0,0,0,.52-.28.45.45,0,0,1,.32-.22c.17,0-.08.29.15.21s0-.26.12-.35a1.73,1.73,0,0,1,.21-.17l1.46-1c.59-.37,1.33-.62,1.68-1.33.11-.24.36-.26.64-.24.1,0,.15-.44.41-.55a2.26,2.26,0,0,0,.83-.49c.21-.21.7.08.7-.43H51a.13.13,0,0,0,.19,0h0a1.9,1.9,0,0,1,.9-.68,1.9,1.9,0,0,0,1-.59,1.13,1.13,0,0,1,.45-.29c.62-.24,1-.84,1.51-1.17.09,0,.12-.19.23-.25a.93.93,0,0,0,.35-1.27,1.1,1.1,0,0,0-.36-.35c-.45-.21-.55-.6-.84-.87s-.39-.38-.39-.57a12.49,12.49,0,0,1-.23-1.51,5,5,0,0,1,1.06-3,2.69,2.69,0,0,1,1.29-1.06c.29-.07.56-.2.84-.29.11,0,.23-.1.19-.22-.12-.29.13-.31.27-.41a2.6,2.6,0,0,0,.45-.28c.13-.11.19-.35,0-.37-.47-.06-.44-.48-.57-.75a3.15,3.15,0,0,0-1.07-1.52,2.31,2.31,0,0,1-.93-1,.89.89,0,0,0-.86-.52,2,2,0,0,0-.89.21.61.61,0,0,1-.86-.08A.64.64,0,0,1,52.64,58.32Zm20.42,70c0,.22-.12.51.17.6a4.27,4.27,0,0,0,1.3.36,10.93,10.93,0,0,1,2.35.42,12.84,12.84,0,0,1,2.12.51h.13a1,1,0,0,1,.77.12,2.37,2.37,0,0,0,1.36.19,13.19,13.19,0,0,1,1.54,0c.32,0,.64.17,1,.17a7.83,7.83,0,0,1,1.37.1,4.19,4.19,0,0,0,1.1.21c1.35,0,2.68.31,4,.37,1,0,2,.3,3,.43a8.81,8.81,0,0,1,.92.17c.68.06,1.29.74,2,.27a.45.45,0,0,1,.21,0l3.26.59c.72.05,1.44.14,2.15.26a6.8,6.8,0,0,0,1,.11.33.33,0,0,0,.42-.18c.08-.17,0-.28-.13-.38a.43.43,0,0,1-.14-.4,6.55,6.55,0,0,1,.32-1.69c.13-.34.24-.58.6-.69.2-.06.38-.15.25-.52a4.53,4.53,0,0,0-1.41-1.75,23.19,23.19,0,0,0-1.68-1.76.13.13,0,0,1-.05-.07,4.37,4.37,0,0,0-1.51-1.74,26.73,26.73,0,0,1-2.22-2.17c-.34-.31-.59-.7-.9-1s-1-.49-1.09-1.08c0-.07-.13-.12-.19-.18-.44-.5-1.11-.78-1.34-1.47a1,1,0,0,0-.5-.55,1.56,1.56,0,0,1-.56-.43A7.4,7.4,0,0,0,91,115.62c-.43-.24-.79-.61-1.23-.85s-.25-1-.93-.85l-.05-.07c-.07-.22-.27-.31-.44-.43-.54-.36-.83-1-1.43-1.33a2.17,2.17,0,0,1-.55-.36,6.46,6.46,0,0,0-.74-.74,3.88,3.88,0,0,1-.92-.89c-.57-.83-1.38-1.45-2-2.21-.32-.38-.76-.63-1-1.11a1.8,1.8,0,0,0-.78-.9c-.21-.11-.46-.37-.63.07a.53.53,0,0,1-.36.26,6,6,0,0,1-1.64.19,1.28,1.28,0,0,1-1.11-.12c-.07-.06-.17,0-.25.06-.36.25-.64.09-.87-.2-.07-.09-.19-.22-.24-.15-.25.31-.78.33-.82.87a3.58,3.58,0,0,1-.45,1.36c-.31.63-.21,1.36-.61,2-.19.3-.13.82-.23,1.23a19.35,19.35,0,0,0-.57,3,1,1,0,0,1-.14.38.7.7,0,0,0-.14.41,7.49,7.49,0,0,1-.17,1.26c0,.49-.31.9-.3,1.36a4.88,4.88,0,0,1-.25,1.47c-.16.55-.25,1.12-.36,1.67a3.56,3.56,0,0,1-.26,1.17A4.85,4.85,0,0,0,71,123.6a14,14,0,0,0-.41,2.31c0,.25,0,.35.29.32a1.59,1.59,0,0,1,1,.27,2.81,2.81,0,0,1,1.19,1.83Zm-31.18-23a.84.84,0,0,1,.39.33.62.62,0,0,0,.6.33,12.25,12.25,0,0,0,2-.32,6.82,6.82,0,0,1,2-.34c.46,0,.49-.48.84-.52a3,3,0,0,1,.29-1.28c.17-.62.28-1.24.48-1.85.06-.21.13-.5.44-.58.06,0,.1,0,.08-.11-.14-.65.21-1,.88-1,.19,0,.18.13.13.26-.13.39-.26.77-.38,1.16a.2.2,0,0,1-.19.17c-.11,0-.11.11-.11.21a11.07,11.07,0,0,1-.81,2.52.9.9,0,0,0,0,.46c.09.21.29.09.44.08,1-.06,1.9-.33,2.85-.46.61-.08,1.21-.26,1.83-.34.91-.11,1.82-.29,2.73-.43a10.79,10.79,0,0,0,2.26-.31,4.77,4.77,0,0,1,.92-.15,8.67,8.67,0,0,0,2.09-.32,5.79,5.79,0,0,1,1.49-.29,15,15,0,0,0,2-.26l2.68-.52a5.25,5.25,0,0,0,1.64-.48,3.72,3.72,0,0,1,2.08-.31c.11,0,.24,0,.31.13a.78.78,0,0,1-.46,1,.42.42,0,0,1-.15,0,1.62,1.62,0,0,0-.62,0,8.16,8.16,0,0,1-2.07.46c-.68.17-1.42.14-2.09.34a3.18,3.18,0,0,1-1.67.18s-.11,0-.15.06a2.66,2.66,0,0,1-1.78.41.9.9,0,0,0-.62.14c-.19.13-.48.29-.62.15s-.35-.07-.52,0-.26.17-.4.17a15.1,15.1,0,0,0-2.32.25,10.89,10.89,0,0,1-1.4.15c-.49.06-1,.18-1.45.23a3.7,3.7,0,0,0-1.39.27.59.59,0,0,1-.43.07,5.36,5.36,0,0,0-1.64.17c-.87.08-1.72.4-2.6.52a4.76,4.76,0,0,0-1.15.14,1.71,1.71,0,0,0-.79,1c-.16.76-.61,1.4-.79,2.16s-.48,1.25-.67,1.89c-.07.28-.33.48-.31.76a2.56,2.56,0,0,1-.36,1.41c-.25.51-.47.94.22,1.26l.09.16a.51.51,0,0,0,.67.27h0a6.23,6.23,0,0,0,1-.42c.62-.27,1.22-.57,1.82-.87a12.49,12.49,0,0,0,1.64-.71c.49-.33,1.19-.15,1.58-.68a.14.14,0,0,1,.09,0c.63,0,1.11-.6,1.78-.42a.08.08,0,0,0,.07,0c.11-.27.57-.16.6-.53h.16c.36-.24.79-.32,1.14-.51,1-.52,2-1,3-1.43.17-.07.35-.23.56,0s.19,0,.21-.12a.34.34,0,0,1,.42-.25.22.22,0,0,0,.27-.08,8.22,8.22,0,0,1,2.54-1.52c.14-.08.41-.26.53-.21.33.12.47-.08.64-.26a.43.43,0,0,1,.32-.14c.61,0,1-.58,1.62-.53a.5.5,0,0,0,.39-.27.87.87,0,0,1,.57-.5c.47-.19.92-.39,1.38-.6a6.27,6.27,0,0,0,1-.51A6.07,6.07,0,0,1,71.65,103a.35.35,0,0,0,.33-.39.11.11,0,0,0,0-.05,3,3,0,0,1,.47-2.18,2,2,0,0,0,.42-1.07,1.65,1.65,0,0,1,.4-.83c.25-.36.2-.69-.22-.85l-2.78-1.15c-.78-.31-1.61-.47-2.37-.85a.68.68,0,0,0-.4,0,1.18,1.18,0,0,1-.69-.12,19.12,19.12,0,0,0-3.12-1.15c-.6-.1-1.37.14-1.83-.53-.48.24-.71-.24-1.07-.36a32.81,32.81,0,0,0-3.24-1c-.6-.12-1.28-.14-1.63-.89-.08.18-.07.44-.31.32a8.45,8.45,0,0,0-1.41-.51c-.57-.19-1.31.17-1.28.72a.16.16,0,0,1-.06.12c-.14.6-.82,1-.56,1.76a.2.2,0,0,1-.06.17,4,4,0,0,0-.65,1.58c-.13.75-.67,1.35-.81,2.14a5.41,5.41,0,0,1-.59,1.6c-.18,0-.24-.21-.41-.17s-.3-.09-.28-.28c0-.35.37-.19.53-.29,0-.24-.51-.19-.29-.46a4.8,4.8,0,0,0,.53-1.53c.2-.55.39-1.13.63-1.66a11.37,11.37,0,0,0,.59-1.82,5.94,5.94,0,0,1,.78-1.79c.23-.36.19-.56-.21-.72-.24-.09-.5-.07-.72-.24s-.59-.5-1-.29a.3.3,0,0,1-.26,0A4.68,4.68,0,0,0,48,89.78a.83.83,0,0,1-.35,0c-1-.3-2-.7-3-1-.73-.2-1.34-.71-2.08-.93-.45-.14-.85-.43-1.32-.59S40.42,87,40,86.88s-.69-.25-.93.21a.9.9,0,0,1-.55.36c-.23.07-.44.19-.67.26-.42.13-.35.49-.21.71.34.5.26,1.1.5,1.64s.2,1.4.49,2.06a18.56,18.56,0,0,0,.61,2.09,2.47,2.47,0,0,1,.27,1.13,1.66,1.66,0,0,0,.27.75c.08.15.22.27.24.47s.25.43.05.71.25.31.3.59a4.54,4.54,0,0,0,.28,1.51c.18.38.14.8.33,1.19a13.87,13.87,0,0,1,.84,2.8c.15.53.33,1,.53,1.56.07.2.08.33-.19.27a.3.3,0,0,0-.3.09Zm42-52.46c-.49.37-1,.16-1.53.49a6.31,6.31,0,0,1-1.86.49,3.55,3.55,0,0,1-1.2.27,6,6,0,0,0-.85,0,6.61,6.61,0,0,1-1.53.25,1.8,1.8,0,0,0-.89.1c-.89.42-1.89.31-2.79.66-.45.18-1-.27-1.4.31h-.21a2.29,2.29,0,0,0-.64,0c-.27,0-.37.26-.59.25-.85,0-1.67.3-2.53.27a.79.79,0,0,0-.3.08,4.71,4.71,0,0,1-1.53.33c-.27.07-.58.21-.87,0-.15.38-.5.26-.77.28a2.37,2.37,0,0,0-.94.23.39.39,0,0,1-.39,0c-.44-.3-.9,0-1.23.09a13.6,13.6,0,0,1-3.17.56,2.1,2.1,0,0,0-.65.23c-.14.07.07.32.08.49s0,.28,0,.4c.19.61-.08,1.26.29,1.87a8.42,8.42,0,0,0,.88,1.16c.09.1.15.21.32.2a7.51,7.51,0,0,1,2.59,0,15.14,15.14,0,0,1,2.43,1,3,3,0,0,1,1.11,1.25c.07.1.09.25.25.2.32-.11.5-.55.93-.37.13-.32.43-.38.7-.51.53-.24,1-.51,1.6-.72a5.32,5.32,0,0,1,1.5-.56A.34.34,0,0,0,71,62a.9.9,0,0,1,.88-.4c.41,0,.85,0,1-.53,0-.11.13,0,.18,0,.32-.18.79.06,1-.4.12-.26.39-.34.6-.5a3.82,3.82,0,0,1,1.51-.64,2.11,2.11,0,0,0,1.37-.57.25.25,0,0,1,.17,0c.6.25.66-.63,1.17-.56.14-.87,1-.83,1.55-1.15.26-.15.56-.18.72-.49a.62.62,0,0,1,.59-.32.54.54,0,0,0,.6-.31c.06-.15.18-.19.3-.25a2.5,2.5,0,0,0,1-.63,1,1,0,0,1,1.19-.37c.14.07.23,0,.31-.15s.33-.7.82-.63c.09,0,.06-.08.09-.11a1.68,1.68,0,0,1,1.45-.52,1.22,1.22,0,0,0,1-.34c.21-.16.34-.46.65-.17a.12.12,0,0,0,.17,0s0,0,0,0c.07-.18.2-.21.39-.19s.3-.12.27-.18a3.28,3.28,0,0,1-.27-1.16.38.38,0,0,0-.29-.24c-.37,0-.35-.29-.36-.48a10.44,10.44,0,0,1,.08-1.67c0-.28,0-.28-.25-.36s-.89-.06-1.15-.5c0-.09-.14,0-.19,0a.32.32,0,0,1-.41,0c-.42-.21-1-.19-1.17-.75a.19.19,0,0,0-.14-.09c-.37.19-.64-.21-1-.19-.86.1-1.65-.49-2.56-.49a.59.59,0,0,1-.45-.18,1.79,1.79,0,0,0-1.15-.67c-.28,0-.36-.4-.47-.36-.58.2-1-.37-1.52-.32s-.73-.56-1.33-.33c-.21.08-.6-.25-.88-.43-.12-.08-.2-.17-.37-.16s-.56,0-.57-.09c0-.37-.22-.29-.46-.22a.5.5,0,0,1-.42-.11c-.3-.27-.76-.24-1.07-.57-.12-.13-.63-.13-.83-.26-.52-.31-1.27,0-1.63-.64H71c-.26.21-.4,0-.55-.16s-.16-.14-.23-.1c-.33.21-.57,0-.85-.12a3.69,3.69,0,0,0-1.23-.34c-.16,0-.43-.11-.38-.27.12-.37-.12-.29-.29-.3a2.16,2.16,0,0,1-1.08-.24,2.17,2.17,0,0,0-.73-.32,1.06,1.06,0,0,1-.75-.31.66.66,0,0,0-.53-.22c-.35,0-.48-.44-.78-.48-.65-.07-1.13-.73-1.86-.5l-.15-.09a.75.75,0,0,0-1,.37h0a3.63,3.63,0,0,1-1.36,1.54,9.37,9.37,0,0,1-1,.79,1,1,0,0,0-.45.61,4.87,4.87,0,0,0-.4,2.32.33.33,0,0,1,0,.14,3.31,3.31,0,0,1-.19,1.33c.39.71-.13,1.55.31,2.26v.22a12.13,12.13,0,0,0,.07,2c.19,1,.31,2,.42,3.06a6.4,6.4,0,0,1-.22,2,.14.14,0,0,0,0,.09c.3.28.09.61.09.92a.28.28,0,0,0,.24.32h0a1.74,1.74,0,0,0,.64,0,5.75,5.75,0,0,0,2-.48.42.42,0,0,1,.27,0c.7.15,1.34-.48,2.06-.18h.08a1.32,1.32,0,0,1,1.05-.25c.46.07.82-.32,1.28-.25a6.6,6.6,0,0,0,1.76-.33c.22,0,.43-.17.68-.08s.47.15.57-.19c0,0,.13-.13.18-.12a2,2,0,0,0,1.38-.14c.34-.1.77-.45,1.16,0,0,0,.27,0,.36-.13.38-.38,1-.15,1.36-.42a.14.14,0,0,1,.11.05c.15.42.34.12.52,0a1.38,1.38,0,0,1,1-.25.5.5,0,0,0,.46-.05c.37-.47.92-.36,1.4-.46a9.63,9.63,0,0,1,2.14-.25,2.75,2.75,0,0,0,1.53-.17c.37-.21.82-.26,1.13-.59.11-.12.26-.06.42,0a1.11,1.11,0,0,0,1-.1.66.66,0,0,1,.64,0,.66.66,0,0,0,.64,0,4,4,0,0,1,.81-.3c.3-.06.56-.35.91-.14.12.08.22,0,.3-.13a.27.27,0,0,1,.26-.12A2.41,2.41,0,0,0,88,51.29a1.39,1.39,0,0,1,1,.13c.2.28.1.58-.24.93s-.39.3-.66.13a.47.47,0,0,0-.43,0c-.73.3-1.55.11-2.3.43-.38.17-.87.14-1.29.31-.31,0-.42,0-.25-.4ZM51.19,113.67a.66.66,0,0,0-.63.24c-.19.28-.48.32-.74.45a13.56,13.56,0,0,0-2.11.91c-.18.13-.29.36-.54.38-.57,0-.86.47-1.18.86-.47.57-.39,1,.21,1.36.87.58,1.89.86,2.76,1.45a1.87,1.87,0,0,0,.63.28c.6.14,1.17.38,1.76.53.25.07.38.34.65.37a11.18,11.18,0,0,1,2.3.39,32.67,32.67,0,0,1,3.18,1.31c.78.37,1.58.66,2.38,1a5.09,5.09,0,0,1,1.47.59,3.93,3.93,0,0,0,1.18.49c.73.31,1.62.16,2.25.76h.08a6.55,6.55,0,0,1,1.46.45.89.89,0,0,1,.57.34c.19.34.56.32.81.51.41.3.58-.09.84-.24a2.28,2.28,0,0,1,.45-.2.53.53,0,0,0,.39-.35,5.1,5.1,0,0,0,.42-1.15c.1-.58.23-1.16.38-1.74.08-.27.41-.31.41-.6a7,7,0,0,1,.52-2c.08-.26-.11-.56.06-.75.31-.34.09-.91.55-1.17.08,0,0-.09,0-.13a2.27,2.27,0,0,1-.11-.58c.09-1,.35-1.87.5-2.81.07-.48.26-.92.34-1.39.13-.82.23-1.65.44-2.46a1.5,1.5,0,0,0,.15-.51,4.39,4.39,0,0,1,.31-1.38c.26-.94.56-1.88.83-2.83a.53.53,0,0,0-.26-.71l-.1,0a2.4,2.4,0,0,1-1.2-1c-.17-.28-.36-.69-.73-.16a.19.19,0,0,1-.16.06,1,1,0,0,0-.74.44,1.49,1.49,0,0,1-1.39.64.83.83,0,0,0-.68.26,1,1,0,0,1-.76.47c-.82.19-1.32,1.12-2.28.93a.12.12,0,0,0-.1.07c-.39.27-.84.43-1.23.71s-1,.19-1.32.5a14.54,14.54,0,0,1-2,1.13c-.09.07-.27,0-.38.07-.27.13-.68-.14-.85.32a2.23,2.23,0,0,1-.5.37c-.64.33-1.35.41-2,.73a10.17,10.17,0,0,1-2.66,1.27,8.65,8.65,0,0,0-1.29.65,18.62,18.62,0,0,0-1.9.8C51.54,113.63,51.39,113.76,51.19,113.67ZM32,73.29a.53.53,0,0,1-.55-.52.38.38,0,0,1,0-.15c.1-.93,0-1.86.07-2.79s-.11-1.69,0-2.55a.94.94,0,0,0-.26-.76c-.14-.14-.47,0-.52-.3s-.35.08-.49-.16-.39.11-.5-.06c-.32-.5-.6-.19-.87,0a2.08,2.08,0,0,1-.57.35,5,5,0,0,0-1.81,1.29c-.15.2-.37.51-.61.47a.41.41,0,0,0-.5.26,1.47,1.47,0,0,1-.71.64c-.53.25-.86.89-1.57.81a.12.12,0,0,0-.11.09A.14.14,0,0,0,23,70c.12.26-.11.27-.23.34s-.46.12-.56.27c-.6.83-1.66,1-2.37,1.73a7,7,0,0,1-1.57,1,28.23,28.23,0,0,1-2.66,1.41c-.19.09-.16.39-.42.35s-.41.14-.57.3a2,2,0,0,1-.72.5c-.44.18-.81.52-1.25.65s-.57.48-.95.57-.51.5-.94.42c-.06,0-.27.34-.48.46a5.38,5.38,0,0,0-1.76,1.79c-.35.56-.94.79-1.39,1.21a3.29,3.29,0,0,0-.66.63,2.24,2.24,0,0,1-.73.83c-.26.17-.57.32-.35.73s.15.69.45.79a5.86,5.86,0,0,0,2.23.35c.24,0,.52-.1.65.14.21.4.41.21.68.09s.66-.23.72-.15c.2.31.36.1.54,0s.08-.06.12-.06a4.3,4.3,0,0,0,1.43,0,7,7,0,0,1,1.44-.18c.12,0,.25-.08.34,0a.72.72,0,0,0,.57.09c.54-.21,1.12,0,1.67-.15.13,0,.32.19.33.17.3-.51.6,0,.89,0,.06,0,.14-.07.17,0,.27.16.51-.57.78,0a.24.24,0,0,0,.11-.06.36.36,0,0,1,.5.09l0,0c.18.24.31.17.32-.09s.16-.37.33-.31a1.57,1.57,0,0,0,.77.1c.43,0,.84.1,1.28.07a5,5,0,0,1,1.5-.11,2.84,2.84,0,0,0,1.22.19,4.82,4.82,0,0,1,1.56-.1c.52.09,1.15-.13,1.58.12a2,2,0,0,0,1.45.11h.13a5.92,5.92,0,0,0,1.19,0c.6-.16,1.22,0,1.78-.26a.39.39,0,0,1,.26,0c.22.07.41.16.57-.12s.33-.47.23-.66a6.1,6.1,0,0,1-.34-1.75c-.07-.35,0-.72-.12-1,.42-.27,0-.45-.08-.66a3.46,3.46,0,0,1-.4-2,3,3,0,0,0-.13-1.48,13.81,13.81,0,0,1-.49-2.64C31.69,73.52,31.7,73.35,32,73.29Zm44.69.28c.07-.25.22-.21.39-.19.46.11.9.24,1.34.39a.75.75,0,0,1,.44.25c.17.18.35.42.69.26a.58.58,0,0,1,.79.22.47.47,0,0,1,0,.1c0,.08.08.27.19.12s.34-.08.48-.06a9.5,9.5,0,0,1,1.73.66c.33.11.47.11.64-.22a22.32,22.32,0,0,0,1.08-3A12,12,0,0,0,85,70.52c.16-.79.76-1.41.78-2.24a17.21,17.21,0,0,1,.48-1.7,13.75,13.75,0,0,1,.62-2.43l.34-1a7.92,7.92,0,0,1,.32-1,1,1,0,0,0,.13-.67,2,2,0,0,1,0-.42,6.72,6.72,0,0,0,.45-1.87,2,2,0,0,1,.14-.54c.11-.33.39-.59.42-.9a8.59,8.59,0,0,1,.35-1.48,6.43,6.43,0,0,1,.46-1.47,3.43,3.43,0,0,0,.26-1c0-.16,0-.32-.2-.18-.74.58-1.71.58-2.47,1.06s-1.73.37-2.35,1.09h0a2.72,2.72,0,0,0-1.23.73,5.77,5.77,0,0,1-1.62,1,11.23,11.23,0,0,0-2,1.12,8.14,8.14,0,0,1-1.6.84,6.36,6.36,0,0,0-1.24.58c-.39.28-1,.21-1.35.59h-.17c-.06,0-.19,0-.22.1-.09.3-.39.3-.59.44-.38.26-.85.39-1.2.66a3,3,0,0,1-1.13.57c-.67.17-1.13.77-1.86.78a1,1,0,0,0-.7.4c-.13.15-.23.17-.48,0s.15.42-.25.42a3,3,0,0,0-1.07.36,8.9,8.9,0,0,0-1.5,1,.75.75,0,0,0-.07.12c0,.12-.06.22.16.22.55,0,.75.24.73.8,0,.17-.19.25-.14.4a2.41,2.41,0,0,1-.17,1.69.88.88,0,0,0,.57,1.25,1.53,1.53,0,0,0,.68.23c.13,0,.47,0,.49.36,0,.17.16.11.25.09a1.67,1.67,0,0,1,1,.23,4.12,4.12,0,0,0,1.79.65c.07,0,.23,0,.18.13-.17.46.29.37.39.35a4.19,4.19,0,0,1,1,.24,11.6,11.6,0,0,0,1.9.59c.24,0,.29.36.61.28S76.53,73.14,76.68,73.57Zm.87,22.16c.28,0,.45-.13.67-.13a.21.21,0,0,0,.19-.24.25.25,0,0,0-.11-.17c-.35-.2-.31-.35-.14-.69a7.73,7.73,0,0,0,.54-2.42c.12-1,.55-1.9.71-2.89a9.5,9.5,0,0,1,.42-1.81c.22-.57,0-1.32.62-1.73a.15.15,0,0,0,0-.13c-.12-.31.1-.58.15-.86.15-.8.51-1.55.73-2.34.06-.24.13-.6.31-.71.41-.27.23-.67.3-1a7,7,0,0,1,.4-1.68,3.57,3.57,0,0,0,.3-1.12A6.74,6.74,0,0,1,83,76.66c.1-.31.06-.45-.14-.59a3.57,3.57,0,0,0-1.3-.55,19.06,19.06,0,0,0-2-.56,11.11,11.11,0,0,1-1.76-.61,10.26,10.26,0,0,1-1.32-.26c-1.3-.44-2.6-.87-3.89-1.34a6.84,6.84,0,0,1-1.76-.57,1.68,1.68,0,0,0-.56-.34,12.39,12.39,0,0,1-1.44-.32,11.52,11.52,0,0,1-2.27-.79c-.16-.08-.25-.08-.37.14a4,4,0,0,1-1.67,1.65c-.37.19-.77.31-1.15.48-.16.07-.27.15-.39,0a.7.7,0,0,1-.54.26c-.15,0-.23.13-.05.24a10.21,10.21,0,0,1,1.36,1.35,8.53,8.53,0,0,1,1.11,1.37,10.38,10.38,0,0,1,1,1.62c.13.28.14.64.35.85a4.67,4.67,0,0,1,.69,1.23c.24.47.54.9.81,1.35.42.7,1,1.27,1.46,2,.13.23.46.31.49.56,0,.65.65.91.9,1.41s.74.79.86,1.33a2.11,2.11,0,0,0,.41,1A6.55,6.55,0,0,1,72.68,89c.22.47.44,1,.67,1.42a8.22,8.22,0,0,1,.75,1.44A11.62,11.62,0,0,0,75,94.26a13,13,0,0,0,.71,1.51c.25.34.16.4.59.15a.2.2,0,0,0,.2-.09C76.87,95.39,77.26,95.92,77.55,95.73ZM61.66,73.87c0-.47-.06-.54-.54-.48a1.54,1.54,0,0,1-.74,0c-.25-.08-.54.2-.41.34.31.35.21.61-.08.9s-.43,1.08-.9,1.42c-.27.2-.26.63-.65.68-.22.82-.72,1.52-1,2.33a4.11,4.11,0,0,0-.26.89,1.85,1.85,0,0,1-.32,1c-.22.3.08.64-.24,1a1.81,1.81,0,0,0-.37,1.14,8.86,8.86,0,0,1-.42,1.61c-.06.41-.38.79-.42,1.2-.1.87-.66,1.56-.82,2.42a5,5,0,0,1-.79,1.89c-.13.19-.08.32.13.36a9.3,9.3,0,0,1,2,.63,15.38,15.38,0,0,0,2.29.67c1.28.36,2.51.81,3.75,1.27.33.12.79.16.84.68,0,.07.16.09.17,0,0-.52.35-.16.54-.17s.16.14.22.12a4.92,4.92,0,0,1,1.38.23,19.7,19.7,0,0,1,2.37.86c.32.08.69.11.9.45h.12a1.34,1.34,0,0,1,1.23,0,16.52,16.52,0,0,1,4.07,1.81h.13c.25-.13.55-.11.78-.31s.34-.38,0-.63c0,0-.13-.09-.12-.12.09-.42-.37-.71-.26-1.14a.67.67,0,0,0-.22-.52c-.44-.51-.44-1.24-.87-1.78-.23-.29-.2-.77-.42-1.13-.45-.76-.66-1.63-1.08-2.4a9.43,9.43,0,0,1-.64-1.27A3.86,3.86,0,0,0,70,86.09a.6.6,0,0,1-.21-.28,3.14,3.14,0,0,0-.82-1.42c-.51-.51-.71-1.23-1.32-1.68-.36-.25-.42-.82-.76-1.17a3.34,3.34,0,0,1-.5-.67A22.33,22.33,0,0,1,65,78.4c-.14-.34-.5-.58-.54-.9-.1-.7-.77-1-1-1.58a1.3,1.3,0,0,0-.51-.65,11,11,0,0,1-1-.77A.63.63,0,0,1,61.66,73.87ZM37.35,90.52l.13-.06.12.12c.07.07.16.27.23,0s-.15-.29-.26-.32a.71.71,0,0,1-.5-.52c-.13-.43-.35-.83-.45-1.26s-.21-.29-.44-.2a1.16,1.16,0,0,1-.86,0,1,1,0,0,0-1.16.13c-.13.14-.2.37-.35.45-.79.42-.81,1.36-1.34,2-.4.44-.5,1.13-1.12,1.43-.05,0,0,.06,0,.1a4,4,0,0,1-.87,1.83,13.63,13.63,0,0,0-1.41,2.14,7,7,0,0,1-1.51,2.07c-.32.32-.57.7-.87,1s-.24.4-.6.45c-.1,0-.08.07-.06.12.08.33-.12.49-.37.6a.49.49,0,0,0-.3.42c0,.29-.16.39-.34.51a.85.85,0,0,0-.24.26c-.17.31-.22.71-.69.73,0,0-.11.11-.11.18,0,.77-.68,1.13-1,1.74s-.95,1-1.31,1.59a5,5,0,0,0-1,2.75c0,.31.09.42.4.44a3.09,3.09,0,0,0,1-.17,13.6,13.6,0,0,0,2-.3,4.1,4.1,0,0,1,.49-.06c1-.11,2-.22,3-.3.46,0,.91-.27,1.38,0,.1,0,.1,0,.12-.07s.31-.17.48-.22c.49-.17,1.06,0,1.53-.29h.13a1.51,1.51,0,0,0,1-.16.73.73,0,0,1,.52-.11c.87.23,1.61-.34,2.45-.37a5.85,5.85,0,0,0,1.67-.22,6.11,6.11,0,0,1,1.4-.23c.67,0,1.29-.47,2-.21a.23.23,0,0,0,.25-.07,1.74,1.74,0,0,1,.9-.36.4.4,0,0,0,.35-.46.45.45,0,0,0-.07-.18,6.17,6.17,0,0,1-.62-1.92c-.22-.86-.38-1.73-.65-2.59a11.19,11.19,0,0,1-.57-2c-.07-.61.08-1.31-.45-1.82a.14.14,0,0,1,0-.09c.06-.31-.32-.49-.28-.73a.73.73,0,0,0-.12-.65,2.63,2.63,0,0,1-.43-1.16c0-.18,0-.47-.07-.52-.49-.27-.33-.69-.25-1s0-.35-.21-.43c.14-.07.27,0,.32-.16a.8.8,0,0,1-.44-.91c0-.06,0-.13-.07-.13C37.26,91.26,37.58,90.72,37.35,90.52Zm98-84.78c-.26.57-.62.42-.91.26a.92.92,0,0,0-.59-.13,16.6,16.6,0,0,1-2.23,0,15.32,15.32,0,0,1-1.66,0,5.92,5.92,0,0,1-3.11-.39.26.26,0,0,0-.21,0c-.25.24-.52.15-.78,0s-.81.12-1.2,0a1.9,1.9,0,0,0-.85-.17,4.45,4.45,0,0,1-1.88-.26.81.81,0,0,0-.31,0,4.65,4.65,0,0,1-1.49.06c-.41,0-.82-.06-1.23-.09-.57,0-1.15.11-1.72.1a1,1,0,0,0-1.05.69,3.54,3.54,0,0,1-.34.83c-.61.83-1,1.79-1.63,2.6-.42.53-.4.63,0,1.15.11.14.23.27.35.4s.47.39.4.6a.41.41,0,0,0,.2.51,4,4,0,0,1,.59.71,1.84,1.84,0,0,0,.51.53l.05.07a1.94,1.94,0,0,0,.6.64c.33.24.5.67.93.81.06,0,0,.12,0,.15a2.68,2.68,0,0,0,.69,1A4.84,4.84,0,0,1,120,17.3c.37.51.33.53.89.28l.46-.17a2.94,2.94,0,0,1,2.63.21c.29.22.72.12,1,.43.06.09.13,0,.2-.08.46-.51,1-.42,1.23.23a2.79,2.79,0,0,1,.14.47c0,.13,0,.3.21.29a.3.3,0,0,0,.27-.26c.06-.18.16-.4.33-.36s.26-.14.34-.28,0-.48.42-.27c.17.1.35-.2.29-.4s0-.43.27-.37.24,0,.23-.18a.41.41,0,0,1,.12-.33c.52-.5.93-1.11,1.5-1.56a4.28,4.28,0,0,0,1.3-1.41,7.06,7.06,0,0,1,1.26-1.62,4.81,4.81,0,0,1,1.54-1.4.45.45,0,0,0,.2-.23c.36-.73.93-1.33,1.24-2.09a2.33,2.33,0,0,0-.39-2,.48.48,0,0,1-.33-.47ZM40.09,85.26a.58.58,0,0,0,.24.49c.16.14.72.29,1,.51.8.54,1.89.48,2.58,1.23h0a2.64,2.64,0,0,1,1.39.45,5.72,5.72,0,0,0,1.48.54c1,.15,1.86.58,2.83.75a24.44,24.44,0,0,1,2.46.7c.64.18.74.09,1-.56a3,3,0,0,1,.48-1.13.84.84,0,0,0,.28-.67,1.16,1.16,0,0,1,.22-.62,2.08,2.08,0,0,0,.41-.86c0-.2-.07-.54.18-.62s.24-.29.19-.49a1,1,0,0,1,0-.6,3.38,3.38,0,0,0,.18-.62c.14-.43.15-1,.68-1.19a.21.21,0,0,0,.2-.26c0-.16-.13-.07-.24,0s0-.06,0-.09a.61.61,0,0,1,.1-.63c.41-.5.08-1.24.58-1.71v-.17a3.46,3.46,0,0,1,.45-1.46c.08-.21.22-.41.3-.64a5.3,5.3,0,0,1,.76-1.86,4.84,4.84,0,0,1,.63-.65c.5-.36.35-1.07.74-1.51.11-.12-.08-.33-.23-.26a2.14,2.14,0,0,1-.67,0,1.36,1.36,0,0,1-.9-.34.77.77,0,0,0-1-.11,10.54,10.54,0,0,1-1.85,1.25c-.29.21-.7.17-.91.42a2.68,2.68,0,0,1-1.22.7,1.93,1.93,0,0,0-.84.49,2.26,2.26,0,0,1-1.08.69,2,2,0,0,0-.79.49c-.14.24-.42-.11-.41.19s-.14.26-.29.28a1.36,1.36,0,0,0-.88.55c-.06.08-.1.18-.24.17a.63.63,0,0,0-.63.46.35.35,0,0,1-.29.26c-.47,0-.71.42-1,.68a3,3,0,0,1-.56.37,28.22,28.22,0,0,0-4.31,2.46s-.1.09-.15.08c-.62,0-.89.49-1.25.86-.08.09-.12.2-.05.29A2,2,0,0,1,40.09,85.26Zm-4-46a1.17,1.17,0,0,0,.3,1A17.75,17.75,0,0,0,38.13,42a10.75,10.75,0,0,0,2,1.62c.49.21.78.71,1.22,1a12,12,0,0,1,2.2,1.74c.59.57,1.22,1.08,1.86,1.59.06,0,.11.09.19,0a2.7,2.7,0,0,0,.75-.49c.52-.66,1.36-1,1.81-1.72.08-.13.35,0,.36-.23,0-.51.48-.67.8-.92s.71-.31.65-.81V43.7c.34,0,.35-.38.51-.48.37-.24.57-.62.91-.87S52,42,52,41.68a.82.82,0,0,1,.47-.6c.11-.07.27-.09.32-.23.19-.45.64-.83.32-1.41a.82.82,0,0,1,0-.44,3.63,3.63,0,0,0,0-1.23c0-.25-.12-.32-.35-.36-.75-.16-1.49-.38-2.25-.51-.5-.07-.91-.34-1.39-.44-.72-.17-1.44-.31-2.17-.46-.43-.09-.88,0-1.3-.14a8.9,8.9,0,0,1-2.13-.6c-.68-.31-1.49-.17-2.18-.53-.48-.25-1.12-.19-1.5-.67-.18-.22-.34-.32-.57-.07A.18.18,0,0,1,39,34l0,0a.61.61,0,0,0-.8-.3l-.06,0H38c-.56-.3-.85-.16-1.13.4-.18.37.06.79-.23,1.1.24.67-.32,1.21-.29,1.89a7.14,7.14,0,0,1-.21,2.11Zm6.44,73.88c.37.08.69,0,.64-.43a11.22,11.22,0,0,0-.29-2.07,2.94,2.94,0,0,1-.16-.6c0-1-.5-1.82-.54-2.77,0-.23-.71-.49-.82-.32-.25.38-.68.32-1,.44a8,8,0,0,1-1.54.16c-1,.13-2,.29-3,.47a6.14,6.14,0,0,0-1.79.37.47.47,0,0,1-.31,0,12.31,12.31,0,0,0-2.09.26c-.24,0-.53.25-.71.17-.6-.27-1.12.48-1.7.08-.24.26-.66,0-.88.3,0,.06-.17,0-.26,0a.92.92,0,0,0-1.05.1.29.29,0,0,1-.33,0c-.07,0-.09-.14-.2,0a1,1,0,0,1-.77.19c-.3,0-.51-.15-.75.13a.78.78,0,0,1-.52.21,9.6,9.6,0,0,0-3,.58.38.38,0,0,0-.31.44v0a2.41,2.41,0,0,1,0,1c-.17.47.14.61.42.64a12.17,12.17,0,0,1,2.3.53,14,14,0,0,1,2,.61,20.7,20.7,0,0,1,2.17.77,2.45,2.45,0,0,0,1.25.18c.39,0,.68.29,1.13.17s.83.12,1.26.16a14.52,14.52,0,0,1,2.18.68,3.53,3.53,0,0,1,.84.31,9.46,9.46,0,0,0,1.78.57c.56.19,1.16.15,1.73.34a.62.62,0,0,0,.76-.46.47.47,0,0,0,0-.17,1,1,0,0,1,.17-.73c.47-.5.6-1.26,1.34-1.59a2.6,2.6,0,0,0,.73-.4,1.52,1.52,0,0,1,1.21-.44ZM56.47,42.66c0-.42,0-.45-.42-.52a2.61,2.61,0,0,1-1.59-.62c-.15-.15-.37-.09-.56-.06s-.39.53-.78.3v.15a.23.23,0,0,1-.11.22c-.76.65-1.49,1.34-2.19,2.06-.11.13-.17.33-.41.15-.06-.05-.23,0-.17.1.39.29-.07.32-.14.46-.15.31-.48.41-.7.63-.38.35-.59.85-1.13,1.08a1.27,1.27,0,0,0-.54.46,5.14,5.14,0,0,1-1,1.08c-.36.34-.41.54-.1.93.49.62,1.1,1.13,1.63,1.72s1.41,1.38,2.07,2.13a15.47,15.47,0,0,0,2.14,1.91c.46.36.87.77,1.3,1.17a10,10,0,0,1,1.4,1.27.21.21,0,0,0,.16.08,3.87,3.87,0,0,0,1.44-.15c.17-.08.36-.2.33-.38a5.34,5.34,0,0,1,0-2.32c.13-.48-.13-.94-.12-1.41a8.94,8.94,0,0,0-.14-2c-.12-.54-.22-1.09-.29-1.65-.12-1.16,0-2.33-.1-3.5A22.59,22.59,0,0,1,56.47,42.66ZM55,67.91c-.15.46.12.81.33,1.22s.68.77.78,1.27a1.06,1.06,0,0,0,.6.76,3.9,3.9,0,0,1,.35.19,3.18,3.18,0,0,0,1.46.9,7.07,7.07,0,0,0,3,.14,3.72,3.72,0,0,0,1-.07,4.74,4.74,0,0,0,2.19-1.15,6,6,0,0,0,1.22-2,7.25,7.25,0,0,0,.29-1.4.92.92,0,0,0-.49-1.13c-.21-.13-.53-.24-.49-.6s.12-.77-.29-1a1.18,1.18,0,0,1-.33-.43,2.85,2.85,0,0,0-2.49-1.67.52.52,0,0,1-.42-.14c-.11-.14-.22-.08-.36,0-.52.14-1.06.13-1.59.28s-.8.51-1.3.29v.12c0,.24-.24.31-.41.36a2,2,0,0,0-.71.46,2.07,2.07,0,0,1-1,.67.31.31,0,0,0-.29.26c0,.37-.33.55-.54.78a1.55,1.55,0,0,0-.36.65C55.26,67.07,54.9,67.46,55,67.91ZM77.1,105.57a4.41,4.41,0,0,0,1.3-.2,3.78,3.78,0,0,0,1.2-.2,4,4,0,0,0,2-2c.4-.65,0-1.43.5-2a.15.15,0,0,0,0-.13c-.25-.45-.12-1.11-.89-1.29-.52-.12-.72-.59-.53-.87a.55.55,0,0,0-.06-.73c-.37-.49-.54-1.2-1.35-1.19a.14.14,0,0,1-.09,0,2.88,2.88,0,0,0-3,.25.62.62,0,0,0-.4.54.92.92,0,0,1-.92.88.63.63,0,0,0-.61.41,4.77,4.77,0,0,0-.34.63c-.13.37-.41.66-.53,1-.31.88,0,1.82-.2,2.72a.2.2,0,0,0,.08.13c.24.12.32.38.53.53a14,14,0,0,0,2.39,1.26C76.46,105.43,76.72,105.78,77.1,105.57Zm-40.91-72c.07-.34-.1-.44-.44-.55a5.46,5.46,0,0,1-1.88-.65c-.17-.13-.29-.4-.53-.37a5.35,5.35,0,0,1-1.57-.32c-.56-.11-1-.47-1.51-.6a4.85,4.85,0,0,1-1.1-.35c-.37-.18-1.12.24-1.27.6a.22.22,0,0,0,.09.28c.64.45,1.11,1.1,1.78,1.53a3,3,0,0,1,1,1.07,4.25,4.25,0,0,0,.63.82c.52.58,1,1.14,1.53,1.74s.83,1.29,1.57,1.63c.14.06.17.2.25.3s.32.24.41,0,.41-.62.31-1c-.2-.7.18-1.31.23-2a8.15,8.15,0,0,1,.3-1.61.45.45,0,0,0,.2-.5Zm83.17-12.82a2,2,0,0,0,0,.69c.13.42.43.09.63.17s.5.28.45.33c-.23.24-.08.55-.27.8a.74.74,0,0,0,.14,1,.73.73,0,0,0,.45.14,4.17,4.17,0,0,1,1.32.18,2,2,0,0,0,1.67-.44,4.17,4.17,0,0,0,1.82-1.87c.14-.27.43-.61.14-.94a.56.56,0,0,1-.07-.73c.16-.3,0-.43-.26-.62a5.6,5.6,0,0,1-1.13-.76A2.26,2.26,0,0,0,122,18.3a5.72,5.72,0,0,0-1.61,1C119.91,19.67,119.11,19.83,119.36,20.75ZM54.18,38.88c-.07.23-.09.55.08.67a3.76,3.76,0,0,1,.53.69c.17.23.42.82,1,.83A5.77,5.77,0,0,0,58,40.52a7,7,0,0,0,1.13-.65c.09,0,.26-.08.24-.18-.11-.48.28-.64.51-.91a1.58,1.58,0,0,0,.38-.68c-.28-.24-.13-.53-.08-.74a2.29,2.29,0,0,0-.2-.88c-.09-.29-.24-.63-.65-.29h-.07c-.33-.29-.8-.25-1.14-.5-.61-.44-1.25-.15-1.87-.06-.27,0-.5.32-.76.47s-.66.39-.25.82a.5.5,0,0,1,.08.63c-.15.22-.37.11-.57,0a.31.31,0,0,0-.47.26C54.31,38.07,54.07,38.52,54.18,38.88ZM115.43,5.63c.1-.23-.18-.44-.14-.69s-.15-.43-.39-.57-.44-.48-.61-.44c-.69.13-1.42-.2-2.07.14s-1.31.4-1.77,1a2,2,0,0,0-.56,1.76,4.75,4.75,0,0,0,.69,1.62,1.16,1.16,0,0,0,1.07.55,3.3,3.3,0,0,1,.77,0c.34.05,1.35-.53,1.4-.84a2.57,2.57,0,0,1,.39-.73c.25-.47.63-.85.86-1.32a.2.2,0,0,1,.21-.2C115.55,6,115.42,5.78,115.43,5.63ZM32,65.63c1.11-.17,2-.41,2.3-1.47a1.91,1.91,0,0,0-.56-2.41.4.4,0,0,1-.15-.26c.08-.32-.17-.44-.36-.56s-.71-.39-1.07-.57a.25.25,0,0,0-.17,0c-.08.06,0,.12,0,.17v.16c-.33-.13-.45.24-.72.26-1.27.11-2.08,1.65-2.17,2.65,0,.21,0,.37.29.31a.48.48,0,0,1,.52.3c.05.47.44.58.68.86a2.11,2.11,0,0,0,1.41.51Zm73.75,68.87a2.79,2.79,0,0,0,1.68-.61,5.75,5.75,0,0,0,1.86-2.23.86.86,0,0,0,.12-.68c-.25-.7-.53-1.29-1.41-1.37s-2-.54-2.85.5h-.08c-.42.06-.58.36-.71.72a4.18,4.18,0,0,0-.16,1.61c0,.37,0,.89.4,1.09a1.85,1.85,0,0,1,.66.61c.17.2.33.38.49.31ZM20.37,111.38c0-.37,0-.76-.39-1a.39.39,0,0,1-.14-.23,1.63,1.63,0,0,0-1.74-1.32,4.74,4.74,0,0,0-1.12.23c-.2.07-.58.13-.59.23,0,.37-.3.56-.48.78a1.42,1.42,0,0,0-.33,1.06c.1.45,0,1,.35,1.39a.77.77,0,0,1,.31.75c0,.13.08.19.18.27a4,4,0,0,0,2.26.65c.12,0,.18-.09.24-.17a1.18,1.18,0,0,1,.33-.3.88.88,0,0,0,.42-.59c.11-.31.11-.7.37-.93A.91.91,0,0,0,20.37,111.38Zm3.29-83.64c-.26-.06-.39-.06-.48.07-.42.61-1,1.06-1.38,1.72a1.22,1.22,0,0,0,.21,1.7l0,0c.59.43,1.18.94,2,.61.45-.19.95,0,1.4-.32a1.32,1.32,0,0,1,.62-.09.89.89,0,0,0,.88-.51c.23-.65.78-1.19.74-2l.05-.08c.05-.08.1-.16,0-.23a.5.5,0,0,0-.24-.09c-.12,0-.13.13-.1.21s-.06.17-.19.19c-.43.08-.65-.13-.84-.48-.3-.55-.55-.64-1.08-.45a.34.34,0,0,1-.34,0C24.52,27.69,24,28,23.66,27.74ZM92.6,52.14h.16a6.51,6.51,0,0,0,2.5-1.4,1.55,1.55,0,0,0,.24-.27.54.54,0,0,0,0-.76c-.14-.22-.44-.3-.52-.53a.65.65,0,0,0-.75-.54h0c-.09,0-.13,0-.19-.08a5.28,5.28,0,0,0-.63-.62,1.59,1.59,0,0,0-1.4-.37,2.89,2.89,0,0,0-1.43,1.15,1.74,1.74,0,0,0-.45,1.46,10.34,10.34,0,0,0,.5,1.45.26.26,0,0,0,.18.13A11.44,11.44,0,0,0,92.6,52.14Zm-53.34,33a1.92,1.92,0,0,0-.33-1c-.06-.11-.13-.25-.25-.08s-.32.07-.49.07S38,84,38,83.84s-.29-.34-.09-.58a.66.66,0,0,0-.17-.24,2.94,2.94,0,0,0-2.22,0,5,5,0,0,0-1.37,1.5,1.4,1.4,0,0,0-.28,1.18,1.65,1.65,0,0,0,.75,1c.35.18.72.34,1.06.55a.39.39,0,0,0,.55-.13.22.22,0,0,0,0-.12c0-.1.12-.2.11-.29,0-.25,0-.53.26-.54a.78.78,0,0,1,.54.37c.24.37.49.28.8.14.64-.28.67-1.1,1.28-1.4C39.26,85.33,39.26,85.21,39.26,85.13Zm3.3,29a.8.8,0,0,0-.58.15,7.73,7.73,0,0,0-1.57,1.45c-.31.5-.29.84.22,1a.34.34,0,0,1,.25.4.31.31,0,0,1-.05.1c-.08.19-.15.39-.23.58a.34.34,0,0,0,.1.4c.63.54,1.28,1,2.18.6.64-.31,1.47-.37,1.7-1.28.13-.54.55-1,.13-1.62a.64.64,0,0,1,0-.68c.12-.21-.1-.36-.26-.44s-.18.13-.22.23a.45.45,0,0,1-.56.33l-.05,0c-.23-.08-.57,0-.51-.5a.62.62,0,0,0-.5-.72h-.09ZM47.33,3.46a3.06,3.06,0,0,0-.07-.8,1.12,1.12,0,0,0-1.12-1.11,1.16,1.16,0,0,0-.6.17c-.64.37-1.55.56-1.64,1.56,0,.1-.14.19-.21.29a1.25,1.25,0,0,0,0,1.29,2.91,2.91,0,0,1,.5.72.69.69,0,0,0,.79.56c.36,0,.57.14.56.52,0,.13.15.24.17.21.15-.27.68-.06.68-.52a.82.82,0,0,1,.1-.24A4.56,4.56,0,0,0,47.33,3.46ZM42.89,106.91c0,.16.25.15.17.38a1.59,1.59,0,0,0,0,.81,12.21,12.21,0,0,1,.49,1.52A6,6,0,0,1,44,112c-.12.58,0,.62.61.62-.26-.21-.08-.4,0-.59a10.3,10.3,0,0,0,.81-1.71c.2-.68.23-.82.92-1-.53-.19-.52-.49-.25-.84a.57.57,0,0,0,.13-.33,1.9,1.9,0,0,1,.33-1.24.64.64,0,0,0,0-.68c-.12-.13-.25.14-.41.16H46a23.72,23.72,0,0,0-2.38.26c-.2,0-.21-.18-.36-.23C43.26,106.69,43.26,106.93,42.89,106.91Zm28.79,22.37c-.17-.32.07-.58.2-.86a.7.7,0,0,0-.12-.81,3.8,3.8,0,0,0-1.7-.59h-.55c-.18,0-.53,0-.59.18-.17.68-.73,1.14-.83,1.89a1.39,1.39,0,0,0,.3,1.1,1.52,1.52,0,0,0,1.58.62c.47-.14.78-.49,1.19-.64S71.61,129.65,71.68,129.28ZM138.44,7.52A3.06,3.06,0,0,0,139.81,7a2,2,0,0,0,.95-1c.17-.4.45-.84,0-1.27V4.63c0-.6-1-1.33-1.52-1.11s-1.24.25-1.57.88c0,.1-.22.14-.15.29a.32.32,0,0,0,.38.18,1.69,1.69,0,0,1,.74.11c.15,0,.38.11.34.3s-.24.23-.4.21a1,1,0,0,0-1.2.75v0C137.17,6.93,137.48,7.52,138.44,7.52Zm-16,82c.07-.75-.58-1-1-1.47a.43.43,0,0,0-.46-.06,1.45,1.45,0,0,1-.74.15,1.17,1.17,0,0,0-1,.89,2.46,2.46,0,0,0-.12,1,.74.74,0,0,0,.67.87,3,3,0,0,0,2-.25C122.26,90.34,122.44,90.12,122.39,89.52Zm-121-4.38a.59.59,0,0,0,.3.77.58.58,0,0,0,.18,0c.33.08.66.14,1,.21a.73.73,0,0,0,.52-.08,2.79,2.79,0,0,0,1.42-1.41c.17-.38-.08-.61-.11-.9,0-.09-.23-.34-.38-.24-.35.23-.51,0-.74-.19a.71.71,0,0,0-.32-.14,2,2,0,0,0-1.86,2Zm138.87,36.38h.14a5.68,5.68,0,0,0,2.39-1,.33.33,0,0,0,.12-.46v0a1.8,1.8,0,0,0-.88-1,.28.28,0,0,0-.42.18c-.27.68-.45.74-1.08.35a.65.65,0,0,0-.71,0,1.58,1.58,0,0,0-.57,1.43.45.45,0,0,0,.4.41A4.48,4.48,0,0,0,140.26,121.52ZM16,143.6c-.13.37.26.67.5,1a.86.86,0,0,0,1.17.34.68.68,0,0,0,.21-.17,2.06,2.06,0,0,0,.56-1.42c0-.28-.32-.73-.52-.72a.64.64,0,0,1-.74-.54.76.76,0,0,1,0-.15c0-.43-.13-.35-.4-.24C15.93,142.06,16.05,142.78,16,143.6ZM57,58.67a2.64,2.64,0,0,0-.13-.46c-.11-.23-.31-.1-.46-.06s-.23.21-.11.27a1.11,1.11,0,0,1,.32.4.27.27,0,0,0,.27.12C57,58.91,57,58.77,57,58.67ZM25,135c.3.15.46-.09.66-.14s.19-.06.12-.18a.13.13,0,0,0-.18,0h0A4.05,4.05,0,0,1,25,135Z"/><path class="cls-9" d="M54.72,30.84a1.9,1.9,0,0,1-.41-.75c-.13-.32-.29-.58-.64-.65a.31.31,0,0,1-.24-.38A1.52,1.52,0,0,0,52.88,28c0-.05-.15-.13-.13-.16.28-.73-.58-.88-.72-1.42s-.58-.78-.59-1.31c0-.15-.13-.23-.2-.34s-.5-.47-.14-.82a.15.15,0,0,0,0-.21l0,0c-.2-.06-.24-.23-.3-.39s-.1-.16-.19-.07-.22,0-.25-.1a20.2,20.2,0,0,0-1.35-3.1c-.11-.27-.07-.55-.18-.82s-.16-.57-.48-.66c0-.2.26-.13.29-.29-.32-.09-.59-.22-.55-.63a.25.25,0,0,0,0-.17,3.37,3.37,0,0,1-.52-1.63,3.67,3.67,0,0,0-.71-1.57c-.24-.37-.23-.8-.43-1.15s-.21-.8-.4-1.18c-.08-.17-.24-.35-.18-.54s-.16-.56,0-.55.67-.14.87.27a1.61,1.61,0,0,1,.27.65,5.12,5.12,0,0,0,.73,1.85c.2.44.57.83.36,1.37,0,.11,0,.13.1.2a1.42,1.42,0,0,1,.36,1.38.3.3,0,0,0,.07.25c.57.39.61,1.07.81,1.64a4.19,4.19,0,0,0,.59,1.33,2.75,2.75,0,0,1,.72,1.55c0,.72.61,1.12.66,1.72,0,.42.54.41.51.84s.32.67.54,1,.42.73.6,1.1a3.6,3.6,0,0,1,.29.5c.11.21,0,.48.29.65s0,.32,0,.5.36-.28.32.06c0,.55.35.89.54,1.32a3,3,0,0,0,.59,1c.08.08.21.38-.11.46S54.94,30.76,54.72,30.84Z"/><path class="cls-9" d="M55.57,31.17c-.31.16.22.49-.15.66-.1.05-.52-.51-.52-.66,0-.33.27-.33.46-.37S55.47,31,55.57,31.17Z"/><path class="cls-9" d="M52.26,58.67c-.2.53-.49,0-.74,0-.09,0,0-.21.06-.32.11-.35.31-.09.41,0s.16.23.29.32Z"/><path class="cls-9" d="M52.26,58.67h0a1.89,1.89,0,0,1-.11-.25c0-.09,0-.18.07-.23s.13,0,.17.09.18,0,.27,0h0C52.66,58.62,52.6,58.83,52.26,58.67Z"/><path class="cls-9" d="M84.47,76.25c.1,0,.19-.1.29-.09s.64-.06.66.17-.42.31-.65.36-.33-.21-.29-.45Z"/></g></g></g></g></g></svg>