<svg xmlns="http://www.w3.org/2000/svg" viewBox="0 0 296.78 63.73"><defs><style>.cls-1{fill:#010101;}</style></defs><g id="Layer_2" data-name="Layer 2"><g id="Layer_1-2" data-name="Layer 1"><path class="cls-1" d="M1.5,24a49.08,49.08,0,0,1,6.28.72c1.61.23,3.2.24,4.82.33,2.67.15,5.53.57,8.17-.1s4.45-3.14,3.47-5.94-3.87-4.83-6.45-6.1c-2.74-1.34-6.06-2.35-9-1.2s-4.45,4.52-5.13,7.52c-1.5,6.65-.36,14.91,4.68,19.87a11.34,11.34,0,0,0,10.08,3.17A12.94,12.94,0,0,0,27,35.67c.72-1.33-1.72-3-2.52-1.56-2.55,4.74-8.83,7.6-13.57,4.14a12.7,12.7,0,0,1-4.19-6.53,21,21,0,0,1-.82-9.21c.31-2.48.9-5.39,2.75-7.22s4.73-1.5,7-.62c2.06.78,4.45,2.07,5.66,4,1.36,2.16-.59,3.55-2.57,3.83a41.31,41.31,0,0,1-7.12-.13c-3.54-.11-7-1-10.52-1C-.75,21.31,0,24,1.5,24Z"/><path class="cls-1" d="M31.52,14.4c.86,4.06,3.11,7.51,4.49,11.37a31.52,31.52,0,0,0,2.79,6.61c1.11,1.74,3.75,3.66,5.25,1.21a16.06,16.06,0,0,0,1.4-3.8c.52-1.73,1.14-3.42,1.66-5.15a41.93,41.93,0,0,0,1.52-7.08A67,67,0,0,1,50.5,9.92c.35-1.46-2.28-2.67-2.7-.94-.46,1.91-1.08,3.79-1.53,5.71s-.42,3.74-.86,5.57c-.75,3.08-1.88,6.07-2.81,9.1-.28.89-.81,1.93-1.07,2.69-.05.16,0,0,0,0-.15-.16.13.18,0,0s-.5-.61-.72-1a30.37,30.37,0,0,1-2.27-5.61c-1.29-3.67-3.53-7-4.35-10.81a1.79,1.79,0,0,0-1.52-1.47,1,1,0,0,0-1.17,1.2Z"/><path class="cls-1" d="M72.37,14.7c-1.53-1.53-3.35-3-5.57-3.27s-4.13.89-5.73,2.25c-3.12,2.66-4.22,7-4.84,10.88A45.25,45.25,0,0,0,55.72,30c-.06,1.84.14,3.81,1.58,5.13,3.62,3.3,7.28-2,9-4.72,1.48-2.34,2.75-4.72,4.4-7a9.74,9.74,0,0,0,2.21-6.58c0-1.28-2.66-2.23-2.69-.6a47.46,47.46,0,0,0,.81,10,30.77,30.77,0,0,0,2.69,8.77C76,39.34,80.47,40.24,85,40.3c1.89,0,1.18-2.66-.36-2.68-3.51,0-7.19-.32-8.83-3.9a33.15,33.15,0,0,1-2.17-7.82,44.29,44.29,0,0,1-.68-8.67l-2.69-.61c.14,3.58-2.91,6.09-4.56,9a38,38,0,0,1-3.09,4.92c-.74.93-1.79,2.7-3.06,2.93-1.91.35-.88-5.73-.74-6.84.38-3,1-6.4,2.74-9A8.25,8.25,0,0,1,66,14.18c1.92-.45,3.47,1,4.72,2.23s3-.38,1.65-1.71Z"/><path class="cls-1" d="M147.55,18.14c0,6-2,13.68,2.56,18.62A1.38,1.38,0,0,0,152,37c.56-.56.19-1.41-.26-1.89-1.75-1.9-1.89-5-1.9-7.43,0-2.86.38-5.7.39-8.55a1.78,1.78,0,0,0-1.18-1.74c-.57-.19-1.51,0-1.51.8Z"/><path class="cls-1" d="M148.07,5.21l1,1a1.51,1.51,0,0,0,.49.33,1.16,1.16,0,0,0,.51.15.9.9,0,0,0,.49,0,.82.82,0,0,0,.41-.24l.18-.27a1.17,1.17,0,0,0,.09-.64l-.09-.35a2,2,0,0,0-.43-.64l-1-1a1.34,1.34,0,0,0-.49-.32,1.17,1.17,0,0,0-.52-.16.79.79,0,0,0-.48.06.7.7,0,0,0-.41.24l-.18.26a1.18,1.18,0,0,0-.09.64l.09.35a1.85,1.85,0,0,0,.43.64Z"/><path class="cls-1" d="M160.78,1.17c0,2.82.78,5.47,1,8.26.28,3.06-.08,6.11.54,9.14,1.1,5.42.74,11,.41,16.44-.08,1.43,2.41,2.74,2.7.94a40.69,40.69,0,0,1,4.81-14.25c1.31-2.24,7-10.35,9.62-5.76a11.8,11.8,0,0,1,1.27,5.48c.07,2.58.46,5.18.31,7.77-.21,3.77-3.26,7.75-7.25,7.79a21,21,0,0,1-7-1.37,19.59,19.59,0,0,1-5.6-2.84,1.21,1.21,0,0,0-1.77.33c-.36.73.21,1.45.75,1.87a22,22,0,0,0,6.13,3.11,25.15,25.15,0,0,0,7.41,1.57,8.12,8.12,0,0,0,6.06-2A11.07,11.07,0,0,0,184,31.44c.47-3-.06-6.05-.17-9a16,16,0,0,0-1.49-6.94c-1.15-2.25-3.35-4-6-3.51s-4.71,2.87-6.3,4.84c-4.13,5.13-6.28,11.8-7.29,18.23l2.7.94c.33-5.53.74-11.22-.33-16.7-.6-3-.38-6-.59-9.07s-1-5.77-1.07-8.74c0-1.54-2.71-2.15-2.69-.27Z"/><path class="cls-1" d="M191.84,18.44c1,1.07.72,3.39.66,4.72-.07,1.6-.12,3.21-.25,4.81-.23,3-1.09,7.63,1.62,9.81.53.42,1.34.76,1.9.19a1.39,1.39,0,0,0-.25-1.9c-.88-.7-.84-2.57-.81-3.8,0-1.61.28-3.21.31-4.82.07-3.5,1.08-7.87-1.54-10.71a1.38,1.38,0,0,0-1.9-.19c-.56.56-.19,1.41.26,1.89Z"/><path class="cls-1" d="M193.86,6.71C195.74,6.71,195,4,193.5,4c-1.89,0-1.18,2.67.36,2.67Z"/><path class="cls-1" d="M206.58,18.47c.12,2,.85,3.93,1,5.94a56.24,56.24,0,0,1,0,6.09c-.12,3.7-.67,7.52.22,11.17.28,1.12,1.78,2.14,2.61.91,2.07-3.08,2.4-7,3.21-10.49a20.26,20.26,0,0,1,3.35-7.4c.67-.93,3.15-4.42,4.55-3,1.15,1.18,1.55,3.39,1.86,4.93.39,2,.59,4.06.9,6.08C225,37.54,226.8,42,226.94,47c0,1.54,2.74,2.15,2.69.27-.14-4.93-1.91-9.43-2.66-14.25-.63-4.07-.69-9-3.33-12.43-4.51-5.8-10.19,3.24-11.7,7.11-1.69,4.33-1.4,9.41-4.05,13.35l2.6.91c-.9-3.71-.25-7.54-.2-11.3,0-2,.15-4,0-5.95s-.9-3.92-1-5.94c-.09-1.53-2.79-2.15-2.69-.27Z"/><path class="cls-1" d="M254.55,19.79c-1.73-1.51-3.63-3.28-6-3.59-2.15-.27-3.95,1-5.39,2.43C240,21.79,236.84,26,236,30.48c-.65,3.47.29,9.07,4.59,9.61,3.13.39,6.24-2.17,8.24-4.28,3.73-3.94,4.89-9.37,7.24-14.1l-2.61-1.25c-.36,4.38,0,8.75-.08,13.13,0,2.12-.17,4.24-.07,6.36.09,2,.57,3.87.85,5.81.46,3.27.59,6.94-.65,10.06-1.06,2.69-3.69,5.19-6.74,5.22-1.83,0-3.49-1.17-5.26-1.52-.61-.12-1.24-.18-1.84-.33a2.33,2.33,0,0,1-.82-.27c-.13-.11-.08.18-.07-.15A1.77,1.77,0,0,0,237.61,57c-.58-.2-1.5,0-1.51.79a3.64,3.64,0,0,0,2.36,3.59,35.25,35.25,0,0,0,3.82.88c2.09.63,3.91,1.74,6.19,1.35a10.53,10.53,0,0,0,4.78-2.29c2.61-2.18,3.62-5.68,3.85-9a30.73,30.73,0,0,0-.27-6.57,46.23,46.23,0,0,1-.85-7.14c0-2.74.13-5.46.08-8.21a88.7,88.7,0,0,1,.11-9.08c.1-1.21-1.88-2.71-2.61-1.25-3,6-4.34,13.37-10.84,16.65-.75.37-1.92.91-2.77.54-1.22-.52-1.4-2.8-1.43-3.88-.11-4,2.46-7.51,4.84-10.48,1.13-1.43,2.44-3.26,4.2-3.94,2.05-.78,3.95,1.24,5.34,2.45s3.08-.46,1.65-1.7Z"/><path class="cls-1" d="M277.37,24.5c-1.28-3-2.1-7.9-6.46-7.45-2,.21-3.2,1.86-4.16,3.42a32.28,32.28,0,0,0-3.07,6.24c-1.23,3.54-1.95,8.28.11,11.68a4.25,4.25,0,0,0,3.58,2.2c2,0,3.65-1.52,5-2.84a27.28,27.28,0,0,0,7.34-13.13l-2.43.08a36,36,0,0,1,2.12,4.15,27.39,27.39,0,0,1,1,4.39,19.41,19.41,0,0,0,3.18,7.86c3,3.95,9,8,13,3,1-1.23-1.19-3.3-2.16-2.09a3.82,3.82,0,0,1-5.44,1,12,12,0,0,1-4.43-4.89,31.69,31.69,0,0,1-1.95-7.31,27.18,27.18,0,0,0-3.15-7.2c-.52-1-2.18-1.15-2.43.07A24.86,24.86,0,0,1,270.7,35.1c-.77.84-2.86,3.36-4.25,2.77-1-.44-1.12-2.6-1.17-3.49-.29-4.45,1.74-8.85,4.08-12.51.73-1.13,2.49-3.23,3.73-1.47.93,1.3,1.15,3.07,1.77,4.52A1.74,1.74,0,0,0,276.64,26a1.08,1.08,0,0,0,.73-1.54Z"/><path class="cls-1" d="M139.71,12.62c-4.33-2.23-9.63-4.29-14.58-3.18-4.34,1-8.25,5.07-6.13,9.64,1.83,3.92,6.06,6.59,9.76,8.49,2.17,1.12,4.53,1.68,6.73,2.71a4.5,4.5,0,0,1,2.49,2.1c.41,1-.42,1.95-1.14,2.6-5.34,4.82-12.43,4.88-19.19,4.88-1.88,0-1.18,2.67.36,2.67,6.11,0,12.44.15,17.81-3.22,1.8-1.13,4.11-2.42,4.8-4.58.79-2.44-1-4.75-3-6-2.13-1.39-4.67-1.86-7-2.88a29.91,29.91,0,0,1-5-2.9,12.61,12.61,0,0,1-4.2-4.27c-.94-1.9-.09-3.66,1.43-5,4.38-3.77,11.31-1.16,15.76,1.12,1.73.89,2.58-1.39,1-2.19Z"/></g></g></svg>