<svg xmlns="http://www.w3.org/2000/svg" viewBox="0 0 144.24 69.19"><defs><style>.cls-1{fill:#231f20;}</style></defs><g id="Layer_2" data-name="Layer 2"><g id="Layer_1-2" data-name="Layer 1"><path class="cls-1" d="M0,17.12c-.24,2.53,1.25,4.69,1.19,7.2,0,2-.17,4-.32,5.92C.65,33.4,0,38,2.34,40.57a3.54,3.54,0,0,0,3.53,1.22,4.61,4.61,0,0,0,2.47-2.58,28.58,28.58,0,0,0,2.19-7.88c.32-1.84.53-3.69.83-5.53.4-2.38.9-5,2.57-6.88L12,18.73c.4.34.49,1.24.59,1.77.15.76.25,1.54.37,2.31.42,2.76.75,5.55,1.32,8.29.63,3,.82,6.5,2.42,9.22a4.75,4.75,0,0,0,3.67,2.52,3.62,3.62,0,0,0,3-1.61,26.05,26.05,0,0,0,4.12-8.77c1.43-4.7.68-9.57.65-14.4A1.76,1.76,0,0,0,27,16.33c-.56-.2-1.51,0-1.51.79,0,4.1.82,8.57-.16,12.6a31.29,31.29,0,0,1-3.19,8.08c-.4.69-1.21,2.15-1.94,2.33-.93.24-1.39-1-1.64-1.69a21.35,21.35,0,0,1-1-4.11c-.3-1.77-.73-3.51-1-5.28-.39-2.37-.71-4.76-1.07-7.14-.25-1.63-.51-3.74-1.83-4.89-.49-.42-1.38-.77-1.9-.19-2.59,2.88-3,7.12-3.5,10.78a58.32,58.32,0,0,1-1.32,7,14.65,14.65,0,0,1-1.37,3.56,3.15,3.15,0,0,1-.82,1c-.2.14-.41.09-.35.12-.86-.49-.9-2.1-1-3a33.75,33.75,0,0,1,.14-4.92c.15-1.93.25-3.88.33-5.82a11.79,11.79,0,0,0-.39-3.79,9.66,9.66,0,0,1-.8-3.64c.14-1.48-2.53-2.7-2.69-.94Z"/><path class="cls-1" d="M32.59,17.12c0,2.1.86,3.81,1.69,5.68.93,2.08,1.68,4.26,2.53,6.38s1.74,4.09,2.62,6.14,1.14,4,2.21,5.91l1.9-1.4c-2.13-2-2.84-4.62-3-7.44a27.7,27.7,0,0,1,.19-8c1.1-4.81,5.54-6.93,10.06-7.53,1.75-.23.45-2.85-1-2.66C44.22,15,39.28,17.76,38,23.47a19,19,0,0,0-.31,4.32,49.92,49.92,0,0,0,.18,5.05,13.38,13.38,0,0,0,4,8.69c1.17,1.09,2.75.08,1.9-1.39-1-1.67-1.17-3.68-1.94-5.44s-1.63-3.65-2.37-5.52-1.53-3.8-2.25-5.72c-.65-1.71-2-3.51-2-5.4a1.76,1.76,0,0,0-1.18-1.73c-.59-.2-1.5,0-1.52.79Z"/><path class="cls-1" d="M58,19.15a17.68,17.68,0,0,0,.42,4A16.68,16.68,0,0,1,59,27.4,26.23,26.23,0,0,0,59.76,35c.48,1.88,1.27,3.75,3.05,4.75a2.7,2.7,0,0,0,2.55.24,3.41,3.41,0,0,0,1.48-2.63c.26-1.48-2.38-2.69-2.69-.94a3.19,3.19,0,0,1-.32,1c-.08.14-.24.12,0,.12-.23,0,.07.07-.16,0,.24.12-.16-.13-.16-.13.22.2-.39-.43-.24-.25-.86-1-1.08-2.87-1.32-4.3a17.06,17.06,0,0,1-.33-2.75c0-1.19.12-2.37.07-3.56-.08-2.18-1-4.24-1-6.45a1.78,1.78,0,0,0-1.18-1.73c-.57-.2-1.5,0-1.51.79Z"/><path class="cls-1" d="M70.26,1.17c.1,2,.57,3.88.83,5.83a50.28,50.28,0,0,1,.18,6.61c0,4.16-.33,8.46.32,12.58A39.57,39.57,0,0,0,73,32a9.47,9.47,0,0,0,1.55,3.21c1.61,2,4.07,2,6.43,2,1.88,0,1.18-2.69-.36-2.68s-3.62.32-4.44-1.22a17.1,17.1,0,0,1-1.3-4.07A30.13,30.13,0,0,1,74,23.62c-.19-3.83,0-7.72,0-11.56a34.14,34.14,0,0,0-.27-5.44A47.84,47.84,0,0,1,73,1.44c-.08-1.54-2.79-2.15-2.69-.27Z"/><path class="cls-1" d="M66.32,22.89C70.55,21,75.45,22,79.92,22c1.89,0,1.18-2.67-.36-2.68-5,0-10.19-.94-14.89,1.13-1.5.66.26,3.07,1.65,2.46Z"/><path class="cls-1" d="M87.56,18.47a29,29,0,0,0,.88,5.23,51.76,51.76,0,0,0,1.62,5.76c.6,1.9.11,3.87.58,5.78.4,1.64,1.82,2.93,2,4.61.17,1.52,2.9,2.14,2.69.26s-1.37-2.94-2-4.52c-.67-1.82-.08-3.94-.59-5.83s-1.27-3.69-1.63-5.64a30.86,30.86,0,0,1-.91-5.38c0-1.54-2.7-2.15-2.69-.27Z"/><path class="cls-1" d="M92.29,5.84v-3a1.11,1.11,0,0,0-.05-.51,1.32,1.32,0,0,0-.22-.5,1.82,1.82,0,0,0-.92-.72,1.28,1.28,0,0,0-1,0,1,1,0,0,0-.53.76V4.91a1,1,0,0,0,0,.5,1.17,1.17,0,0,0,.22.51,1.9,1.9,0,0,0,.91.72,1.31,1.31,0,0,0,1,0,1,1,0,0,0,.53-.77Z"/><path class="cls-1" d="M99.77,16.1c0,3.79,1.1,7.22,2.17,10.81.77,2.61.36,5.38.44,8.06a12,12,0,0,0,.61,3.8c.39,1,1.37,2.79,2.71,2.58,1.72-.26,2.14-3.64,2.46-4.92.5-1.93,1-3.79,1.67-5.66.84-2.37,1.64-5,3.25-7a3,3,0,0,1,2.06-1.32.86.86,0,0,1,.53.32,10.46,10.46,0,0,1,1.65,4.69,69,69,0,0,1,.77,12.07,1.78,1.78,0,0,0,1.18,1.73c.57.2,1.51,0,1.51-.79,0-2.55,0-5.1-.18-7.65a28.66,28.66,0,0,0-1.75-9.31c-1-2.35-3.19-4.58-5.94-3.42-1.67.71-2.74,2.49-3.53,4a48.33,48.33,0,0,0-2.23,5.55,47.4,47.4,0,0,0-1.43,4.81c-.22.93-.45,1.86-.73,2.78a12.12,12.12,0,0,1-.41,1.15c-.25.55-.43.42.09.29l1.34.48c-1-.9-.9-2.72-.94-3.93,0-1.79.08-3.58,0-5.37a22.37,22.37,0,0,0-1.28-5.52A24.32,24.32,0,0,1,102.46,17a1.76,1.76,0,0,0-1.18-1.73c-.57-.2-1.5,0-1.51.79Z"/><path class="cls-1" d="M142.65,17.75c-3.41-3.84-8.36-2.32-11.38,1.16a20.54,20.54,0,0,0-3.5,6.74,27.8,27.8,0,0,0-1.66,8.6c0,1.87-.11,4.24,1.2,5.76a3.09,3.09,0,0,0,3.64.83c2.68-1.09,4.8-4,6.38-6.31a24.94,24.94,0,0,0,3-6.41,41.88,41.88,0,0,1,1.35-4.29,18.33,18.33,0,0,0,1.54-4.29l-2.69-.94a57.28,57.28,0,0,0-.07,12.21c.2,2.12.77,4.17,1,6.29s0,4.53,0,6.78a46.16,46.16,0,0,1-.2,6.55c-.25,1.6-.47,3.22-.78,4.81a10.14,10.14,0,0,1-1.61,4.4,13.45,13.45,0,0,1-3.66,3.1c-1.54,1-3.17,1.79-4.78,2.62a7.39,7.39,0,0,1-5.78.84c-1.88-.52-1.9,2.09-.33,2.52a9.26,9.26,0,0,0,5.34.13,28.35,28.35,0,0,0,4.85-2.31c3-1.58,6.32-3.53,7.69-6.76a22.72,22.72,0,0,0,1.24-5.08,44.68,44.68,0,0,0,.73-5.76c.07-2.4,0-4.82,0-7.23a34.61,34.61,0,0,0-.44-6.82,52.32,52.32,0,0,1-.54-15.35c.17-1.47-2.4-2.71-2.69-.94-.36,2.14-1.68,4-2.21,6.11a29.33,29.33,0,0,1-2.29,6.17,22.62,22.62,0,0,1-4.28,5.68,7.28,7.28,0,0,1-2.48,1.82c-.16.06-.33,0-.39,0s.31.14.31.18-.29-1-.32-1.33c-.52-4.72.9-9.61,2.94-13.83,1.49-3.09,6-7.58,9.16-4a1.39,1.39,0,0,0,1.91.19c.55-.58.18-1.4-.26-1.9Z"/><path class="cls-1" d="M56.51,9.77a2.91,2.91,0,0,1,.6.06l-.34-.08a2.38,2.38,0,0,1,.51.18l-.34-.17a2.85,2.85,0,0,1,.41.26L57,9.78a3,3,0,0,1,.41.39l-.26-.3.1.12a2,2,0,0,0,.91.72,1.31,1.31,0,0,0,1,0,1,1,0,0,0,.53-.76,1.53,1.53,0,0,0-.27-1,4.46,4.46,0,0,0-.68-.76A4,4,0,0,0,58,7.58a3.86,3.86,0,0,0-.87-.35,3.91,3.91,0,0,0-1-.14.83.83,0,0,0-.49.06.73.73,0,0,0-.41.24,1.13,1.13,0,0,0-.26.9,1.71,1.71,0,0,0,.52,1l.32.25a1.68,1.68,0,0,0,.68.24Z"/></g></g></svg>